<svg width="13" height="19" viewBox="0 0 13 19" fill="none" xmlns="http://www.w3.org/2000/svg">
<g opacity="0.5">
<path d="M10.7872 12.0611C10.483 12.0611 10.234 12.345 10.234 12.6919C10.234 13.0388 10.483 13.3227 10.7872 13.3227C11.3957 13.3227 11.8936 13.8904 11.8936 14.5843V14.7673C11.8936 15.4612 11.3957 16.0289 10.7872 16.0289H2.21277C1.60426 16.0289 1.10638 15.4612 1.10638 14.7673V14.5843C1.10638 13.8904 1.60426 13.3227 2.21277 13.3227H8.29787C8.60213 13.3227 8.85106 13.0388 8.85106 12.6919C8.85106 12.345 8.60213 12.0611 8.29787 12.0611H2.76596V8.14376C2.76596 5.77822 4.44766 3.86056 6.52213 3.86056C8.5966 3.86056 10.2783 5.77822 10.2783 8.14376V10.2507C10.2783 10.5976 10.5272 10.8815 10.8315 10.8815C11.1357 10.8815 11.3847 10.5976 11.3847 10.2507V8.14376C11.3847 5.08433 9.20511 2.59894 6.52213 2.59894C3.83915 2.59894 1.65957 5.08433 1.65957 8.14376V12.1494C0.685957 12.4333 0.00553191 13.4363 0 14.5843V14.7673C0 16.1614 0.990213 17.2905 2.21277 17.2905H4.53617C4.83489 18.5269 5.95234 19.2586 7.0366 18.918C7.73362 18.7035 8.27574 18.0853 8.46383 17.2905H10.7872C12.0098 17.2905 13 16.1614 13 14.7673V14.5843C13 13.1902 12.0098 12.0611 10.7872 12.0611ZM6.5 17.7384C6.19574 17.7384 5.91362 17.5744 5.7366 17.2905H7.2634C7.08638 17.5744 6.80426 17.7384 6.5 17.7384ZM5.94681 1.46979V0.63081C5.94681 0.283865 6.19574 0 6.5 0C6.80426 0 7.05319 0.283865 7.05319 0.63081V1.46979C7.05319 1.81673 6.80426 2.1006 6.5 2.1006C6.19574 2.1006 5.94681 1.81673 5.94681 1.46979Z" fill="white"/>
</g>
</svg>
