<svg width="29" height="48" viewBox="0 0 29 48" fill="none" xmlns="http://www.w3.org/2000/svg">
<path opacity="0.3" d="M14.1539 36.684C13.5106 36.6195 12.8609 36.6892 12.246 36.8885C11.631 37.0879 11.0641 37.4126 10.5812 37.8421C10.0982 38.2716 9.7097 38.7966 9.44022 39.3839C9.17073 39.9712 9.02613 40.608 9.01555 41.2539C9.00497 41.8999 9.12865 42.5411 9.37876 43.1369C9.62887 43.7326 9.99998 44.2701 10.4686 44.7152C10.9372 45.1602 11.4932 45.5033 12.1013 45.7227C12.7094 45.942 13.3565 46.0328 14.0015 45.9895C16.8797 45.9895 18.9028 44.0522 18.8944 41.3198C18.9089 40.6984 18.7955 40.0806 18.5611 39.5049C18.3267 38.9291 17.9763 38.4077 17.5317 37.9729C17.0872 37.5382 16.5579 37.1994 15.9768 36.9777C15.3957 36.756 14.7753 36.656 14.1539 36.684V36.684ZM23.5926 5.83216C20.7483 3.15895 17.2945 2.09305 12.9603 2C12.3 2.0846 11.1403 2.16073 10.0059 2.3976C7.45007 2.86541 5.09206 4.08486 3.2338 5.89983C2.4655 6.71047 2.02616 7.77755 2.00113 8.89379C1.9761 10.01 2.36717 11.0957 3.09836 11.9399C4.47818 13.488 6.48443 13.488 8.42296 11.9399L8.47374 11.8892C9.30585 11.1962 10.2692 10.678 11.3062 10.3655C12.3433 10.053 13.4327 9.95264 14.5094 10.0704C15.3604 10.0835 16.1871 10.3563 16.8786 10.8522C17.57 11.3482 18.0932 12.0436 18.378 12.8451C18.8859 14.6385 18.0055 15.9328 16.685 17.0748C16.2194 17.4724 15.6861 17.7854 15.1866 18.1492C11.8937 20.5602 10.1075 23.7071 10.5392 27.8861C10.5787 29.2206 11.0511 30.5062 11.8852 31.5491C12.0494 31.7801 12.2675 31.9676 12.5206 32.0954C12.7737 32.2232 13.0542 32.2873 13.3377 32.2823C13.6212 32.2773 13.8992 32.2033 14.1477 32.0667C14.3961 31.9301 14.6074 31.735 14.7634 31.4983C15.2099 30.8944 15.5374 30.2111 15.7284 29.485C16.2503 27.4359 17.4055 25.6035 19.0298 24.2485C19.8763 23.5041 20.8837 22.8527 21.8487 22.1929C23.7926 20.9665 25.3392 19.2035 26.3014 17.1171C27.0581 15.1849 27.2041 13.0674 26.7198 11.0497C26.2354 9.03199 25.144 7.21108 23.5926 5.83216Z" stroke="#838B98" stroke-width="3"/>
</svg>
