<svg width="68" height="61" viewBox="0 0 68 61" fill="none" xmlns="http://www.w3.org/2000/svg">
<path d="M6.42107 1.60512V5.09214C4.77347 4.83457 2.98865 4.81658 1.45478 4.81618C0.66566 4.89083 -0.00341413 5.62901 1.31087e-05 6.42169V54.5874C-0.000372155 55.5635 1.0616 56.3868 2.00659 56.1428C7.7864 54.6976 21.5707 55.38 33.0333 60.8591C33.4832 61.0637 34.0285 61.0445 34.463 60.8093C45.6497 55.3804 60.0971 54.5776 65.4145 56.1432C66.3595 56.3872 67.4215 55.5639 67.4211 54.5878V6.42213C67.421 5.58146 66.6563 4.8167 65.8158 4.81662C64.0585 4.80298 62.602 4.88084 61 5.09258V1.60551C61 0.764913 60.2353 8.03954e-05 59.3948 1.32184e-07C52.6547 1.32184e-07 41.9435 3.09314 33.7106 7.82698C25.4776 3.09314 14.7664 1.32184e-07 8.02633 1.32184e-07C7.2237 -0.000401184 6.43995 0.913088 6.42107 1.60512ZM9.6316 3.3863C15.56 3.80527 25.0295 6.52069 32.1053 10.5609V52.0788C22.6974 47.76 15.4692 46.7671 9.6316 46.6351V3.3863ZM57.7895 3.3863V46.6351C51.9519 46.7671 44.7237 47.76 35.3158 52.0788V10.5609C42.3916 6.52069 51.8611 3.80527 57.7895 3.3863ZM3.21054 8.07746C4.33007 8.02529 5.35672 8.17289 6.42107 8.37821V48.1651C6.42115 49.0058 7.18584 49.7706 8.02633 49.7707C14.3136 49.7707 21.9651 50.5073 32.9832 56.0171C33.4318 56.2452 33.9893 56.2452 34.4379 56.0171C45.456 50.5072 53.1075 49.7707 59.3948 49.7707C60.2353 49.7706 61 49.0058 61 48.1651V8.37821C62.1002 8.10082 63.1805 8.07241 64.2106 8.07746V52.8063C56.8866 51.3661 44.8471 52.9717 33.6604 57.648C22.4198 52.5918 10.3339 51.3662 3.21054 52.7812V8.07746ZM10.7227 11.7526C10.7818 12.1729 11.2179 12.5015 11.6382 12.4424C17.8837 12.4424 24.5009 14.4667 29.5469 19.4164C29.8171 19.8001 30.4491 19.851 30.7771 19.5155C31.1052 19.1798 31.0401 18.5491 30.6505 18.2875C25.2623 13.0021 18.2348 10.8369 11.6382 10.8369C11.6382 10.8369 10.8355 10.8369 10.7227 11.7526ZM55.7829 10.8369C49.1863 10.8369 42.1588 13.0022 36.7706 18.2875C36.381 18.5491 36.3159 19.1798 36.644 19.5155C36.9721 19.851 37.604 19.8001 37.8742 19.4164C42.9202 14.4667 49.5375 12.4424 55.7829 12.4424C56.207 12.4504 56.597 12.0639 56.597 11.6397C56.597 11.2155 56.207 10.8309 55.7829 10.8369ZM10.7227 18.1746C10.7818 18.595 11.2179 18.9236 11.6382 18.8645C17.8837 18.8645 24.5009 20.8887 29.5469 25.8385C29.8171 26.2222 30.4491 26.273 30.7771 25.9374C31.1052 25.6019 31.0401 24.9711 30.6505 24.7096C25.2623 19.4242 18.2348 17.259 11.6382 17.259C11.6382 17.259 10.8355 17.259 10.7227 18.1746ZM55.7829 17.259C49.1863 17.259 42.1588 19.4243 36.7706 24.7096C36.381 24.9711 36.3159 25.6019 36.644 25.9374C36.9721 26.273 37.604 26.2222 37.8742 25.8385C42.9202 20.8887 49.5375 18.8645 55.7829 18.8645C56.207 18.8725 56.597 18.4859 56.597 18.0618C56.597 17.6376 56.207 17.253 55.7829 17.259ZM10.7227 24.5968C10.7818 25.0171 11.2179 25.3457 11.6382 25.2866C17.8837 25.2866 24.5009 27.3109 29.5469 32.2606C29.8171 32.6443 30.4491 32.6951 30.7771 32.3595C31.1052 32.0239 31.0401 31.3932 30.6505 31.1317C25.2623 25.8463 18.2348 23.6811 11.6382 23.6811C11.6382 23.6811 10.8355 23.6811 10.7227 24.5968ZM55.7829 23.6811C49.1863 23.6811 42.1588 25.8464 36.7706 31.1317C36.381 31.3932 36.3159 32.0239 36.644 32.3595C36.9721 32.6951 37.604 32.6443 37.8742 32.2606C42.9202 27.3109 49.5375 25.2866 55.7829 25.2866C56.207 25.2947 56.597 24.908 56.597 24.4839C56.597 24.0597 56.207 23.6751 55.7829 23.6811ZM10.7227 31.0188C10.7818 31.4391 11.2179 31.7677 11.6382 31.7087C17.8837 31.7087 24.5009 33.7329 29.5469 38.6828C29.8171 39.0665 30.4491 39.1173 30.7771 38.7817C31.1052 38.4461 31.0401 37.8153 30.6505 37.5538C25.2623 32.2683 18.2348 30.1032 11.6382 30.1032C11.6382 30.1032 10.8355 30.1032 10.7227 31.0188ZM55.7829 30.1032C49.1863 30.1032 42.1588 32.2684 36.7706 37.5538C36.381 37.8153 36.3159 38.4461 36.644 38.7817C36.9721 39.1173 37.604 39.0665 37.8742 38.6828C42.9202 33.7329 49.5375 31.7087 55.7829 31.7087C56.207 31.7167 56.597 31.3301 56.597 30.9059C56.597 30.4818 56.207 30.0971 55.7829 30.1032ZM10.7227 37.4409C10.7818 37.8612 11.2179 38.1899 11.6382 38.1308C17.8837 38.1308 24.5009 40.1551 29.5469 45.1048C29.8171 45.4886 30.4491 45.5394 30.7771 45.2038C31.1052 44.8682 31.0401 44.2374 30.6505 43.9759C25.2623 38.6905 18.2348 36.5253 11.6382 36.5253C11.6382 36.5253 10.8355 36.5253 10.7227 37.4409ZM55.7829 36.5253C49.1863 36.5253 42.1588 38.6906 36.7706 43.9759C36.381 44.2374 36.3159 44.8682 36.644 45.2038C36.9721 45.5394 37.604 45.4886 37.8742 45.1048C42.9202 40.1551 49.5375 38.1308 55.7829 38.1308C56.207 38.1388 56.597 37.7522 56.597 37.328C56.597 36.9039 56.207 36.5193 55.7829 36.5253Z" fill="#DADCE0"/>
</svg>
