<svg width="54" height="54" viewBox="0 0 54 54" fill="none" xmlns="http://www.w3.org/2000/svg">
<path d="M26.626 0C26.3236 0 26.1807 0.024386 26.1829 0.024386C25.7559 0.0305796 25.3424 0.175609 25.005 0.437541C24.6676 0.699473 24.4246 1.06411 24.3128 1.47633C23.9379 2.84657 23.4224 4.19405 22.8609 5.14285C22.2995 6.09164 21.7587 6.52898 21.4091 6.61934C21.062 6.70908 20.3893 6.58745 19.4405 6.02877C18.4915 5.4703 17.3833 4.535 16.389 3.51871C16.0892 3.21584 15.6992 3.0185 15.2776 2.95638C14.856 2.89426 14.4256 2.97071 14.0512 3.17424C11.6081 4.48445 9.37368 6.16119 7.45629 8.14506C7.16133 8.45064 6.97318 8.84346 6.91995 9.26483C6.86673 9.6862 6.95129 10.1135 7.16101 10.4828C7.8658 11.7155 8.4839 13.013 8.76046 14.0756C9.03715 15.1382 8.94076 15.8119 8.76046 16.118C8.57846 16.4273 8.02663 16.8474 6.96415 17.1271C5.9016 17.4066 4.46814 17.5345 3.05143 17.5208C2.62959 17.517 2.2177 17.6489 1.87653 17.897C1.53536 18.1451 1.28298 18.4963 1.15663 18.8988C0.417517 21.3394 0 23.9359 0 26.6256C0 26.9272 0.0244203 27.0826 0.0244203 27.0932C0.0306098 27.5203 0.175617 27.9338 0.437536 28.2712C0.699455 28.6085 1.06406 28.8515 1.47627 28.9634C2.84529 29.337 4.1734 29.8363 5.11826 30.3907C6.06312 30.9451 6.48111 31.4746 6.57017 31.8179C6.65931 32.1616 6.56339 32.8617 6.0041 33.8111C5.44515 34.7607 4.51013 35.8427 3.49418 36.8379C3.18731 37.1348 2.98534 37.5234 2.91875 37.9452C2.85215 38.3669 2.92456 38.7988 3.12503 39.1758C4.4364 41.6268 6.11141 43.8512 8.09582 45.7707C8.40323 46.0713 8.80065 46.263 9.22728 46.3163C9.65391 46.3696 10.0863 46.2816 10.4582 46.066C11.6937 45.3609 13.0037 44.7437 14.0756 44.4665C15.1475 44.1893 15.8376 44.2869 16.1426 44.4665C16.4508 44.648 16.8508 45.197 17.1269 46.263C17.4032 47.3288 17.5143 48.7797 17.4961 50.2002C17.4939 50.6251 17.6293 51.0393 17.8822 51.3809C18.135 51.7224 18.4916 51.9729 18.8987 52.0949C21.3393 52.8341 23.9358 53.2515 26.6257 53.2515C26.9438 53.2515 27.0577 53.2258 26.9948 53.2272C27.4187 53.2225 27.8298 53.081 28.1668 52.8238C28.5038 52.5667 28.7487 52.2075 28.865 51.7999C29.2435 50.431 29.7513 49.0589 30.3169 48.1087C30.8825 47.1585 31.4435 46.7475 31.7933 46.6569C32.1406 46.5668 32.8138 46.6636 33.7619 47.2227C34.7101 47.7843 35.8174 48.7354 36.8134 49.7574C37.1102 50.0643 37.4988 50.2662 37.9205 50.3328C38.3423 50.3994 38.7742 50.327 39.1511 50.1265C41.6136 48.8115 43.8233 47.1197 45.7461 45.131C46.0467 44.8236 46.2383 44.4262 46.2917 43.9996C46.345 43.5729 46.2571 43.1406 46.0414 42.7687C45.3312 41.5339 44.7218 40.222 44.4419 39.1513C44.162 38.0807 44.2611 37.3921 44.4419 37.0843C44.6267 36.7698 45.1896 36.3544 46.2628 36.0753C47.3362 35.7963 48.7734 35.6886 50.2001 35.7062C50.6293 35.7138 51.0491 35.5809 51.3957 35.3276C51.7422 35.0744 51.9965 34.7148 52.1196 34.3036C52.8512 31.8724 53.2515 29.2953 53.2515 26.6258C53.2515 26.322 53.2264 26.1915 53.2271 26.2075C53.2209 25.7804 53.0759 25.367 52.814 25.0296C52.5521 24.6922 52.1874 24.4492 51.7752 24.3373C50.4088 23.9616 49.0781 23.4469 48.1332 22.8854C47.1884 22.3241 46.7484 21.7856 46.6567 21.4336C46.5657 21.0836 46.6682 20.3881 47.2227 19.4403C47.7773 18.4926 48.7185 17.4076 49.7327 16.4136C50.0356 16.1138 50.2329 15.7238 50.2951 15.3022C50.3572 14.8806 50.2808 14.4502 50.0773 14.0758C48.7662 11.6269 47.0913 9.42445 45.1065 7.50543C44.8009 7.21047 44.4081 7.02233 43.9867 6.96911C43.5653 6.91588 43.138 7.00044 42.7687 7.21015C41.5328 7.9163 40.2169 8.50816 39.1513 8.78506C38.0857 9.06196 37.4196 8.96807 37.1088 8.78506C36.7909 8.59784 36.3788 8.05673 36.0999 6.98869C35.821 5.92065 35.7136 4.47645 35.7308 3.0514C35.7384 2.62225 35.6054 2.20242 35.3522 1.85586C35.0989 1.50931 34.7393 1.25509 34.3282 1.13194C31.9416 0.411684 29.4095 0.0415515 26.7981 0.024593C26.741 0.0139177 26.6836 0.00576238 26.6258 0.00016561L26.626 0ZM27.5119 4.01107C29.0438 4.07076 30.5297 4.27812 31.9659 4.62631C32.0188 5.75174 32.0019 6.88551 32.2857 7.97295C32.7077 9.58868 33.4974 11.2278 35.1157 12.1809C36.7347 13.1344 38.548 13.0183 40.1603 12.5993C41.2353 12.3199 42.2148 11.7641 43.2117 11.2704C44.2343 12.3772 45.1546 13.5909 45.9433 14.8878C45.1934 15.7152 44.3897 16.5099 43.827 17.4716C42.9871 18.9071 42.371 20.6045 42.8426 22.4178C43.3136 24.2277 44.6855 25.4316 46.1156 26.2813C47.0824 26.8557 48.1731 27.1738 49.2407 27.5363C49.179 29.0505 48.97 30.5178 48.6255 31.9411C47.4981 31.994 46.3691 31.9778 45.2788 32.261C43.6589 32.6823 42.0006 33.4667 41.0462 35.0909C40.0925 36.7141 40.2298 38.5436 40.6525 40.1602C40.9362 41.2452 41.4798 42.2306 41.9814 43.2362C40.8731 44.2615 39.6598 45.1784 38.364 45.9677C37.5357 45.2101 36.7447 44.4227 35.7802 43.8513C34.3461 43.0019 32.6303 42.3705 30.8093 42.8425C28.9945 43.3129 27.7991 44.6819 26.9459 46.1153C26.37 47.0828 26.0555 48.1724 25.6908 49.2405C24.1738 49.1768 22.6899 48.9751 21.2613 48.6255C21.2098 47.5032 21.2227 46.3639 20.9415 45.2787C20.5236 43.6663 19.7531 42.0228 18.1362 41.0707C16.5157 40.1166 14.7079 40.2343 13.0915 40.6524C12.0116 40.9317 11.0178 41.4864 10.0155 41.9812C8.99435 40.8754 8.0712 39.6831 7.28399 38.3884C8.03816 37.5591 8.83229 36.7694 9.4004 35.8046C10.2449 34.3702 10.8563 32.6514 10.3847 30.8338C9.91418 29.0203 8.54339 27.8348 7.11176 26.9949C6.14682 26.4287 5.07322 26.1211 4.01115 25.7645C4.07152 24.2145 4.29272 22.7191 4.65095 21.2613C5.76329 21.205 6.89896 21.224 7.97304 20.9414C9.58077 20.5183 11.2074 19.748 12.1565 18.1361C13.1084 16.5193 12.9936 14.7003 12.5748 13.0914C12.2955 12.0188 11.7388 11.0348 11.246 10.04C12.3474 9.02302 13.5484 8.09553 14.8387 7.30852C15.6679 8.06304 16.4577 8.85697 17.4225 9.42481C18.8571 10.2691 20.5764 10.8787 22.3934 10.4092C24.2101 9.93967 25.4078 8.5958 26.2568 7.16084C26.8321 6.18851 27.15 5.08379 27.5119 4.01107ZM26.626 15.3307C20.4128 15.3307 15.3308 20.4127 15.3308 26.6257C15.3308 32.8389 20.4128 37.9209 26.626 37.9209C32.8391 37.9209 37.921 32.8389 37.921 26.6257C37.921 20.4127 32.8391 15.3307 26.626 15.3307ZM26.626 19.268C30.7128 19.268 33.9838 22.539 33.9838 26.6257C33.9838 30.7127 30.7128 33.9836 26.626 33.9836C22.539 33.9836 19.2682 30.7127 19.2682 26.6257C19.2682 22.539 22.539 19.268 26.626 19.268Z" fill="#DADCE0"/>
</svg>
