<svg width="200" height="40" viewBox="0 0 150 18" fill="none" xmlns="http://www.w3.org/2000/svg">
<path d="M8.89214 4.02236C8.23353 2.87342 7.44319 2.23512 5.99425 2.23512C4.47944 2.23512 3.22808 3.2564 3.22808 4.78831C3.22808 6.19257 4.74289 6.83087 5.86252 7.3415L6.98216 7.78831C9.15558 8.74576 10.9997 9.76704 10.9997 12.3841C10.9997 15.2564 8.62869 17.4266 5.7308 17.4266C3.0305 17.4266 0.988803 15.767 0.461914 13.2138L2.30603 12.7032C2.56947 14.3628 3.88669 15.7032 5.66494 15.7032C7.44319 15.7032 9.15558 14.3628 9.15558 12.5117C9.15558 10.5968 7.64078 9.95852 6.06011 9.2564L5.00633 8.80959C3.0305 7.91597 1.31811 6.95853 1.31811 4.66065C1.31811 2.10746 3.55739 0.511719 6.06011 0.511719C7.90422 0.511719 9.55075 1.46917 10.4069 3.06491L8.89214 4.02236Z" fill="black"/>
<path d="M19.1664 10.5303C19.1664 11.743 19.1005 13.1473 19.8908 14.1685C20.6153 15.1898 22.0643 15.7005 23.3156 15.7005C24.5011 15.7005 25.8183 15.1898 26.6087 14.2324C27.5307 13.2111 27.4649 11.743 27.4649 10.4664V0.828125H29.309V11.0409C29.309 12.8281 29.1773 14.2324 27.86 15.5728C26.6745 16.7856 25.028 17.4239 23.3156 17.4239C21.735 17.4239 20.0884 16.8494 18.9688 15.7643C17.5198 14.4239 17.3223 12.892 17.3223 11.0409V0.828125H19.1664V10.5303Z" fill="black"/>
<path d="M35.8291 0.128906L48.9355 13.4693V0.831034H50.7796V17.8736L37.7391 4.59699V17.1715H35.895V0.128906H35.8291Z" fill="black"/>
<path d="M59.8031 2.55153H60.5276C62.701 2.55153 64.9403 2.74302 64.9403 5.42387C64.9403 7.78557 63.162 8.36004 61.1203 8.36004H59.869V2.55153H59.8031ZM59.8031 10.0196H61.1862C62.5693 10.0196 64.0182 9.82812 65.2037 8.93451C66.2575 8.10472 66.7844 6.76429 66.7844 5.42387C66.7844 3.95578 66.1258 2.55153 64.8744 1.72174C63.623 0.891955 62.1741 0.828125 60.7251 0.828125H57.959V17.1685H59.8031V10.0196Z" fill="black"/>
<path d="M97.014 13.0851L102.48 0L107.947 13.0851L112.36 0.829787H114.401L107.947 18L102.48 4.85106L97.014 18L90.5596 0.829787H92.6013L97.014 13.0851Z" fill="black"/>
<path d="M118.551 0.828125H127.31V2.55153H120.461V7.40259H127.113V9.06217H120.461V15.4451H127.31V17.1047H118.551V0.828125Z" fill="black"/>
<path d="M135.477 2.55286H136.004C138.244 2.55286 140.285 2.80818 140.285 5.48903C140.285 8.04222 138.112 8.4252 136.004 8.4252H135.477V2.55286ZM135.477 10.0209H135.938L141.01 17.1699H143.315L137.98 9.82945C140.549 9.63796 142.195 7.85073 142.195 5.29754C142.195 1.59541 139.231 0.765625 136.004 0.765625H133.567V17.106H135.411V10.0209H135.477Z" fill="black"/>
<path d="M8.89214 4.02236C8.23353 2.87342 7.44319 2.23512 5.99425 2.23512C4.47944 2.23512 3.22808 3.2564 3.22808 4.78831C3.22808 6.19257 4.74289 6.83087 5.86252 7.3415L6.98216 7.78831C9.15558 8.74576 10.9997 9.76704 10.9997 12.3841C10.9997 15.2564 8.62869 17.4266 5.7308 17.4266C3.0305 17.4266 0.988803 15.767 0.461914 13.2138L2.30603 12.7032C2.56947 14.3628 3.88669 15.7032 5.66494 15.7032C7.44319 15.7032 9.15558 14.3628 9.15558 12.5117C9.15558 10.5968 7.64078 9.95852 6.06011 9.2564L5.00633 8.80959C3.0305 7.91597 1.31811 6.95853 1.31811 4.66065C1.31811 2.10746 3.55739 0.511719 6.06011 0.511719C7.90422 0.511719 9.55075 1.46917 10.4069 3.06491L8.89214 4.02236Z" fill="black"/>
<path d="M19.1664 10.5303C19.1664 11.743 19.1005 13.1473 19.8908 14.1685C20.6153 15.1898 22.0643 15.7005 23.3156 15.7005C24.5011 15.7005 25.8183 15.1898 26.6087 14.2324C27.5307 13.2111 27.4649 11.743 27.4649 10.4664V0.828125H29.309V11.0409C29.309 12.8281 29.1773 14.2324 27.86 15.5728C26.6745 16.7856 25.028 17.4239 23.3156 17.4239C21.735 17.4239 20.0884 16.8494 18.9688 15.7643C17.5198 14.4239 17.3223 12.892 17.3223 11.0409V0.828125H19.1664V10.5303Z" fill="black"/>
<path d="M35.8291 0.128906L48.9355 13.4693V0.831034H50.7796V17.8736L37.7391 4.59699V17.1715H35.895V0.128906H35.8291Z" fill="black"/>
<path d="M59.8031 2.55153H60.5276C62.701 2.55153 64.9403 2.74302 64.9403 5.42387C64.9403 7.78557 63.162 8.36004 61.1203 8.36004H59.869V2.55153H59.8031ZM59.8031 10.0196H61.1862C62.5693 10.0196 64.0182 9.82812 65.2037 8.93451C66.2575 8.10472 66.7844 6.76429 66.7844 5.42387C66.7844 3.95578 66.1258 2.55153 64.8744 1.72174C63.623 0.891955 62.1741 0.828125 60.7251 0.828125H57.959V17.1685H59.8031V10.0196Z" fill="black"/>
<path d="M97.014 13.0851L102.48 0L107.947 13.0851L112.36 0.829787H114.401L107.947 18L102.48 4.85106L97.014 18L90.5596 0.829787H92.6013L97.014 13.0851Z" fill="black"/>
<path d="M118.551 0.828125H127.31V2.55153H120.461V7.40259H127.113V9.06217H120.461V15.4451H127.31V17.1047H118.551V0.828125Z" fill="black"/>
<path d="M135.477 2.55286H136.004C138.244 2.55286 140.285 2.80818 140.285 5.48903C140.285 8.04222 138.112 8.4252 136.004 8.4252H135.477V2.55286ZM135.477 10.0209H135.938L141.01 17.1699H143.315L137.98 9.82945C140.549 9.63796 142.195 7.85073 142.195 5.29754C142.195 1.59541 139.231 0.765625 136.004 0.765625H133.567V17.106H135.411V10.0209H135.477Z" fill="black"/>
<path d="M87.9907 9.00037C87.9907 13.7876 84.1049 17.3621 79.1653 17.3621C74.3575 17.3621 70.4717 13.5961 70.4717 9.00037C70.4717 4.46846 74.2916 0.638672 79.1653 0.638672C84.1049 0.638672 87.9907 4.27697 87.9907 9.00037ZM72.4475 9.0642C72.4475 12.511 75.3454 15.5748 79.0995 15.5748C82.9853 15.5748 86.0808 12.7025 86.0808 9.0642C86.0808 5.29825 83.0512 2.42591 79.0995 2.42591C75.2795 2.42591 72.4475 5.55356 72.4475 9.0642Z" fill="#F18A00"/>
<path d="M144.171 3.31749C144.171 2.87068 144.303 2.4877 144.5 2.04089C144.698 1.65791 145.027 1.33876 145.422 1.14727C145.817 0.891955 146.278 0.828125 146.739 0.828125C147.201 0.828125 147.596 0.955785 148.057 1.14727C148.452 1.33876 148.781 1.65791 148.979 2.04089C149.242 2.42387 149.308 2.87068 149.308 3.31749C149.308 3.7643 149.176 4.14727 148.979 4.53025C148.781 4.91323 148.452 5.23238 148.057 5.42387C147.662 5.67919 147.201 5.74302 146.739 5.74302C146.278 5.74302 145.817 5.61536 145.422 5.42387C145.027 5.16855 144.698 4.91323 144.5 4.53025C144.237 4.2111 144.171 3.7643 144.171 3.31749ZM144.5 3.31749C144.5 3.70047 144.632 4.08344 144.83 4.40259C145.027 4.72174 145.291 4.97706 145.686 5.23238C146.015 5.42387 146.41 5.55153 146.805 5.55153C147.201 5.55153 147.596 5.42387 147.925 5.23238C148.254 5.04089 148.518 4.78557 148.781 4.40259C148.979 4.08344 149.11 3.70047 149.11 3.31749C149.11 2.93451 149.045 2.55153 148.847 2.23238C148.649 1.91323 148.386 1.65791 148.057 1.40259C147.727 1.2111 147.332 1.08344 146.937 1.08344C146.542 1.08344 146.147 1.2111 145.817 1.40259C145.488 1.59408 145.225 1.8494 144.961 2.23238C144.566 2.61536 144.5 2.93451 144.5 3.31749ZM147.662 2.74302C147.662 2.93451 147.596 3.06217 147.53 3.18983C147.464 3.31749 147.332 3.44515 147.135 3.50898L147.925 4.78557H147.53L146.805 3.57281H146.213V4.78557H145.883V1.8494H146.608C146.937 1.8494 147.201 1.91323 147.398 2.04089C147.53 2.23238 147.662 2.42387 147.662 2.74302ZM146.213 3.31749H146.608C146.805 3.31749 147.003 3.25366 147.069 3.18983C147.201 3.06217 147.266 2.93451 147.266 2.74302C147.266 2.36004 147.069 2.16855 146.608 2.16855H146.213V3.31749Z" fill="black"/>
</svg>
