<svg width="174" height="23" viewBox="0 0 174 23" fill="none" xmlns="http://www.w3.org/2000/svg">
<path d="M9.98809 5.23915C9.20334 3.87738 8.26472 3.10033 6.5952 3.10033C4.84876 3.10033 3.33312 4.35439 3.33312 6.15469C3.33312 7.84729 5.07956 8.63203 6.41056 9.23214L7.71847 9.80916C10.2727 10.9247 12.4347 12.2019 12.4347 15.3332C12.4347 18.7799 9.67265 21.4111 6.24899 21.4111C3.09461 21.4111 0.748063 19.3723 0.117188 16.3256L2.25601 15.7255C2.54067 17.7336 4.0794 19.3723 6.19514 19.3723C8.31088 19.3723 10.242 17.7567 10.242 15.5409C10.242 13.2405 8.44167 12.4635 6.61829 11.6248L5.41808 11.1017C3.12539 10.0554 1.14044 8.88592 1.14044 6.07006C1.14044 3.0157 3.72549 1.06152 6.64137 1.06152C8.83404 1.06152 10.6805 2.18479 11.7268 4.11589L9.98809 5.23915Z" fill="white"/>
<path d="M21.9593 13.1178C21.9593 14.5795 21.9054 16.2491 22.821 17.5031C23.6826 18.7033 25.3522 19.3804 26.7832 19.3804C28.1911 19.3804 29.7298 18.7264 30.6454 17.6339C31.6917 16.3798 31.6071 14.6642 31.6071 13.1254V1.40039H33.7997V13.7102C33.7997 15.849 33.6459 17.5416 32.0764 19.1649C30.7223 20.6267 28.7604 21.4115 26.7832 21.4115C24.929 21.4115 23.0287 20.7037 21.6977 19.4034C19.9743 17.757 19.7666 15.9567 19.7666 13.7179V1.40808H21.9593V13.1178Z" fill="white"/>
<path d="M41.4706 0.569336L56.8116 16.6413V1.40025H59.0043V21.9576L43.6556 5.91639V21.0728H41.4629V0.569336H41.4706Z" fill="white"/>
<path d="M69.4594 3.43932H70.2672C72.8215 3.43932 75.4066 3.67782 75.4066 6.88605C75.4066 9.70191 73.3447 10.4328 70.9212 10.4328H69.4594V3.43932ZM69.4594 12.4639H71.052C72.6984 12.4639 74.391 12.2562 75.722 11.1637C76.9453 10.1481 77.5992 8.53248 77.5992 6.93991C77.5992 5.19346 76.8453 3.47009 75.3835 2.45453C73.9525 1.46206 72.1983 1.4082 70.5057 1.4082H67.2744V21.0808H69.4671V12.4639H69.4594Z" fill="white"/>
<path d="M112.936 16.1413L119.307 0.384766L125.669 16.1413L130.839 1.40032H133.209L125.669 22.0884L119.307 6.25499L112.944 22.0884L105.404 1.40032H107.782L112.936 16.1413Z" fill="white"/>
<path d="M138.109 1.40039H148.303V3.4315H140.302V9.27095H148.073V11.3098H140.302V19.0341H148.311V21.0729H138.117V1.40039H138.109Z" fill="white"/>
<path d="M157.882 3.43932H158.536C161.167 3.43932 163.545 3.75475 163.545 6.98607C163.545 10.0404 161.044 10.5097 158.559 10.5097H157.882V3.43932ZM157.882 12.4408H158.428L164.375 21.0731H167.06L160.798 12.2562C163.829 11.9946 165.729 9.85578 165.729 6.8322C165.729 2.40068 162.26 1.4082 158.528 1.4082H155.682V21.0808H157.874V12.4408H157.882Z" fill="white"/>
<path d="M9.98809 5.23915C9.20334 3.87738 8.26472 3.10033 6.5952 3.10033C4.84876 3.10033 3.33312 4.35439 3.33312 6.15469C3.33312 7.84729 5.07956 8.63203 6.41056 9.23214L7.71847 9.80916C10.2727 10.9247 12.4347 12.2019 12.4347 15.3332C12.4347 18.7799 9.67265 21.4111 6.24899 21.4111C3.09461 21.4111 0.748063 19.3723 0.117188 16.3256L2.25601 15.7255C2.54067 17.7336 4.0794 19.3723 6.19514 19.3723C8.31088 19.3723 10.242 17.7567 10.242 15.5409C10.242 13.2405 8.44167 12.4635 6.61829 11.6248L5.41808 11.1017C3.12539 10.0554 1.14044 8.88592 1.14044 6.07006C1.14044 3.0157 3.72549 1.06152 6.64137 1.06152C8.83404 1.06152 10.6805 2.18479 11.7268 4.11589L9.98809 5.23915Z" fill="white"/>
<path d="M21.9593 13.1178C21.9593 14.5795 21.9054 16.2491 22.821 17.5031C23.6826 18.7033 25.3522 19.3804 26.7832 19.3804C28.1911 19.3804 29.7298 18.7264 30.6454 17.6339C31.6917 16.3798 31.6071 14.6642 31.6071 13.1254V1.40039H33.7997V13.7102C33.7997 15.849 33.6459 17.5416 32.0764 19.1649C30.7223 20.6267 28.7604 21.4115 26.7832 21.4115C24.929 21.4115 23.0287 20.7037 21.6977 19.4034C19.9743 17.757 19.7666 15.9567 19.7666 13.7179V1.40808H21.9593V13.1178Z" fill="white"/>
<path d="M41.4706 0.569336L56.8116 16.6413V1.40025H59.0043V21.9576L43.6556 5.91639V21.0728H41.4629V0.569336H41.4706Z" fill="white"/>
<path d="M69.4594 3.43932H70.2672C72.8215 3.43932 75.4066 3.67782 75.4066 6.88605C75.4066 9.70191 73.3447 10.4328 70.9212 10.4328H69.4594V3.43932ZM69.4594 12.4639H71.052C72.6984 12.4639 74.391 12.2562 75.722 11.1637C76.9453 10.1481 77.5992 8.53248 77.5992 6.93991C77.5992 5.19346 76.8453 3.47009 75.3835 2.45453C73.9525 1.46206 72.1983 1.4082 70.5057 1.4082H67.2744V21.0808H69.4671V12.4639H69.4594Z" fill="white"/>
<path d="M112.936 16.1413L119.307 0.384766L125.669 16.1413L130.839 1.40032H133.209L125.669 22.0884L119.307 6.25499L112.944 22.0884L105.404 1.40032H107.782L112.936 16.1413Z" fill="white"/>
<path d="M138.109 1.40039H148.303V3.4315H140.302V9.27095H148.073V11.3098H140.302V19.0341H148.311V21.0729H138.117V1.40039H138.109Z" fill="white"/>
<path d="M157.882 3.43932H158.536C161.167 3.43932 163.545 3.75475 163.545 6.98607C163.545 10.0404 161.044 10.5097 158.559 10.5097H157.882V3.43932ZM157.882 12.4408H158.428L164.375 21.0731H167.06L160.798 12.2562C163.829 11.9946 165.729 9.85578 165.729 6.8322C165.729 2.40068 162.26 1.4082 158.528 1.4082H155.682V21.0808H157.874V12.4408H157.882Z" fill="white"/>
<path d="M102.388 11.2641C102.388 17.0035 97.8413 21.3581 92.0711 21.3581C86.424 21.3581 81.8848 16.7958 81.8848 11.3102C81.8848 5.74004 86.3855 1.17773 92.0711 1.17773C97.8413 1.17773 102.388 5.53232 102.388 11.2641ZM84.1852 11.3102C84.1852 15.4955 87.5396 19.1962 91.9403 19.1962C96.5026 19.1962 100.057 15.7725 100.057 11.3102C100.057 6.77099 96.5411 3.34733 91.9403 3.34733C87.5011 3.34733 84.1852 7.04796 84.1852 11.3102Z" fill="#F18A00"/>
<path d="M167.977 4.40847C167.977 3.87761 168.107 3.37753 168.377 2.90822C168.646 2.43891 169.008 2.06962 169.477 1.80034C169.946 1.53106 170.446 1.39258 170.985 1.39258C171.516 1.39258 172.016 1.52337 172.485 1.79265C172.954 2.06192 173.324 2.42352 173.593 2.89283C173.862 3.36214 174.001 3.86223 174.001 4.40078C174.001 4.92394 173.87 5.41633 173.616 5.87795C173.354 6.33957 172.993 6.70886 172.531 6.98583C172.062 7.2628 171.554 7.40129 171 7.40129C170.446 7.40129 169.938 7.2628 169.469 6.98583C169 6.70886 168.638 6.33957 168.377 5.87795C168.107 5.43172 167.977 4.93933 167.977 4.40847ZM168.354 4.40847C168.354 4.88548 168.469 5.32401 168.707 5.72408C168.946 6.12415 169.261 6.44728 169.669 6.68578C170.077 6.92428 170.515 7.03969 170.992 7.03969C171.469 7.03969 171.908 6.92428 172.308 6.68578C172.716 6.44728 173.031 6.13184 173.27 5.72408C173.508 5.31632 173.624 4.87778 173.624 4.40078C173.624 3.93916 173.508 3.50063 173.285 3.10056C173.054 2.70049 172.739 2.37736 172.331 2.13116C171.923 1.88497 171.477 1.76187 170.992 1.76187C170.523 1.76187 170.085 1.87728 169.677 2.11578C169.269 2.35428 168.946 2.67741 168.707 3.08517C168.469 3.50832 168.354 3.94686 168.354 4.40847ZM172.062 3.66219C172.062 3.86992 172.008 4.06226 171.908 4.22383C171.808 4.38539 171.654 4.50849 171.469 4.60081L172.416 6.17031H171.931L171.092 4.7316H170.423V6.17031H170.015V2.65433H170.862C171.246 2.65433 171.539 2.73896 171.746 2.90053C171.954 3.06209 172.062 3.31598 172.062 3.66219ZM170.415 4.40847H170.862C171.108 4.40847 171.293 4.34692 171.431 4.22383C171.569 4.10073 171.639 3.91608 171.639 3.68527C171.639 3.22366 171.377 3.00054 170.854 3.00054H170.415V4.40847Z" fill="white"/>
</svg>
