<svg width="39" height="39" viewBox="0 0 39 39" fill="none" xmlns="http://www.w3.org/2000/svg">
<path d="M19.5 0C8.66667 0 0 8.66667 0 19.5C0 30.3333 8.66667 39 19.5 39C30.3333 39 39 30.3333 39 19.5C38.5667 8.66667 29.9 0 19.5 0ZM33.3667 8.23333C32.0667 8.66667 30.3333 9.1 29.0333 9.53333C27.7333 6.5 26.4333 3.9 24.7 2.16667C28.1667 3.46667 31.2 5.63333 33.3667 8.23333ZM19.9333 11.7C22.5333 11.7 25.1333 11.7 27.7333 11.2667C28.6 13.8667 28.6 16.0333 29.0333 18.6333H20.3667L19.9333 11.7ZM19.9333 9.96667V1.73333C22.9667 2.16667 25.5667 5.2 27.3 9.53333C25.1333 9.96667 22.5333 9.96667 19.9333 9.96667ZM18.6333 1.73333V9.96667C16.0333 9.96667 13.8667 9.96667 11.2667 9.53333C13 5.2 15.6 2.16667 18.6333 1.73333ZM18.6333 11.7V18.6333H9.96667C9.96667 16.0333 10.4 13.4333 11.2667 11.2667C13.4333 11.2667 16.0333 11.7 18.6333 11.7ZM8.23333 18.6333H1.73333C1.73333 15.6 3.03333 12.5667 4.33333 9.96667C6.06667 10.4 7.36667 10.4 9.1 10.8333C8.66667 13.4333 8.23333 16.0333 8.23333 18.6333ZM8.23333 19.9333C8.23333 22.5333 8.66667 25.1333 9.53333 27.7333C7.36667 28.1667 6.06667 28.1667 4.33333 29.0333C2.6 26.4333 1.73333 23.4 1.73333 20.3667H8.23333V19.9333ZM9.53333 19.9333H18.2V26.8667C15.6 26.8667 13 26.8667 10.4 27.3C9.96667 25.1333 9.53333 22.5333 9.53333 19.9333ZM18.6333 28.6V36.8333C15.6 36.4 13 33.3667 11.2667 29.0333C13.4333 28.6 16.0333 28.6 18.6333 28.6ZM19.9333 36.8333V28.6C22.5333 28.6 24.7 28.6 27.3 29.0333C25.5667 33.3667 22.9667 36.4 19.9333 36.8333ZM19.9333 26.8667V19.9333H28.6C28.6 22.5333 28.1667 25.1333 27.3 27.3C25.1333 27.3 22.5333 26.8667 19.9333 26.8667ZM30.3333 19.9333H36.8333C36.8333 22.9667 35.5333 26 34.2333 28.6C32.5 28.1667 31.2 28.1667 29.4667 27.7333C29.9 25.1333 30.3333 22.5333 30.3333 19.9333ZM30.3333 18.6333C30.3333 16.0333 29.9 13.4333 29.4667 10.8333C31.2 10.4 32.9333 10.4 34.2333 9.53333C35.9667 12.1333 36.8333 15.1667 36.8333 18.2H30.3333V18.6333ZM13.8667 2.16667C12.1333 3.9 10.8333 6.5 9.53333 9.53333C8.23333 9.53333 6.5 9.1 5.2 8.66667C7.36667 5.63333 10.4 3.46667 13.8667 2.16667ZM5.2 30.3333C6.5 29.9 8.23333 29.4667 9.53333 29.4667C10.4 32.5 12.1333 34.6667 13.8667 36.4C10.4 35.1 7.36667 32.9333 5.2 30.3333ZM24.7 36.4C26.4333 34.6667 27.7333 32.5 29.0333 29.4667C30.3333 29.4667 32.0667 29.9 33.3667 30.3333C31.2 32.9333 28.1667 35.1 24.7 36.4Z" fill="#7BB053"/>
</svg>
