<svg width="31" height="50" viewBox="0 0 31 50" fill="none" xmlns="http://www.w3.org/2000/svg">
<path d="M25.6766 49.7773H5.21557C2.40719 49.7773 0 47.3871 0 44.5985V9.93995C0 7.15133 2.40719 5.27734 5.21557 5.27734H8.82635V2.76921C8.82635 1.57409 9.62874 0.777344 10.8323 0.777344H19.6587C20.8623 0.777344 21.6647 1.57409 21.6647 2.76921V5.15946H25.6766C28.485 5.15946 30.8922 7.5497 30.8922 10.3383V44.9969C30.8922 47.7855 28.485 49.7773 25.6766 49.7773ZM5.21557 7.15133C3.61078 7.15133 2.00599 8.34645 2.00599 10.3383V44.9969C2.00599 46.5904 3.20958 48.1838 5.21557 48.1838H25.6766C27.2814 48.1838 28.8862 46.9887 28.8862 44.9969V9.93995C28.8862 8.34645 27.6826 6.75295 25.6766 6.75295H19.6587V2.76921H10.8323V7.15133H5.21557Z" fill="#7BB053"/>
<rect x="6" y="17.7773" width="19" height="7" rx="1" fill="#7BB053"/>
<rect x="6" y="27.7773" width="19" height="6" rx="1" fill="#7BB053"/>
<rect x="6" y="36.7773" width="19" height="7" rx="1" fill="#7BB053"/>
</svg>
