<svg width="32" height="46" viewBox="0 0 32 46" fill="none" xmlns="http://www.w3.org/2000/svg">
<path d="M10.0611 27.3688H12.7653C13.2685 27.3688 13.6728 27.7696 13.6728 28.2683V35.4735C13.6728 36.3997 14.9036 36.7203 15.3618 35.9188L22.72 24.2071C23.0614 23.6014 22.6302 22.8533 21.9384 22.8533H19.0993C18.5962 22.8533 18.1919 22.4525 18.1919 21.9538V14.6596C18.1919 13.7333 16.9611 13.4127 16.5028 14.2142L9.27043 26.0239C8.92902 26.6207 9.36926 27.3688 10.0611 27.3688Z" fill="#DADCE0"/>
<path d="M27.4098 4.70211H22.8457V1.08617C22.8457 0.578516 22.4414 0.177734 21.9293 0.177734H10.0699C9.5668 0.177734 9.15352 0.578516 9.15352 1.08617V4.70211H4.58945C2.07383 4.70211 0.0253906 6.73273 0.0253906 9.22648V40.8971C0.0253906 43.3909 2.07383 45.4215 4.58945 45.4215H27.4098C29.9254 45.4215 31.9738 43.3909 31.9738 40.8971V9.22648C31.9738 6.73273 29.9254 4.70211 27.4098 4.70211ZM27.4098 40.8971H4.58945V9.22648H27.4098V40.8971Z" fill="#DADCE0"/>
</svg>
