<svg width="46" height="35" viewBox="0 0 46 35" fill="none" xmlns="http://www.w3.org/2000/svg">
<path d="M26.1673 32.1021C26.7838 30.6137 26.0771 28.9074 24.5887 28.2909C23.1003 27.6744 21.394 28.3811 20.7774 29.8695C20.1609 31.3579 20.8677 33.0642 22.3561 33.6808C23.8444 34.2973 25.5508 33.5905 26.1673 32.1021Z" fill="#DADCE0"/>
<path d="M32.0787 25.1011C32.8636 24.0761 32.6703 22.6001 31.6394 21.8152C29.5718 20.2337 27.1 19.3141 24.4877 19.156C21.0143 18.951 17.6581 20.1107 15.0516 22.4244C14.0852 23.2854 13.9973 24.7673 14.8583 25.7337C15.3211 26.255 15.9654 26.5186 16.6097 26.5186C17.1602 26.5186 17.7167 26.3253 18.1677 25.927C19.837 24.4451 21.9866 23.6954 24.2124 23.8301C25.8876 23.9297 27.469 24.5154 28.7928 25.5287C29.8237 26.3194 31.2938 26.1262 32.0787 25.1011Z" fill="#DADCE0"/>
<path d="M38.5862 18.9147C39.4472 17.9483 39.3652 16.4723 38.4046 15.6054C34.3338 11.9622 29.0799 9.95312 23.6092 9.95312C17.9862 9.95312 12.6268 12.0559 8.50913 15.8807C7.56025 16.7593 7.50753 18.2412 8.38613 19.19C8.84885 19.6879 9.47558 19.9398 10.1023 19.9398C10.6705 19.9398 11.2445 19.7348 11.6955 19.313C14.9404 16.2965 19.1752 14.6389 23.6092 14.6389C27.926 14.6389 32.0671 16.2204 35.2827 19.0963C36.2433 19.9632 37.7193 19.8753 38.5862 18.9147Z" fill="#DADCE0"/>
<path d="M23.6088 0.224609C15.4086 0.224609 7.61841 3.32896 1.66742 8.9578C0.730256 9.8481 0.689255 11.33 1.5737 12.273C2.03643 12.7592 2.6573 13.0052 3.27817 13.0052C3.85804 13.0052 4.43791 12.7943 4.88892 12.3667C9.96717 7.55791 16.6152 4.91043 23.6088 4.91043C30.4735 4.91043 37.0278 7.47005 42.0709 12.1207C43.0197 12.9993 44.5016 12.9349 45.3802 11.986C46.2588 11.0371 46.1944 9.54938 45.2455 8.67665C39.3355 3.22353 31.6508 0.224609 23.6088 0.224609Z" fill="#DADCE0"/>
</svg>
