<svg width="26" height="24" viewBox="0 0 26 24" fill="none" xmlns="http://www.w3.org/2000/svg">
<path d="M16.6772 23.3513C16.6087 23.3818 16.5323 23.3972 16.4519 23.3936C16.1758 23.3808 15.9624 23.1474 15.9743 22.8717L16.0741 20.6379C16.0869 20.3618 16.3193 20.1488 16.5959 20.1603C16.872 20.1731 17.0854 20.4064 17.0735 20.6821L16.9737 22.9159C16.964 23.1129 16.8443 23.2768 16.6772 23.3513Z" fill="#92BCCD"/>
<path d="M19.6772 21.3513C19.6087 21.3818 19.5323 21.3972 19.4519 21.3936C19.1758 21.3808 18.9624 21.1474 18.9743 20.8717L19.0741 18.6379C19.0869 18.3618 19.3193 18.1488 19.5959 18.1603C19.872 18.1731 20.0854 18.4064 20.0735 18.6821L19.9737 20.9159C19.964 21.1129 19.8443 21.2768 19.6772 21.3513Z" fill="#92BCCD"/>
<path d="M16.7354 18.3538C16.6677 18.3858 16.5917 18.403 16.5112 18.4013C16.2349 18.3949 16.0162 18.1665 16.0216 17.8906L16.0697 15.6551C16.0761 15.3788 16.3036 15.1605 16.5804 15.1655C16.8567 15.1719 17.0754 15.4003 17.0699 15.6761L17.0218 17.9117C17.0167 18.1089 16.9008 18.2755 16.7354 18.3538Z" fill="#92BCCD"/>
<path d="M19.8272 16.3547C19.7595 16.3868 19.6835 16.404 19.603 16.4022C19.3267 16.3959 19.108 16.1675 19.1134 15.8916L19.1615 13.6561C19.1679 13.3798 19.3954 13.1614 19.6722 13.1665C19.9485 13.1729 20.1672 13.4012 20.1617 13.6771L20.1136 15.9127C20.1085 16.1098 19.9926 16.2764 19.8272 16.3547Z" fill="#92BCCD"/>
<path d="M22.8674 14.2614L22.8581 14.2701L22.8513 14.2809C22.7089 14.5071 22.6411 14.6902 22.647 14.8367C22.65 14.9129 22.673 14.9798 22.7157 15.0346C22.7578 15.0885 22.8141 15.1245 22.8744 15.1478C22.992 15.1934 23.1387 15.1964 23.2777 15.1822C23.4192 15.1676 23.565 15.1338 23.6882 15.0955L23.7122 15.088L23.7298 15.0701C24.7369 14.0449 25.1 12.365 25.1 10.5C25.1 7.41177 22.5882 4.9 19.5 4.9C19.1022 4.9 18.6982 4.95084 18.2755 5.05272C16.9838 2.51419 14.3801 0.9 11.5 0.9C7.81333 0.9 4.66818 3.56098 4.02482 7.1528C2.16623 7.77961 0.9 9.51261 0.9 11.5C0.9 14.0362 2.96377 16.1 5.5 16.1C5.83123 16.1 6.1 15.8312 6.1 15.5C6.1 15.1688 5.83123 14.9 5.5 14.9C3.62523 14.9 2.1 13.3748 2.1 11.5C2.1 9.9315 3.16905 8.57649 4.70137 8.20523C4.94401 8.14746 5.12503 7.94458 5.15621 7.69752L5.15622 7.69743C5.55595 4.50648 8.2834 2.1 11.5 2.1C14.0758 2.1 16.3895 3.63291 17.3959 6.00493C17.517 6.29149 17.8364 6.43935 18.1352 6.34102C18.6303 6.1786 19.0767 6.1 19.5 6.1C21.9258 6.1 23.9 8.07423 23.9 10.5C23.9 11.306 23.8449 12.0573 23.687 12.7032C23.5291 13.3491 23.27 13.8827 22.8674 14.2614Z" fill="#92BCCD" stroke="#92BCCD" stroke-width="0.2"/>
<path d="M13.723 23.3272C13.6551 23.3589 13.579 23.3757 13.4985 23.3736C13.2223 23.3658 13.0047 23.1364 13.0115 22.8605L13.0707 20.6252C13.0785 20.349 13.3079 20.1314 13.5838 20.1382C13.86 20.146 14.0776 20.3754 14.0708 20.6513L14.0116 22.8866C14.0055 23.0837 13.8888 23.2497 13.723 23.3272Z" fill="#92BCCD"/>
<path d="M11.1818 15.2174L11.8182 9L15 10.1304L13.0909 18.0435L10.5455 16.913L8 22L9.27273 14.087L11.1818 15.2174Z" fill="#FFE600"/>
</svg>
