<svg width="73" height="61" viewBox="0 0 73 61" fill="none" xmlns="http://www.w3.org/2000/svg">
<path d="M40.7799 30.22C43.7693 30.222 46.692 29.3372 49.1784 27.6777C51.6647 26.0181 53.603 23.6584 54.7478 20.897C55.8927 18.1356 56.1928 15.0966 55.6101 12.1646C55.0274 9.23266 53.5881 6.5394 51.4743 4.42562C49.3605 2.31185 46.6673 0.872558 43.7353 0.289854C40.8033 -0.29285 37.7644 0.00722027 35.003 1.1521C32.2416 2.29698 29.8818 4.23522 28.2223 6.72157C26.5627 9.20793 25.678 12.1307 25.6799 15.12C25.6852 19.1231 27.2778 22.9608 30.1085 25.7915C32.9391 28.6221 36.7768 30.2147 40.7799 30.22ZM40.7799 2.01C43.3733 2.00803 45.9089 2.77523 48.0662 4.21457C50.2234 5.65392 51.9053 7.70073 52.8991 10.0961C53.8929 12.4915 54.154 15.1278 53.6492 17.6715C53.1445 20.2153 51.8967 22.5522 50.0636 24.3866C48.2306 26.2211 45.8946 27.4707 43.3512 27.9774C40.8079 28.484 38.1714 28.225 35.7753 27.233C33.3791 26.241 31.3311 24.5607 29.8901 22.4046C28.4491 20.2484 27.6799 17.7133 27.6799 15.12C27.6773 13.3975 28.0141 11.6914 28.6712 10.0992C29.3282 8.50696 30.2926 7.0598 31.5092 5.84044C32.7257 4.62107 34.1707 3.6534 35.7614 2.99272C37.3521 2.33205 39.0575 1.99132 40.7799 1.99V2.01Z" fill="white"/>
<path d="M40.7799 21.5401C40.0487 21.5375 39.3483 21.2459 38.8312 20.7288C38.3142 20.2118 38.0226 19.5113 38.0199 18.7801H36.1799C36.183 19.8399 36.5503 20.8664 37.2203 21.6876C37.8904 22.5087 38.8223 23.0745 39.8599 23.2901V25.0701H41.7099V23.2901C42.7791 23.0155 43.7143 22.3664 44.3454 21.4607C44.9766 20.555 45.2617 19.4529 45.1492 18.3548C45.0366 17.2567 44.5336 16.2354 43.7318 15.4766C42.9301 14.7179 41.8826 14.272 40.7799 14.2201C40.2345 14.2181 39.7019 14.0546 39.2493 13.7501C38.7967 13.4456 38.4445 13.0139 38.2372 12.5094C38.0298 12.0049 37.9766 11.4503 38.0842 10.9156C38.1918 10.3808 38.4555 9.88999 38.8419 9.505C39.2282 9.12 39.72 8.85813 40.2551 8.75244C40.7903 8.64675 41.3447 8.70199 41.8484 8.91118C42.3522 9.12037 42.7826 9.47413 43.0855 9.92779C43.3883 10.3814 43.5499 10.9147 43.5499 11.4601H45.3899C45.3869 10.4003 45.0195 9.37381 44.3495 8.55268C43.6795 7.73155 42.7476 7.16574 41.7099 6.95012V5.12012H39.8599V6.90012C38.7479 7.13542 37.7621 7.77324 37.0917 8.69107C36.4212 9.60891 36.1135 10.7421 36.2276 11.8729C36.3417 13.0038 36.8695 14.0527 37.7097 14.8181C38.55 15.5836 39.6434 16.0116 40.7799 16.0201C41.5119 16.0201 42.2139 16.3109 42.7315 16.8285C43.2491 17.3461 43.5399 18.0481 43.5399 18.7801C43.5399 19.5121 43.2491 20.2141 42.7315 20.7317C42.2139 21.2493 41.5119 21.5401 40.7799 21.5401Z" fill="white"/>
<path d="M68.13 39.6193C67.8343 39.6185 67.5394 39.6487 67.25 39.7093C67.2135 39.7138 67.1765 39.7138 67.14 39.7093C66.9449 39.756 66.7542 39.8196 66.57 39.8993L51.4 44.8993C51.4475 44.6519 51.4742 44.401 51.48 44.1493C51.4774 43.0458 51.0386 41.9882 50.2593 41.2071C49.48 40.4259 48.4234 39.9845 47.32 39.9793H37.13C36.94 39.6593 36.73 39.3493 36.52 39.0593C35.5885 37.8173 34.3807 36.8093 32.9921 36.115C31.6036 35.4207 30.0725 35.0593 28.52 35.0593H15.25V31.9893C15.25 31.724 15.1446 31.4697 14.9571 31.2822C14.7696 31.0946 14.5152 30.9893 14.25 30.9893H1C0.734784 30.9893 0.48043 31.0946 0.292893 31.2822C0.105357 31.4697 0 31.724 0 31.9893V55.5793C0 55.8445 0.105357 56.0988 0.292893 56.2864C0.48043 56.4739 0.734784 56.5793 1 56.5793H14.25C14.5152 56.5793 14.7696 56.4739 14.9571 56.2864C15.1446 56.0988 15.25 55.8445 15.25 55.5793V53.5793L35.68 59.7193C37.2718 60.2872 38.9717 60.4869 40.6517 60.3033C42.3318 60.1198 43.9484 59.5576 45.38 58.6593L69.64 47.6493C70.515 47.273 71.2349 46.6086 71.6799 45.7664C72.1248 44.9242 72.2681 43.9551 72.0858 43.0202C71.9035 42.0853 71.4066 41.241 70.6778 40.6278C69.9491 40.0145 69.0323 39.6692 68.08 39.6493L68.13 39.6193ZM13.29 54.6193H2V32.9893H13.25L13.29 54.6193ZM68.76 45.9093L44.67 56.9093H44.58C43.3936 57.6713 42.0475 58.1498 40.6462 58.3076C39.245 58.4655 37.8262 58.2983 36.5 57.8193L15.25 51.5393V37.0793H28.52C29.7614 37.0745 30.9865 37.3617 32.0964 37.9176C33.2064 38.4734 34.1702 39.2824 34.91 40.2793C35.1662 40.6253 35.3969 40.9896 35.6 41.3693C35.675 41.5519 35.8024 41.7082 35.9661 41.8185C36.1299 41.9289 36.3226 41.9883 36.52 41.9893H47.26C47.8338 41.9919 48.3832 42.2217 48.788 42.6284C49.1928 43.035 49.42 43.5855 49.42 44.1593C49.4224 44.4602 49.3613 44.7582 49.2406 45.0339C49.12 45.3096 48.9426 45.5568 48.72 45.7593C48.3236 46.1269 47.8006 46.3275 47.26 46.3193H28.92C28.6548 46.3193 28.4004 46.4246 28.2129 46.6121C28.0254 46.7997 27.92 47.054 27.92 47.3193C27.92 47.5845 28.0254 47.8388 28.2129 48.0264C28.4004 48.2139 28.6548 48.3193 28.92 48.3193H47.28C48.1143 48.3178 48.9278 48.0595 49.61 47.5793L67.61 41.6693C67.7797 41.6259 67.9551 41.609 68.13 41.6193C68.7038 41.6193 69.2542 41.8465 69.6609 42.2513C70.0676 42.6561 70.2973 43.2055 70.3 43.7793C70.2939 44.2506 70.1374 44.7076 69.8531 45.0836C69.5688 45.4597 69.1718 45.7349 68.72 45.8693L68.76 45.9093Z" fill="white"/>
</svg>
