<svg width="42" height="29" viewBox="0 0 42 29" fill="none" xmlns="http://www.w3.org/2000/svg">
<g opacity="0.5" clip-path="url(#clip0)">
<path d="M40.5226 24.7023C40.3934 26.5364 38.9159 27.9254 37.0821 28H37.0378H36.9742H36.9107H36.8472H36.7837H36.7202H36.6567H36.5931H36.5296H36.4661H36.4026H36.339H36.2755H36.212H36.1484H36.0849H36.0214H35.9578H35.8943H35.8307H35.7672H35.7036H35.6401H35.5765H35.513H35.4494H35.3859H35.3223H35.2588H35.1952H35.1316H35.0681H35.0045H34.9409H34.8774H34.8138H34.7502H34.6866H34.6231H34.5595H34.4959H34.4323H34.3687H34.3052H34.2416H34.178H34.1144H34.0508H33.9872H33.9236H33.86H33.7964H33.7328H33.6692H33.6056H33.542H33.4784H33.4148H33.3512H33.2876H33.224H33.1604H33.0968H33.0332H32.9695H32.9059H32.8423H32.7787H32.7151H32.6514H32.5878H32.5242H32.4606H32.3969H32.3333H32.2697H32.206H32.1424H32.0788H32.0151H31.9515H31.8879H31.8242H31.7606H31.6969H31.6333H31.5696H31.506H31.4423H31.3787H31.315H31.2514H31.1877H31.1241H31.0604H30.9968H30.9331H30.8695H30.8058H30.7421H30.6785H30.6148H30.5511H30.4875H30.4238H30.3601H30.2965H30.2328H30.1691H30.1055H30.0418H29.9781H29.9144H29.8508H29.7871H29.7234H29.6597H29.596H29.5324H29.4687H29.405H29.3413H29.2776H29.2139H29.1502H29.0866H29.0229H28.9592H28.8955H28.8318H28.7681H28.7044H28.6407H28.577H28.5133H28.4496H28.3859H28.3222H28.2585H28.1948H28.1311H28.0674H28.0037H27.94H27.8763H27.8126H27.7489H27.6852H27.6215H27.5577H27.494H27.4303H27.3666H27.3029H27.2392H27.1755H27.1118H27.048H26.9843H26.9206H26.8569H26.7932H26.7294H26.6657H26.602H26.5383H26.4746H26.4108H26.3471H26.2834H26.2197H26.1559H26.0922H26.0285H25.9648H25.901H25.8373H25.7736H25.7098H25.6461H25.5824H25.5186H25.4549H25.3912H25.3274H25.2637H25.2H25.1362H25.0725H25.0088H24.945H24.8813H24.8176H24.7538H24.6901H24.6263H24.5626H24.4989H24.4351H24.3714H24.3076H24.2439H24.1802H24.1164H24.0527H23.9889H23.9252H23.8614H23.7977H23.734H23.6702H23.6065H23.5427H23.479H23.4152H23.3515H23.2877H23.224H23.1602H23.0965H23.0327H22.969H22.9052H22.8415H22.7777H22.714H22.6502H22.5865H22.5227H22.459H22.3952H22.3315H22.2677H22.204H22.1402H22.0765H22.0127H21.949H21.8852H21.8215H21.7577H21.694H21.6302H21.5665H21.5027H21.439H21.3752H21.3115H21.2477H21.184H21.1202H21.0565H20.9927H20.929H20.8652H20.8015H20.7377H20.6739H20.6102H20.5464H20.4827H20.4189H20.3552H20.2914H20.2277H20.1639H20.1002H20.0364H19.9727H19.9089H19.8452H19.7814H19.7177H19.6539H19.5902H19.5264H19.4627H19.3989H19.3352H19.2714H19.2077H19.1439H19.0802H19.0164H18.9527H18.8889H18.8252H18.7614H18.6977H18.6339H18.5702H18.5064H18.4427H18.3789H18.3152H18.2514H18.1877H18.1239H18.0602H17.9964H17.9327H17.869H17.8052H17.7415H17.6777H17.614H17.5502H17.4865H17.4228H17.359H17.2953H17.2315H17.1678H17.104H17.0403H16.9766H16.9128H16.8491H16.7854H16.7216H16.6579H16.5941H16.5304H16.4667H16.4029H16.3392H16.2755H16.2117H16.148H16.0843H16.0205H15.9568H15.8931H15.8293H15.7656H15.7019H15.6382H15.5744H15.5107H15.447H15.3832H15.3195H15.2558H15.1921H15.1284H15.0646H15.0009H14.9372H14.8735H14.8097H14.746H14.6823H14.6186H14.5549H14.4912H14.4274H14.3637H14.3H14.2363H14.1726H14.1089H14.0452H13.9815H13.9177H13.854H13.7903H13.7266H13.6629H13.5992H13.5355H13.4718H13.4081H13.3444H13.2807H13.217H13.1533H13.0896H13.0259H12.9622H12.8985H12.8348H12.7711H12.7074H12.6437H12.58H12.5163H12.4527H12.389H12.3253H12.2616H12.1979H12.1342H12.0705H12.0069H11.9432H11.8795H11.8158H11.7521H11.6885H11.6248H11.5611H11.4974H11.4338H11.3701H11.3064H11.2428H11.1791H11.1154H11.0518H10.9881H10.9244H10.8608H10.7971H10.7334H10.6698H10.6061H10.5425H10.4788H10.4152H10.3515H10.2879H10.2242H10.1606H10.0969H10.0333H9.96962H9.90598H9.84233H9.77869H9.71505H9.65141H9.58778H9.52414H9.4605H9.39687H9.33324H9.26961H9.20598H9.14235H9.07872H9.0151H8.95147H8.88785H8.82423H8.76061H8.69699H8.63337H8.56975H8.50614H8.44253H8.37892H8.31531H8.2517H8.18809H8.12448H8.06088H7.99728H7.93368H7.87008H7.80648H7.74288H7.67929H7.61569H7.5521H7.48851H7.42492H7.36133H7.29775H7.23416H7.17058H7.107H7.04342H6.97984H6.91627H6.85269H6.78912H6.72555H6.66198H6.59841H6.53484H6.47128H6.40772H6.34415H6.28059H6.21704H6.15348H6.08993H6.02637H5.96282H5.89927H5.83572H5.77218H5.70863H5.64509H5.58155H5.51801H5.45448H5.39094H5.32741H5.26388H5.20035H5.13682H5.07329H5.00977H4.94625H4.88272H4.81921H4.75569H4.69217H4.62866H4.56515H4.52019C2.6521 27.9263 1.15609 26.4261 1.08276 24.5008C1.08184 23.523 1.00714 22.6202 0.931126 21.7016C0.926088 21.6407 0.921044 21.5798 0.916016 21.5187V7.44023C0.916016 7.29208 0.930364 7.15243 0.951041 6.97421C0.952494 6.96168 0.954013 6.94872 0.955579 6.93537C0.974201 6.77653 0.999391 6.56168 0.999391 6.34111C0.999391 5.48822 1.00266 4.6704 1.14101 3.94572C1.62501 2.17579 3.15818 1 4.83514 1H4.89767H4.9602H5.02274H5.08527H5.1478H5.21033H5.27286H5.33539H5.39792H5.46045H5.52299H5.58552H5.64805H5.71058H5.77311H5.83564H5.89818H5.96071H6.02324H6.08577H6.1483H6.21084H6.27337H6.3359H6.39843H6.46096H6.5235H6.58603H6.64856H6.7111H6.77363H6.83616H6.89869H6.96123H7.02376H7.0863H7.14883H7.21136H7.2739H7.33643H7.39897H7.4615H7.52403H7.58657H7.6491H7.71164H7.77417H7.83671H7.89925H7.96178H8.02432H8.08685H8.14939H8.21193H8.27446H8.337H8.39954H8.46208H8.52461H8.58715H8.64969H8.71223H8.77477H8.8373H8.89984H8.96238H9.02492H9.08746H9.15H9.21254H9.27508H9.33762H9.40016H9.46271H9.52525H9.58779H9.65033H9.71287H9.77542H9.83796H9.9005H9.96305H10.0256H10.0881H10.1507H10.2132H10.2758H10.3383H10.4009H10.4634H10.526H10.5885H10.651H10.7136H10.7761H10.8387H10.9012H10.9638H11.0263H11.0889H11.1514H11.214H11.2765H11.3391H11.4016H11.4642H11.5267H11.5893H11.6519H11.7144H11.777H11.8395H11.9021H11.9646H12.0272H12.0897H12.1523H12.2148H12.2774H12.34H12.4025H12.4651H12.5276H12.5902H12.6528H12.7153H12.7779H12.8404H12.903H12.9656H13.0281H13.0907H13.1533H13.2158H13.2784H13.341H13.4035H13.4661H13.5287H13.5912H13.6538H13.7164H13.7789H13.8415H13.9041H13.9666H14.0292H14.0918H14.1544H14.2169H14.2795H14.3421H14.4046H14.4672H14.5298H14.5924H14.655H14.7175H14.7801H14.8427H14.9053H14.9678H15.0304H15.093H15.1556H15.2182H15.2808H15.3433H15.4059H15.4685H15.5311H15.5937H15.6563H15.7189H15.7814H15.844H15.9066H15.9692H16.0318H16.0944H16.157H16.2196H16.2822H16.3448H16.4074H16.47H16.5325H16.5951H16.6577H16.7203H16.7829H16.8455H16.9081H16.9707H17.0333H17.0959H17.1585H17.2212H17.2838H17.3464H17.409H17.4716H17.5342H17.5968H17.6594H17.722H17.7846H17.8472H17.9098H17.9725H18.0351H18.0977H18.1603H18.2229H18.2855H18.3482H18.4108H18.4734H18.536H18.5986H18.6613H18.7239H18.7865H18.8491H18.9117H18.9744H19.037H19.0996H19.1623H19.2249H19.2875H19.3501H19.4128H19.4754H19.538H19.6007H19.6633H19.726H19.7886H19.8512H19.9139H19.9765H20.0391H20.1018H20.1644H20.2271H20.2897H20.3524H20.415H20.4777H20.5403H20.603H20.6656H20.7283H20.7909H20.8536H20.9162H20.9789H21.0415H21.1042H21.1668H21.2295H21.2922H21.3548H21.4175H21.4801H21.5428H21.6055H21.6681H21.7308H21.7935H21.8561H21.9188H21.9815H22.0442H22.1068H22.1695H22.2322H22.2949H22.3575H22.4202H22.4829H22.5456H22.6082H22.6709H22.7336H22.7963H22.859H22.9217H22.9844H23.047H23.1097H23.1724H23.2351H23.2978H23.3605H23.4232H23.4859H23.5486H23.6113H23.674H23.7367H23.7994H23.8621H23.9248H23.9875H24.0502H24.1129H24.1756H24.2383H24.301H24.3638H24.4265H24.4892H24.5519H24.6146H24.6773H24.7401H24.8028H24.8655H24.9282H24.9909H25.0537H25.1164H25.1791H25.2419H25.3046H25.3673H25.43H25.4928H25.5555H25.6182H25.681H25.7437H25.8065H25.8692H25.9319H25.9947H26.0574H26.1202H26.1829H26.2457H26.3084H26.3712H26.4339H26.4967H26.5594H26.6222H26.685H26.7477H26.8105H26.8732H26.936H26.9988H27.0615H27.1243H27.1871H27.2498H27.3126H27.3754H27.4381H27.5009H27.5637H27.6265H27.6893H27.752H27.8148H27.8776H27.9404H28.0032H28.066H28.1287H28.1915H28.2543H28.3171H28.3799H28.4427H28.5055H28.5683H28.6311H28.6939H28.7567H28.8195H28.8823H28.9451H29.0079H29.0707H29.1336H29.1964H29.2592H29.322H29.3848H29.4476H29.5104H29.5733H29.6361H29.6989H29.7617H29.8246H29.8874H29.9502H30.0131H30.0759H30.1387H30.2016H30.2644H30.3272H30.3901H30.4529H30.5158H30.5786H30.6415H30.7043H30.7672H30.83H30.8929H30.9557H31.0186H31.0814H31.1443H31.2072H31.27H31.3329H31.3957H31.4586H31.5215H31.5843H31.6472H31.7101H31.773H31.8358H31.8987H31.9616H32.0245H32.0874H32.1503H32.2131H32.276H32.3389H32.4018H32.4647H32.5276H32.5905H32.6534H32.7163H32.7792H32.8421H32.905H32.9679H33.0308H33.0937H33.1566H33.2195H33.2825H33.3454H33.4083H33.4712H33.5341H33.5971H33.66H33.7229H33.7858H33.8488H33.9117H33.9746H34.0376H34.1005H34.1634H34.2264H34.2893H34.3523H34.4152H34.4782H34.5411H34.6041H34.667H34.73H34.7929H34.8559H34.9188H34.9818H35.0448H35.1077H35.1707H35.2337H35.2966H35.3596H35.4226H35.4856H35.5485H35.6115H35.6745H35.7375H35.8005H35.8635H35.9264H35.9894H36.0524H36.1154H36.1784H36.2414H36.3044H36.3674H36.4304H36.4934H36.5564H36.6194H36.6825H36.7455H36.8085H36.8715H36.9345C38.9077 1 40.5318 2.52557 40.6036 4.50096C40.6066 4.82362 40.6824 5.17055 40.7589 5.43867C40.7579 5.46302 40.757 5.48842 40.7561 5.51453C40.7513 5.66245 40.7469 5.87084 40.7429 6.12713C40.7348 6.64149 40.728 7.3687 40.7221 8.23535C40.7103 9.9696 40.7025 12.2727 40.6973 14.5717C40.6921 16.871 40.6895 19.1676 40.6882 20.8892C40.6875 21.7501 40.6872 22.4672 40.6871 22.9692L40.6869 23.5518L40.6869 23.6475C40.6498 23.828 40.629 23.9967 40.6132 24.1254L40.611 24.143C40.5891 24.321 40.5743 24.4313 40.5492 24.5332L40.5286 24.6166L40.5226 24.7023Z" stroke="#838B98" stroke-width="2"/>
<path d="M26.0487 15.1538L30.1614 19.3478C28.5945 18.2498 27.0284 17.1432 25.4625 16.0148C24.9893 15.648 24.334 15.5961 23.8639 16.0265C23.4302 16.3298 22.9794 16.6056 22.5133 16.8905L22.5068 16.8944C22.0366 17.1818 21.5508 17.4789 21.0795 17.8104L21.0684 17.8182L21.0578 17.8266C20.9121 17.9413 20.7099 17.9413 20.5643 17.8266L20.5536 17.8182L20.5425 17.8104C20.0745 17.4811 19.6079 17.1857 19.1527 16.8975L19.1482 16.8946C18.6985 16.6099 18.26 16.3322 17.823 16.0261C17.3742 15.6195 16.6551 15.62 16.207 16.0276C14.6418 17.1452 13.0775 18.2621 11.4996 19.3787L15.639 15.1537L16.0328 14.7517L15.5873 14.4079L10.3551 10.3701C13.44 11.9961 16.5412 13.6475 19.6073 15.2988C20.3555 15.7783 21.3993 15.778 22.1471 15.2979C25.199 13.6282 28.287 11.9937 31.3864 10.3672L26.102 14.4065L25.6526 14.75L26.0487 15.1538Z" fill="#838B98" stroke="#838B98"/>
</g>
<defs>
<clipPath id="clip0">
<rect width="41.6875" height="29" fill="white"/>
</clipPath>
</defs>
</svg>
