<svg width="96" height="28" viewBox="0 0 96 28" fill="none" xmlns="http://www.w3.org/2000/svg">
<path d="M14.3 0.201172C6.7 0.201172 0.5 6.40117 0.5 14.0012C0.5 21.6012 6.7 27.8012 14.3 27.8012C21.9 27.8012 28.2 21.6012 28.2 14.0012C28.2 6.40117 22 0.201172 14.3 0.201172ZM14.3 24.8012C8.4 24.8012 3.5 20.0012 3.5 14.0012C3.5 8.10117 8.3 3.20117 14.3 3.20117C20.2 3.20117 25.1 8.00117 25.1 14.0012C25.1 19.9012 20.3 24.8012 14.3 24.8012Z" fill="#DADCE0"/>
<path d="M17.2 16.9012C17.2 16.9012 16.2 18.1012 14.3 18.1012C12.5 18.1012 11.5 16.9012 11.4 16.9012C10.9 16.2012 9.9 16.1012 9.3 16.7012C8.6 17.2012 8.5 18.2012 9.1 18.8012C9.2 18.9012 11 21.1012 14.3 21.1012C17.6 21.1012 19.5 18.9012 19.5 18.8012C20 18.2012 19.9 17.2012 19.3 16.7012C18.7 16.2012 17.7 16.3012 17.2 16.9012Z" fill="#DADCE0"/>
<path d="M9.9 12.9012C11.0046 12.9012 11.9 12.0057 11.9 10.9012C11.9 9.7966 11.0046 8.90117 9.9 8.90117C8.79543 8.90117 7.9 9.7966 7.9 10.9012C7.9 12.0057 8.79543 12.9012 9.9 12.9012Z" fill="#DADCE0"/>
<path d="M18.8 12.9012C19.9046 12.9012 20.8 12.0057 20.8 10.9012C20.8 9.7966 19.9046 8.90117 18.8 8.90117C17.6954 8.90117 16.8 9.7966 16.8 10.9012C16.8 12.0057 17.6954 12.9012 18.8 12.9012Z" fill="#DADCE0"/>
<path d="M77.2 12.9012C78.3046 12.9012 79.2 12.0057 79.2 10.9012C79.2 9.7966 78.3046 8.90117 77.2 8.90117C76.0954 8.90117 75.2 9.7966 75.2 10.9012C75.2 12.0057 76.0954 12.9012 77.2 12.9012Z" fill="#DADCE0"/>
<path d="M86.1 12.9012C87.2046 12.9012 88.1 12.0057 88.1 10.9012C88.1 9.7966 87.2046 8.90117 86.1 8.90117C84.9954 8.90117 84.1 9.7966 84.1 10.9012C84.1 12.0057 84.9954 12.9012 86.1 12.9012Z" fill="#DADCE0"/>
<path d="M81.7 0.201172C74.1 0.201172 67.9 6.40117 67.9 14.0012C67.9 21.6012 74 27.8012 81.7 27.8012C89.3 27.8012 95.5 21.6012 95.5 14.0012C95.5 6.40117 89.3 0.201172 81.7 0.201172ZM81.7 24.8012C75.8 24.8012 70.9 20.0012 70.9 14.0012C70.9 8.10117 75.7 3.20117 81.7 3.20117C87.6 3.20117 92.5 8.00117 92.5 14.0012C92.5 19.9012 87.6 24.8012 81.7 24.8012Z" fill="#DADCE0"/>
<path d="M81.7 15.5012C78.4 15.5012 76.5 17.7012 76.5 17.8012C76 18.4012 76.1 19.4012 76.7 19.9012C77.3 20.4012 78.3 20.3012 78.8 19.7012C78.8 19.7012 79.8 18.5012 81.7 18.5012C83.5 18.5012 84.5 19.7012 84.6 19.7012C84.9 20.1012 85.3 20.3012 85.8 20.3012C86.1 20.3012 86.5 20.2012 86.8 20.0012C87.5 19.5012 87.6 18.5012 87 17.9012C86.8 17.8012 85 15.5012 81.7 15.5012Z" fill="#DADCE0"/>
<path d="M43.6 12.9012C44.7046 12.9012 45.6 12.0057 45.6 10.9012C45.6 9.7966 44.7046 8.90117 43.6 8.90117C42.4954 8.90117 41.6 9.7966 41.6 10.9012C41.6 12.0057 42.4954 12.9012 43.6 12.9012Z" fill="#DADCE0"/>
<path d="M52.4 12.9012C53.5046 12.9012 54.4 12.0057 54.4 10.9012C54.4 9.7966 53.5046 8.90117 52.4 8.90117C51.2954 8.90117 50.4 9.7966 50.4 10.9012C50.4 12.0057 51.2954 12.9012 52.4 12.9012Z" fill="#DADCE0"/>
<path d="M48 0.201172C40.4 0.201172 34.2 6.40117 34.2 14.0012C34.2 21.6012 40.4 27.8012 48 27.8012C55.6 27.8012 61.8 21.6012 61.8 14.0012C61.8 6.40117 55.6 0.201172 48 0.201172ZM48 24.8012C42.1 24.8012 37.2 20.0012 37.2 14.0012C37.2 8.10117 42 3.20117 48 3.20117C53.9 3.20117 58.8 8.00117 58.8 14.0012C58.8 19.9012 53.9 24.8012 48 24.8012Z" fill="#DADCE0"/>
<path d="M51.7 16.4012H44.3C43.5 16.4012 42.8 17.1012 42.8 17.9012C42.8 18.7012 43.5 19.4012 44.3 19.4012H51.7C52.5 19.4012 53.2 18.7012 53.2 17.9012C53.2 17.1012 52.5 16.4012 51.7 16.4012Z" fill="#DADCE0"/>
</svg>
