<svg width="29" height="30" viewBox="0 0 29 30" fill="none" xmlns="http://www.w3.org/2000/svg">
<path d="M28.1149 7.87547H25.3675L25.7643 1.43429C25.8254 0.487961 24.6043 0.121638 24.1159 0.915337L18.0715 10.7145C17.7052 11.325 18.1326 12.0882 18.8347 12.0882H21.5821L21.2158 18.5294C21.1548 19.4757 22.3758 19.842 22.8643 19.0483L28.8475 9.24918C29.2444 8.63864 28.817 7.87547 28.1149 7.87547Z" fill="#D96055"/>
<path d="M22.132 21.5209C21.3078 21.5209 20.5446 21.1851 19.9646 20.6051C19.4151 20.0251 19.1098 19.2314 19.1709 18.4071L19.4151 14.1334H18.8351C17.7667 14.1334 16.7898 13.5534 16.2708 12.6376C15.7519 11.7217 15.7824 10.5617 16.3319 9.67644L17.1561 8.30273H4.67062C2.10636 8.30273 0 10.4091 0 12.9734V28.5421C0 29 0.39685 29.3968 0.854753 29.3968H4.60956C4.91483 29.3968 5.2201 29.2137 5.37273 28.9084L6.28854 26.9547H20.5446L21.4604 28.9084C21.5825 29.2137 21.8878 29.3968 22.2236 29.3968H25.9784C26.4363 29.3968 26.8331 29 26.8331 28.5421V16.4229L24.5742 20.0861C24.0857 20.9714 23.1394 21.5209 22.132 21.5209ZM13.4318 22.2841H6.04433C5.49484 22.2841 5.03694 21.8262 5.03694 21.2767C5.03694 20.7272 5.49484 20.2693 6.04433 20.2693H13.4318C13.9813 20.2693 14.4392 20.7272 14.4392 21.2767C14.4392 21.8262 13.9813 22.2841 13.4318 22.2841ZM13.4318 17.5524H6.04433C5.49484 17.5524 5.03694 17.0945 5.03694 16.545C5.03694 15.9955 5.49484 15.5376 6.04433 15.5376H13.4318C13.9813 15.5376 14.4392 15.9955 14.4392 16.545C14.4392 17.0945 13.9813 17.5524 13.4318 17.5524Z" fill="#FDFFFF"/>
</svg>
