<svg width="26" height="34" viewBox="0 0 26 34" fill="none" xmlns="http://www.w3.org/2000/svg">
<path fill-rule="evenodd" clip-rule="evenodd" d="M5.37466 5.04004C5.37466 6.71129 3.84182 7.96472 2.52241 8.68097C1.74628 9.09879 0.892543 9.43702 0 9.67577V10.5711C1.02837 10.2925 2.01792 9.93441 2.91047 9.43702C3.99704 8.84014 5.12242 7.96472 5.74332 6.83066C6.11198 7.70608 6.73288 8.48202 7.43139 9.15847C8.45976 10.1334 9.72096 10.9292 11.0404 11.5858V10.6308C9.9344 10.0538 8.86722 9.37733 7.99408 8.5417C7.02393 7.6265 6.209 6.45264 6.209 5.05993C6.209 5.04004 5.37466 5.04004 5.37466 5.04004Z" fill="#2B93CC"/>
<path d="M11.5734 33.4309V33.4999H11.6424H14.6111H14.6305H14.6995V33.4309V7.56105L19.4451 4.0005L19.6106 3.87631H19.4037H6.88867H6.68241L6.84715 4.00042L11.5734 7.56097V33.4309ZM14.1233 7.2327L14.0958 7.2534V7.28781V32.9043H12.1771V7.28781V7.2533L12.1495 7.2326L8.4928 4.49181H17.7616L14.1233 7.2327Z" fill="white" stroke="white" stroke-width="0.2"/>
<path fill-rule="evenodd" clip-rule="evenodd" d="M25.9992 14.2522C24.2529 14.1328 22.5066 13.9338 20.7798 13.6354C18.9171 13.3171 17.035 12.8992 15.2305 12.3223V13.2176C17.0156 13.7747 18.8394 14.1726 20.6439 14.471C22.4096 14.7694 24.2141 14.9684 25.9992 15.1077V14.2522Z" fill="#2B93CC"/>
<path d="M23.8468 4.42312L2.42578 4.40323V2.01573H3.26012V0.304688H5.39446V2.01573H6.18999V0.304688H8.32433V2.01573H17.9289V0.304688H20.0632V2.01573H20.8587V0.304688H22.9931V2.01573H23.8274V4.42312H23.8468ZM2.87205 3.92573L23.3811 3.94562V2.49323H22.5468V0.782187H21.3244V2.49323H19.5975V0.782187H18.3751V2.49323H7.85865V0.782187H6.63626V2.49323H4.92878V0.782187H3.70639V2.49323H2.87205V3.92573Z" fill="white"/>
</svg>
