<svg width="38" height="30" viewBox="0 0 38 30" fill="none" xmlns="http://www.w3.org/2000/svg">
<g opacity="0.5">
<path d="M33.4306 11.08L35.8242 12.5232C36.1513 12.7245 36.5818 12.6155 36.7799 12.2882L36.9435 12.0197C37.1329 11.7009 37.0295 11.2982 36.711 11.1052L18.9659 0.432715C18.7421 0.29847 18.4666 0.29847 18.2427 0.432715L11.7422 4.35938C11.2859 4.63627 10.6918 4.31743 10.6918 3.78884V2.56386C10.6918 2.19468 10.3819 1.89263 10.003 1.89263H6.90345C6.52461 1.89263 6.21465 2.19468 6.21465 2.56386V7.30439C6.21465 7.53932 6.09411 7.75746 5.88748 7.87493L0.506277 11.1052C0.18771 11.2982 0.0843912 11.7009 0.273809 12.0197L0.437398 12.2882C0.635426 12.6155 1.06592 12.7161 1.3931 12.5232L3.78666 11.08C4.24298 10.8032 4.83707 11.122 4.83707 11.6506V26.8958C4.83707 27.265 4.52711 27.567 4.14827 27.567H3.30459C2.92575 27.567 2.61579 27.8691 2.61579 28.2382V28.5738C2.61579 28.943 2.92575 29.2451 3.30459 29.2451H4.83707H10.1752H18.0963H32.3888H34.4552C34.834 29.2451 35.144 28.943 35.144 28.5738V28.2382C35.144 27.8691 34.834 27.567 34.4552 27.567H33.0776C32.6988 27.567 32.3888 27.265 32.3888 26.8958V11.6506C32.3802 11.1304 32.9743 10.8032 33.4306 11.08ZM7.92803 3.57069H8.96122V5.45013C8.96122 5.68505 8.83207 5.91159 8.61682 6.02906L7.92803 6.4234V3.57069ZM18.2513 2.438C18.4752 2.30376 18.7507 2.30376 18.9659 2.438L30.7443 9.44392H30.6582V26.8119C30.6582 27.1811 30.3483 27.4831 29.9694 27.4831H18.7765C18.3977 27.4831 18.0877 27.1811 18.0877 26.8119V13.5971C18.0877 13.228 17.7778 12.9259 17.3989 12.9259H10.8554C10.4766 12.9259 10.1666 13.228 10.1666 13.5971V26.8958C10.1666 27.265 9.85665 27.567 9.47781 27.567H7.23923C6.8604 27.567 6.55044 27.265 6.55044 26.8958V9.44392H6.46434L18.2513 2.438ZM11.8886 27.567V15.2752C11.8886 14.906 12.1985 14.604 12.5774 14.604H15.677C16.0558 14.604 16.3657 14.906 16.3657 15.2752V26.8119C16.3657 27.1811 16.0558 27.4831 15.677 27.4831H11.8886V27.567Z" fill="#F8F8F8"/>
<path d="M28.101 12.9258H21.5575V19.3108H28.1096V12.9258H28.101ZM26.6804 17.918H22.9867V14.3102H26.6804V17.918Z" fill="#F8F8F8"/>
</g>
</svg>
