<svg width="62" height="48" viewBox="0 0 62 48" fill="none" xmlns="http://www.w3.org/2000/svg">
<path d="M55.357 17.8433L59.3342 20.2391C59.8778 20.5734 60.5932 20.3923 60.9222 19.8491L61.194 19.4034C61.5088 18.8741 61.3371 18.2055 60.8078 17.8851L31.3222 0.16715C30.9502 -0.0557168 30.4924 -0.0557168 30.1204 0.16715L19.3191 6.68601C18.5608 7.14568 17.5737 6.61637 17.5737 5.73883V3.70517C17.5737 3.09228 17.0586 2.59083 16.4292 2.59083H11.2788C10.6494 2.59083 10.1343 3.09228 10.1343 3.70517V11.5752C10.1343 11.9652 9.93404 12.3273 9.59068 12.5223L0.649152 17.8851C0.119814 18.2055 -0.0518637 18.8741 0.262878 19.4034L0.534701 19.8491C0.863749 20.3923 1.57907 20.5595 2.12272 20.2391L6.09991 17.8433C6.85815 17.3836 7.84529 17.9129 7.84529 18.7905V44.0998C7.84529 44.7127 7.33026 45.2142 6.70078 45.2142H5.29889C4.66941 45.2142 4.15437 45.7156 4.15437 46.3285V46.8857C4.15437 47.4986 4.66941 48 5.29889 48H7.84529H16.7153H29.8772H53.6259H57.0595C57.689 48 58.204 47.4986 58.204 46.8857V46.3285C58.204 45.7156 57.689 45.2142 57.0595 45.2142H54.7704C54.141 45.2142 53.6259 44.7127 53.6259 44.0998V18.7905C53.6116 17.9269 54.5988 17.3836 55.357 17.8433ZM12.9813 5.37667H14.6981V8.49681C14.6981 8.88683 14.4835 9.26291 14.1258 9.45792L12.9813 10.1126V5.37667ZM30.1347 3.49623C30.5067 3.27336 30.9645 3.27336 31.3222 3.49623L50.8934 15.1271H50.7503V43.9605C50.7503 44.5734 50.2353 45.0749 49.6058 45.0749H31.0074C30.378 45.0749 29.8629 44.5734 29.8629 43.9605V22.0221C29.8629 21.4092 29.3479 20.9077 28.7184 20.9077H17.8455C17.216 20.9077 16.701 21.4092 16.701 22.0221V44.0998C16.701 44.7127 16.186 45.2142 15.5565 45.2142H11.8368C11.2073 45.2142 10.6923 44.7127 10.6923 44.0998V15.1271H10.5492L30.1347 3.49623ZM19.5623 45.2142V24.8079C19.5623 24.195 20.0773 23.6936 20.7068 23.6936H25.8571C26.4866 23.6936 27.0016 24.195 27.0016 24.8079V43.9605C27.0016 44.5734 26.4866 45.0749 25.8571 45.0749H19.5623V45.2142Z" fill="#838B98"/>
</svg>
