<svg width="46" height="46" viewBox="0 0 46 46" fill="none" xmlns="http://www.w3.org/2000/svg">
<g clip-path="url(#clip0)">
<path d="M1.30272 21.2375L22.616 1.68752C22.7694 1.53419 23.076 1.53419 23.306 1.68752L44.696 21.3142C45.0027 21.6208 45.4627 21.5442 45.7694 21.2375C46.076 20.9309 45.9994 20.4708 45.6927 20.1642L24.3794 0.537519C23.6127 -0.15248 22.386 -0.15248 21.6194 0.537519L9.19938 11.9609V6.51752C9.19938 6.05752 8.89272 5.75085 8.43272 5.75085C7.97272 5.75085 7.66605 6.05752 7.66605 6.51752V13.3409L0.229383 20.1642C-0.0772835 20.4708 -0.0772835 20.9309 0.152717 21.2375C0.382717 21.5442 0.99605 21.5442 1.30272 21.2375Z" fill="#CCCDD5"/>
<path d="M39.0999 44.1598V20.6998C39.0999 20.2398 38.7932 19.9331 38.3332 19.9331C37.8732 19.9331 37.5666 20.2398 37.5666 20.6998V44.1598C37.5666 44.3131 37.4899 44.4664 37.3366 44.4664H8.66324C8.5099 44.4664 8.43324 44.3131 8.43324 44.1598V20.6998C8.43324 20.2398 8.12657 19.9331 7.66657 19.9331C7.20657 19.9331 6.8999 20.2398 6.8999 20.6998V44.1598C6.8999 45.1564 7.66657 45.9998 8.66324 45.9998H37.2599C38.3332 45.9998 39.0999 45.1564 39.0999 44.1598Z" fill="#CCCDD5"/>
<path d="M24.9167 18.3999H21.0834C20.47 18.3999 19.9334 18.9366 19.9334 19.5499V21.4666H18.0934C17.4034 21.4666 16.8667 22.0032 16.8667 22.6932V38.6399C16.8667 39.3299 17.4034 39.8666 18.0934 39.8666H27.9067C28.5967 39.8666 29.1334 39.3299 29.1334 38.6399V22.6932C29.1334 22.0032 28.5967 21.4666 27.9067 21.4666H26.0667V19.5499C26.0667 18.9366 25.53 18.3999 24.9167 18.3999ZM21.4667 19.9332H24.5334V21.4666H21.4667V19.9332ZM27.6 22.9999V38.3332H18.4V22.9999H27.6Z" fill="black"/>
<path d="M21.4664 36.0333H24.533C24.993 36.0333 25.2997 35.7267 25.2997 35.2667C25.2997 34.8067 24.993 34.5 24.533 34.5H21.4664C21.0064 34.5 20.6997 34.8067 20.6997 35.2667C20.6997 35.7267 21.0064 36.0333 21.4664 36.0333Z" fill="#F7921E"/>
<path d="M21.4664 32.9664H24.533C24.993 32.9664 25.2997 32.6598 25.2997 32.1998C25.2997 31.7398 24.993 31.4331 24.533 31.4331H21.4664C21.0064 31.4331 20.6997 31.7398 20.6997 32.1998C20.6997 32.6598 21.0064 32.9664 21.4664 32.9664Z" fill="#F7921E"/>
<path d="M21.4664 29.9H24.533C24.993 29.9 25.2997 29.5934 25.2997 29.1334C25.2997 28.6734 24.993 28.3667 24.533 28.3667H21.4664C21.0064 28.3667 20.6997 28.6734 20.6997 29.1334C20.6997 29.5934 21.0064 29.9 21.4664 29.9Z" fill="#F7921E"/>
<path d="M21.4664 26.8331H24.533C24.993 26.8331 25.2997 26.5265 25.2997 26.0665C25.2997 25.6065 24.993 25.2998 24.533 25.2998H21.4664C21.0064 25.2998 20.6997 25.6065 20.6997 26.0665C20.6997 26.5265 21.0064 26.8331 21.4664 26.8331Z" fill="#F7921E"/>
</g>
<defs>
<clipPath id="clip0">
<rect width="46" height="46" fill="white"/>
</clipPath>
</defs>
</svg>
