<svg width="19" height="19" viewBox="0 0 19 19" fill="none" xmlns="http://www.w3.org/2000/svg">
<path d="M9.5 18C4.80558 18 1 14.1944 1 9.5C1 4.80558 4.80558 1 9.5 1C14.1944 1 18 4.80558 18 9.5C18 14.1944 14.1944 18 9.5 18Z" stroke="white" stroke-opacity="0.5"/>
<path d="M10.1368 5C10.7126 5 11 5.40868 11 5.87613C11 6.46022 10.5002 7 9.84894 7C9.30359 7 8.98532 6.6641 9.00052 6.1094C9.00052 5.64241 9.37914 5 10.1368 5Z" fill="white" fill-opacity="0.5"/>
<path d="M8.94862 13C8.60375 13 8.35079 12.7488 8.59223 11.6435L8.98814 9.68313C9.05698 9.3689 9.06851 9.24368 8.98814 9.24368C8.88472 9.24368 8.43676 9.46068 8.17227 9.67419L8 9.33507C8.83893 8.49351 9.80435 8 10.2177 8C10.5623 8 10.6199 8.49001 10.4476 9.24368L9.9944 11.3044C9.9137 11.6684 9.94829 11.794 10.0287 11.794C10.1321 11.794 10.4713 11.6428 10.8047 11.3289L11 11.6432C10.1845 12.6224 9.29348 13 8.94862 13Z" fill="white" fill-opacity="0.5"/>
</svg>
