<svg width="159" height="271" viewBox="0 0 159 271" fill="none" xmlns="http://www.w3.org/2000/svg">
<g filter="url(#filter0_d)">
<path d="M147.544 260H61.8653C58.3856 260 55.9127 259.275 54.512 257.871C53.4397 256.774 53.4178 255.677 53.4178 255.633V6.79212C53.3959 6.61657 53.374 6.06798 53.8555 5.4755C54.8841 4.20277 57.4008 3.56641 61.3401 3.56641H148.069C152.008 3.56641 154.525 4.20277 155.553 5.4755C156.035 6.06798 156.013 6.61657 155.991 6.79212V255.633C155.991 255.677 155.991 256.774 154.897 257.871C153.496 259.275 151.023 260 147.544 260Z" fill="white"/>
<g opacity="0.47">
<g opacity="0.47">
<path opacity="0.47" d="M132.705 4.00488H87.251V259.56H132.705V4.00488Z" fill="white"/>
<path opacity="0.47" d="M132.923 4.00488H132.704V259.56H132.923V4.00488Z" fill="white"/>
<path opacity="0.47" d="M133.143 4.00488H132.924V259.56H133.143V4.00488Z" fill="white"/>
<path opacity="0.47" d="M133.362 4.00488H133.143V259.56H133.362V4.00488Z" fill="white"/>
<path opacity="0.47" d="M133.582 4.00488H133.363V259.56H133.582V4.00488Z" fill="white"/>
<path opacity="0.47" d="M133.822 4.00488H133.604V259.56H133.822V4.00488Z" fill="white"/>
<path opacity="0.47" d="M134.041 4.00488H133.822V259.56H134.041V4.00488Z" fill="white"/>
<path opacity="0.47" d="M134.258 4.00488H134.039V259.56H134.258V4.00488Z" fill="#FEFEFE"/>
<path opacity="0.47" d="M134.479 4.00488H134.26V259.56H134.479V4.00488Z" fill="#FEFEFE"/>
<path opacity="0.47" d="M134.697 4.00488H134.479V259.56H134.697V4.00488Z" fill="#FEFEFE"/>
<path opacity="0.47" d="M134.916 4.00488H134.697V259.56H134.916V4.00488Z" fill="#FEFEFE"/>
<path opacity="0.47" d="M135.155 4.00488H134.936V259.56H135.155V4.00488Z" fill="#FEFEFE"/>
<path opacity="0.47" d="M135.377 4.00488H135.158V259.56H135.377V4.00488Z" fill="#FDFDFD"/>
<path opacity="0.47" d="M135.595 4.00488H135.376V259.56H135.595V4.00488Z" fill="#FDFDFD"/>
<path opacity="0.47" d="M135.813 4.00488H135.594V259.56H135.813V4.00488Z" fill="#FDFDFD"/>
<path opacity="0.47" d="M136.032 4.00488H135.813V259.56H136.032V4.00488Z" fill="#FDFDFD"/>
<path opacity="0.47" d="M136.251 4.00488H136.032V259.56H136.251V4.00488Z" fill="#FCFCFC"/>
<path opacity="0.47" d="M136.472 4.00488H136.253V259.56H136.472V4.00488Z" fill="#FCFCFC"/>
<path opacity="0.47" d="M136.709 4.00488H136.49V259.56H136.709V4.00488Z" fill="#FCFCFC"/>
<path opacity="0.47" d="M136.931 4.00488H136.712V259.56H136.931V4.00488Z" fill="#FCFBFB"/>
<path opacity="0.47" d="M137.147 4.00488H136.928V259.56H137.147V4.00488Z" fill="#FBFBFB"/>
<path opacity="0.47" d="M137.368 4.00488H137.149V259.56H137.368V4.00488Z" fill="#FBFBFB"/>
<path opacity="0.47" d="M137.585 4.00488H137.366V259.56H137.585V4.00488Z" fill="#FAFAFA"/>
<path opacity="0.47" d="M137.803 4.00488H137.584V259.56H137.803V4.00488Z" fill="#FAFAFA"/>
<path opacity="0.47" d="M138.025 4.00488H137.806V259.56H138.025V4.00488Z" fill="#FAFAFA"/>
<path opacity="0.47" d="M138.264 4.00488H138.045V259.56H138.264V4.00488Z" fill="#F9F9F9"/>
<path opacity="0.47" d="M138.485 4.00488H138.266V259.56H138.485V4.00488Z" fill="#F9F9F9"/>
<path opacity="0.47" d="M138.702 4.00488H138.483V259.56H138.702V4.00488Z" fill="#F9F8F9"/>
<path opacity="0.47" d="M138.921 4.00488H138.703V259.56H138.921V4.00488Z" fill="#F8F8F8"/>
<path opacity="0.47" d="M139.138 4.00488H138.919V259.56H139.138V4.00488Z" fill="#F8F8F8"/>
<path opacity="0.47" d="M139.359 4.00488H139.14V259.56H139.359V4.00488Z" fill="#F7F7F7"/>
<path opacity="0.47" d="M139.598 4.00488H139.379V259.56H139.598V4.00488Z" fill="#F7F7F7"/>
<path opacity="0.47" d="M139.817 4.00488H139.598V259.56H139.817V4.00488Z" fill="#F6F6F6"/>
<path opacity="0.47" d="M140.036 4.00488H139.817V259.56H140.036V4.00488Z" fill="#F6F6F6"/>
<path opacity="0.47" d="M140.257 4.00488H140.039V259.56H140.257V4.00488Z" fill="#F6F5F5"/>
<path opacity="0.47" d="M140.476 4.00488H140.257V259.56H140.476V4.00488Z" fill="#F5F5F5"/>
<path opacity="0.47" d="M140.692 4.00488H140.474V259.56H140.692V4.00488Z" fill="#F5F4F4"/>
<path opacity="0.47" d="M140.911 4.00488H140.692V259.56H140.911V4.00488Z" fill="#F4F4F4"/>
<path opacity="0.47" d="M141.153 4.00488H140.935V259.56H141.153V4.00488Z" fill="#F4F3F3"/>
<path opacity="0.47" d="M141.373 4.00488H141.154V259.56H141.373V4.00488Z" fill="#F3F3F3"/>
<path opacity="0.47" d="M141.592 4.00488H141.373V259.56H141.592V4.00488Z" fill="#F3F2F2"/>
<path opacity="0.47" d="M141.811 4.00488H141.592V259.56H141.811V4.00488Z" fill="#F2F2F2"/>
<path opacity="0.47" d="M142.027 4.00488H141.809V259.56H142.027V4.00488Z" fill="#F1F1F1"/>
<path opacity="0.47" d="M142.249 4.00488H142.03V259.56H142.249V4.00488Z" fill="#F1F1F1"/>
<path opacity="0.47" d="M142.465 4.00488H142.246V259.56H142.465V4.00488Z" fill="#F0F0F0"/>
<path opacity="0.47" d="M142.707 4.00488H142.488V259.56H142.707V4.00488Z" fill="#F0F0F0"/>
<path opacity="0.47" d="M142.923 4.00488H142.704V259.56H142.923V4.00488Z" fill="#EFEFEF"/>
<path opacity="0.47" d="M143.145 4.00488H142.926V259.56H143.145V4.00488Z" fill="#EFEEEE"/>
<path opacity="0.47" d="M143.365 4.00488H143.146V259.56H143.365V4.00488Z" fill="#EEEEEE"/>
<path opacity="0.47" d="M143.582 4.00488H143.363V259.56H143.582V4.00488Z" fill="#EDEDED"/>
<path opacity="0.47" d="M143.8 4.00488H143.582V259.56H143.8V4.00488Z" fill="#EDEDED"/>
<path opacity="0.47" d="M144.044 4.00488H143.825V259.56H144.044V4.00488Z" fill="#ECECEC"/>
<path opacity="0.47" d="M144.262 4.00488H144.043V259.56H144.262V4.00488Z" fill="#ECEBEB"/>
<path opacity="0.47" d="M144.479 4.00488H144.26V259.56H144.479V4.00488Z" fill="#EBEBEB"/>
<path opacity="0.47" d="M144.7 4.00488H144.481V259.56H144.7V4.00488Z" fill="#EAEAEA"/>
<path opacity="0.47" d="M144.916 4.00488H144.697V259.56H144.916V4.00488Z" fill="#EAE9E9"/>
<path opacity="0.47" d="M145.138 4.00488H144.919V259.56H145.138V4.00488Z" fill="#E9E9E9"/>
<path opacity="0.47" d="M145.354 4.00488H145.135V259.56H145.354V4.00488Z" fill="#E8E8E8"/>
<path opacity="0.47" d="M145.596 4.00488H145.377V259.56H145.596V4.00488Z" fill="#E8E7E7"/>
<path opacity="0.47" d="M145.812 4.00488H145.593V259.56H145.812V4.00488Z" fill="#E7E7E7"/>
<path opacity="0.47" d="M146.034 4.00488H145.815V259.56H146.034V4.00488Z" fill="#E6E6E6"/>
<path opacity="0.47" d="M146.253 4.00488H146.034V259.56H146.253V4.00488Z" fill="#E6E5E5"/>
<path opacity="0.47" d="M146.471 4.00488H146.252V259.56H146.471V4.00488Z" fill="#E5E4E5"/>
<path opacity="0.47" d="M146.69 4.00488H146.471V259.56H146.69V4.00488Z" fill="#E4E4E4"/>
<path opacity="0.47" d="M146.907 4.00488H146.688V259.56H146.907V4.00488Z" fill="#E4E3E3"/>
<path opacity="0.47" d="M147.152 4.00488H146.933V259.56H147.152V4.00488Z" fill="#E3E2E2"/>
<path opacity="0.47" d="M147.368 4.00488H147.149V259.56H147.368V4.00488Z" fill="#E2E2E2"/>
<path opacity="0.47" d="M147.587 4.00488H147.368V259.56H147.587V4.00488Z" fill="#E1E1E1"/>
<path opacity="0.47" d="M147.806 4.00488H147.587V259.56H147.806V4.00488Z" fill="#E1E0E0"/>
<path opacity="0.47" d="M148.025 4.00488H147.806V259.56H148.025V4.00488Z" fill="#E0DFDF"/>
<path opacity="0.47" d="M148.244 4.00488H148.025V259.56H148.244V4.00488Z" fill="#DFDFDF"/>
<path opacity="0.47" d="M148.485 4.00488H148.266V259.56H148.485V4.00488Z" fill="#DEDEDE"/>
<path opacity="0.47" d="M148.702 4.00488H148.483V259.56H148.702V4.00488Z" fill="#DEDDDD"/>
<path opacity="0.47" d="M148.923 4.00488H148.704V259.56H148.923V4.00488Z" fill="#DDDCDC"/>
<path opacity="0.47" d="M149.14 4.00488H148.921V259.56H149.14V4.00488Z" fill="#DCDBDC"/>
<path opacity="0.47" d="M149.36 4.00488H149.142V259.56H149.36V4.00488Z" fill="#DBDBDB"/>
<path opacity="0.47" d="M149.579 4.00488H149.36V259.56H149.579V4.00488Z" fill="#DADADA"/>
<path opacity="0.47" d="M149.797 4.00488H149.578V259.56H149.797V4.00488Z" fill="#DAD9D9"/>
<path opacity="0.47" d="M150.041 4.00488H149.822V259.56H150.041V4.00488Z" fill="#D9D8D8"/>
<path opacity="0.47" d="M150.257 4.00488H150.039V259.56H150.257V4.00488Z" fill="#D8D7D7"/>
<path opacity="0.47" d="M150.476 4.00488H150.257V259.56H150.476V4.00488Z" fill="#D7D6D7"/>
<path opacity="0.47" d="M150.692 4.00488H150.474V259.56H150.692V4.00488Z" fill="#D6D6D6"/>
<path opacity="0.47" d="M150.914 4.00488H150.695V259.56H150.914V4.00488Z" fill="#D5D5D5"/>
<path opacity="0.47" d="M151.133 4.00488H150.914V259.56H151.133V4.00488Z" fill="#D5D4D4"/>
<path opacity="0.47" d="M151.352 4.00488H151.133V259.56H151.352V4.00488Z" fill="#D4D3D3"/>
<path opacity="0.47" d="M151.591 4.00488H151.372V259.56H151.591V4.00488Z" fill="#D3D2D2"/>
<path opacity="0.47" d="M151.81 4.00488H151.591V259.56H151.81V4.00488Z" fill="#D2D1D1"/>
<path opacity="0.47" d="M152.03 4.00488H151.811V259.56H152.03V4.00488Z" fill="#D1D0D1"/>
<path opacity="0.47" d="M152.249 4.00488H152.03V259.56H152.249V4.00488Z" fill="#D0CFD0"/>
<path opacity="0.47" d="M152.467 4.00488H152.249V259.56H152.467V4.00488Z" fill="#CFCFCF"/>
<path opacity="0.47" d="M152.686 4.00488H152.467V259.56H152.686V4.00488Z" fill="#CECECE"/>
<path opacity="0.47" d="M152.928 4.00488H152.709V259.56H152.928V4.00488Z" fill="#CECDCD"/>
<path opacity="0.47" d="M153.147 4.00488H152.928V259.56H153.147V4.00488Z" fill="#CDCCCC"/>
<path opacity="0.47" d="M153.365 4.00488H153.146V259.56H153.365V4.00488Z" fill="#CCCBCB"/>
<path opacity="0.47" d="M153.582 4.00488H153.363V259.56H153.582V4.00488Z" fill="#CBCACA"/>
<path opacity="0.47" d="M153.803 4.00488H153.584V259.56H153.803V4.00488Z" fill="#CAC9C9"/>
<path opacity="0.47" d="M154.02 4.00488H153.801V259.56H154.02V4.00488Z" fill="#C9C8C8"/>
<path opacity="0.47" d="M154.241 4.00488H154.022V259.56H154.241V4.00488Z" fill="#C8C7C7"/>
<path opacity="0.47" d="M154.479 4.00488H154.26V259.56H154.479V4.00488Z" fill="#C7C6C6"/>
<path opacity="0.47" d="M154.699 4.00488H154.48V259.56H154.699V4.00488Z" fill="#C6C5C5"/>
<path opacity="0.47" d="M154.92 4.00488H154.701V259.56H154.92V4.00488Z" fill="#C5C4C4"/>
<path opacity="0.47" d="M155.138 4.00488H154.919V259.56H155.138V4.00488Z" fill="#C4C3C3"/>
<path opacity="0.47" d="M155.357 4.00488H155.138V259.56H155.357V4.00488Z" fill="#C3C2C2"/>
<path opacity="0.47" d="M155.573 4.00488H155.354V259.56H155.573V4.00488Z" fill="#C2C1C1"/>
<path opacity="0.47" d="M155.794 4.00488H155.575V259.56H155.794V4.00488Z" fill="#C1C0C0"/>
<path opacity="0.47" d="M155.946 4.00488H155.815V259.56H155.946V4.00488Z" fill="#C0BFBF"/>
</g>
</g>
<g opacity="0.47">
<g opacity="0.47">
<path opacity="0.47" d="M114.169 4.00488H74.0327V259.56H114.169V4.00488Z" fill="white"/>
<path opacity="0.47" d="M74.0329 4.00488H73.8359V259.56H74.0329V4.00488Z" fill="white"/>
<path opacity="0.47" d="M73.8347 4.00488H73.6377V259.56H73.8347V4.00488Z" fill="white"/>
<path opacity="0.47" d="M73.6364 4.00488H73.4395V259.56H73.6364V4.00488Z" fill="white"/>
<path opacity="0.47" d="M73.4406 4.00488H73.2437V259.56H73.4406V4.00488Z" fill="white"/>
<path opacity="0.47" d="M73.2453 4.00488H73.0483V259.56H73.2453V4.00488Z" fill="white"/>
<path opacity="0.47" d="M73.0471 4.00488H72.8501V259.56H73.0471V4.00488Z" fill="white"/>
<path opacity="0.47" d="M72.8513 4.00488H72.6543V259.56H72.8513V4.00488Z" fill="#FEFEFE"/>
<path opacity="0.47" d="M72.6779 4.00488H72.481V259.56H72.6779V4.00488Z" fill="#FEFEFE"/>
<path opacity="0.47" d="M72.4797 4.00488H72.2827V259.56H72.4797V4.00488Z" fill="#FEFEFE"/>
<path opacity="0.47" d="M72.2814 4.00488H72.0845V259.56H72.2814V4.00488Z" fill="#FEFEFE"/>
<path opacity="0.47" d="M72.0832 4.00488H71.8862V259.56H72.0832V4.00488Z" fill="#FEFEFE"/>
<path opacity="0.47" d="M71.8884 4.00488H71.6914V259.56H71.8884V4.00488Z" fill="#FDFDFD"/>
<path opacity="0.47" d="M71.6906 4.00488H71.4937V259.56H71.6906V4.00488Z" fill="#FDFDFD"/>
<path opacity="0.47" d="M71.4924 4.00488H71.2954V259.56H71.4924V4.00488Z" fill="#FDFDFD"/>
<path opacity="0.47" d="M71.2966 4.00488H71.0996V259.56H71.2966V4.00488Z" fill="#FDFDFD"/>
<path opacity="0.47" d="M71.0983 4.00488H70.9014V259.56H71.0983V4.00488Z" fill="#FCFCFC"/>
<path opacity="0.47" d="M70.903 4.00488H70.7061V259.56H70.903V4.00488Z" fill="#FCFCFC"/>
<path opacity="0.47" d="M70.7072 4.00488H70.5103V259.56H70.7072V4.00488Z" fill="#FCFCFC"/>
<path opacity="0.47" d="M70.51 4.00488H70.313V259.56H70.51V4.00488Z" fill="#FCFBFB"/>
<path opacity="0.47" d="M70.3122 4.00488H70.1152V259.56H70.3122V4.00488Z" fill="#FBFBFB"/>
<path opacity="0.47" d="M70.1164 4.00488H69.9194V259.56H70.1164V4.00488Z" fill="#FBFBFB"/>
<path opacity="0.47" d="M69.9182 4.00488H69.7212V259.56H69.9182V4.00488Z" fill="#FAFAFA"/>
<path opacity="0.47" d="M69.7199 4.00488H69.5229V259.56H69.7199V4.00488Z" fill="#FAFAFA"/>
<path opacity="0.47" d="M69.5246 4.00488H69.3276V259.56H69.5246V4.00488Z" fill="#FAFAFA"/>
<path opacity="0.47" d="M69.3278 4.00488H69.1309V259.56H69.3278V4.00488Z" fill="#F9F9F9"/>
<path opacity="0.47" d="M69.1296 4.00488H68.9326V259.56H69.1296V4.00488Z" fill="#F9F9F9"/>
<path opacity="0.47" d="M68.9313 4.00488H68.7344V259.56H68.9313V4.00488Z" fill="#F9F8F9"/>
<path opacity="0.47" d="M68.7375 4.00488H68.5405V259.56H68.7375V4.00488Z" fill="#F8F8F8"/>
<path opacity="0.47" d="M68.5397 4.00488H68.3428V259.56H68.5397V4.00488Z" fill="#F8F8F8"/>
<path opacity="0.47" d="M68.3415 4.00488H68.1445V259.56H68.3415V4.00488Z" fill="#F7F7F7"/>
<path opacity="0.47" d="M68.1462 4.00488H67.9492V259.56H68.1462V4.00488Z" fill="#F7F7F7"/>
<path opacity="0.47" d="M67.9489 4.00488H67.752V259.56H67.9489V4.00488Z" fill="#F6F6F6"/>
<path opacity="0.47" d="M67.7512 4.00488H67.5542V259.56H67.7512V4.00488Z" fill="#F6F6F6"/>
<path opacity="0.47" d="M67.5759 4.00488H67.3789V259.56H67.5759V4.00488Z" fill="#F6F5F5"/>
<path opacity="0.47" d="M67.3776 4.00488H67.1807V259.56H67.3776V4.00488Z" fill="#F5F5F5"/>
<path opacity="0.47" d="M67.1823 4.00488H66.9854V259.56H67.1823V4.00488Z" fill="#F5F4F4"/>
<path opacity="0.47" d="M66.9855 4.00488H66.7886V259.56H66.9855V4.00488Z" fill="#F4F4F4"/>
<path opacity="0.47" d="M66.7873 4.00488H66.5903V259.56H66.7873V4.00488Z" fill="#F4F3F3"/>
<path opacity="0.47" d="M66.5915 4.00488H66.3945V259.56H66.5915V4.00488Z" fill="#F3F3F3"/>
<path opacity="0.47" d="M66.3952 4.00488H66.1982V259.56H66.3952V4.00488Z" fill="#F3F2F2"/>
<path opacity="0.47" d="M66.1975 4.00488H66.0005V259.56H66.1975V4.00488Z" fill="#F2F2F2"/>
<path opacity="0.47" d="M66.0021 4.00488H65.8052V259.56H66.0021V4.00488Z" fill="#F1F1F1"/>
<path opacity="0.47" d="M65.8039 4.00488H65.6069V259.56H65.8039V4.00488Z" fill="#F1F1F1"/>
<path opacity="0.47" d="M65.6066 4.00488H65.4097V259.56H65.6066V4.00488Z" fill="#F0F0F0"/>
<path opacity="0.47" d="M65.4108 4.00488H65.2139V259.56H65.4108V4.00488Z" fill="#F0F0F0"/>
<path opacity="0.47" d="M65.2131 4.00488H65.0161V259.56H65.2131V4.00488Z" fill="#EFEFEF"/>
<path opacity="0.47" d="M65.0148 4.00488H64.8179V259.56H65.0148V4.00488Z" fill="#EFEEEE"/>
<path opacity="0.47" d="M64.819 4.00488H64.6221V259.56H64.819V4.00488Z" fill="#EEEEEE"/>
<path opacity="0.47" d="M64.6208 4.00488H64.4238V259.56H64.6208V4.00488Z" fill="#EDEDED"/>
<path opacity="0.47" d="M64.4245 4.00488H64.2275V259.56H64.4245V4.00488Z" fill="#EDEDED"/>
<path opacity="0.47" d="M64.2282 4.00488H64.0312V259.56H64.2282V4.00488Z" fill="#ECECEC"/>
<path opacity="0.47" d="M64.0324 4.00488H63.8354V259.56H64.0324V4.00488Z" fill="#ECEBEB"/>
<path opacity="0.47" d="M63.8347 4.00488H63.6377V259.56H63.8347V4.00488Z" fill="#EBEBEB"/>
<path opacity="0.47" d="M63.6364 4.00488H63.4395V259.56H63.6364V4.00488Z" fill="#EAEAEA"/>
<path opacity="0.47" d="M63.4406 4.00488H63.2437V259.56H63.4406V4.00488Z" fill="#EAE9E9"/>
<path opacity="0.47" d="M63.2438 4.00488H63.0469V259.56H63.2438V4.00488Z" fill="#E9E9E9"/>
<path opacity="0.47" d="M63.0461 4.00488H62.8491V259.56H63.0461V4.00488Z" fill="#E8E8E8"/>
<path opacity="0.47" d="M62.8498 4.00488H62.6528V259.56H62.8498V4.00488Z" fill="#E8E7E7"/>
<path opacity="0.47" d="M62.652 4.00488H62.4551V259.56H62.652V4.00488Z" fill="#E7E7E7"/>
<path opacity="0.47" d="M62.4538 4.00488H62.2568V259.56H62.4538V4.00488Z" fill="#E6E6E6"/>
<path opacity="0.47" d="M62.28 4.00488H62.083V259.56H62.28V4.00488Z" fill="#E6E5E5"/>
<path opacity="0.47" d="M62.0822 4.00488H61.8853V259.56H62.0822V4.00488Z" fill="#E5E4E5"/>
<path opacity="0.47" d="M61.8884 4.00488H61.6914V259.56H61.8884V4.00488Z" fill="#E4E4E4"/>
<path opacity="0.47" d="M61.6901 4.00488H61.4932V259.56H61.6901V4.00488Z" fill="#E4E3E3"/>
<path opacity="0.47" d="M61.4924 4.00488H61.2954V259.56H61.4924V4.00488Z" fill="#E3E2E2"/>
<path opacity="0.47" d="M61.2961 4.00488H61.0991V259.56H61.2961V4.00488Z" fill="#E2E2E2"/>
<path opacity="0.47" d="M61.0983 4.00488H60.9014V259.56H61.0983V4.00488Z" fill="#E1E1E1"/>
<path opacity="0.47" d="M60.9016 4.00488H60.7046V259.56H60.9016V4.00488Z" fill="#E1E0E0"/>
<path opacity="0.47" d="M60.7058 4.00488H60.5088V259.56H60.7058V4.00488Z" fill="#E0DFDF"/>
<path opacity="0.47" d="M60.5075 4.00488H60.3105V259.56H60.5075V4.00488Z" fill="#DFDFDF"/>
<path opacity="0.47" d="M60.3098 4.00488H60.1128V259.56H60.3098V4.00488Z" fill="#DEDEDE"/>
<path opacity="0.47" d="M60.1135 4.00488H59.9165V259.56H60.1135V4.00488Z" fill="#DEDDDD"/>
<path opacity="0.47" d="M59.9157 4.00488H59.7188V259.56H59.9157V4.00488Z" fill="#DDDCDC"/>
<path opacity="0.47" d="M59.7199 4.00488H59.5229V259.56H59.7199V4.00488Z" fill="#DCDBDC"/>
<path opacity="0.47" d="M59.5231 4.00488H59.3262V259.56H59.5231V4.00488Z" fill="#DBDBDB"/>
<path opacity="0.47" d="M59.3273 4.00488H59.1304V259.56H59.3273V4.00488Z" fill="#DADADA"/>
<path opacity="0.47" d="M59.1291 4.00488H58.9321V259.56H59.1291V4.00488Z" fill="#DAD9D9"/>
<path opacity="0.47" d="M58.9313 4.00488H58.7344V259.56H58.9313V4.00488Z" fill="#D9D8D8"/>
<path opacity="0.47" d="M58.735 4.00488H58.5381V259.56H58.735V4.00488Z" fill="#D8D7D7"/>
<path opacity="0.47" d="M58.5373 4.00488H58.3403V259.56H58.5373V4.00488Z" fill="#D7D6D7"/>
<path opacity="0.47" d="M58.34 4.00488H58.1431V259.56H58.34V4.00488Z" fill="#D6D6D6"/>
<path opacity="0.47" d="M58.1447 4.00488H57.9478V259.56H58.1447V4.00488Z" fill="#D5D5D5"/>
<path opacity="0.47" d="M57.9465 4.00488H57.7495V259.56H57.9465V4.00488Z" fill="#D5D4D4"/>
<path opacity="0.47" d="M57.7487 4.00488H57.5518V259.56H57.7487V4.00488Z" fill="#D4D3D3"/>
<path opacity="0.47" d="M57.5549 4.00488H57.3579V259.56H57.5549V4.00488Z" fill="#D3D2D2"/>
<path opacity="0.47" d="M57.3566 4.00488H57.1597V259.56H57.3566V4.00488Z" fill="#D2D1D1"/>
<path opacity="0.47" d="M57.1589 4.00488H56.9619V259.56H57.1589V4.00488Z" fill="#D1D0D1"/>
<path opacity="0.47" d="M56.985 4.00488H56.7881V259.56H56.985V4.00488Z" fill="#D0CFD0"/>
<path opacity="0.47" d="M56.7868 4.00488H56.5898V259.56H56.7868V4.00488Z" fill="#CFCFCF"/>
<path opacity="0.47" d="M56.591 4.00488H56.394V259.56H56.591V4.00488Z" fill="#CECECE"/>
<path opacity="0.47" d="M56.3928 4.00488H56.1958V259.56H56.3928V4.00488Z" fill="#CECDCD"/>
<path opacity="0.47" d="M56.197 4.00488H56V259.56H56.197V4.00488Z" fill="#CDCCCC"/>
<path opacity="0.47" d="M56.0002 4.00488H55.8032V259.56H56.0002V4.00488Z" fill="#CCCBCB"/>
<path opacity="0.47" d="M55.8024 4.00488H55.6055V259.56H55.8024V4.00488Z" fill="#CBCACA"/>
<path opacity="0.47" d="M55.6042 4.00488H55.4072V259.56H55.6042V4.00488Z" fill="#CAC9C9"/>
<path opacity="0.47" d="M55.4084 4.00488H55.2114V259.56H55.4084V4.00488Z" fill="#C9C8C8"/>
<path opacity="0.47" d="M55.2126 4.00488H55.0156V259.56H55.2126V4.00488Z" fill="#C8C7C7"/>
<path opacity="0.47" d="M55.0143 4.00488H54.8174V259.56H55.0143V4.00488Z" fill="#C7C6C6"/>
<path opacity="0.47" d="M54.8176 4.00488H54.6206V259.56H54.8176V4.00488Z" fill="#C6C5C5"/>
<path opacity="0.47" d="M54.6218 4.00488H54.4248V259.56H54.6218V4.00488Z" fill="#C5C4C4"/>
<path opacity="0.47" d="M54.424 4.00488H54.2271V259.56H54.424V4.00488Z" fill="#C4C3C3"/>
<path opacity="0.47" d="M54.2258 4.00488H54.0288V259.56H54.2258V4.00488Z" fill="#C3C2C2"/>
<path opacity="0.47" d="M54.03 4.00488H53.833V259.56H54.03V4.00488Z" fill="#C2C1C1"/>
<path opacity="0.47" d="M53.8312 4.00537H53.6343V259.561H53.8312V4.00537Z" fill="#C1C0C0"/>
<path opacity="0.47" d="M53.6348 4.00488H53.5254V259.56H53.6348V4.00488Z" fill="#C0BFBF"/>
</g>
</g>
<g opacity="0.11">
<path opacity="0.11" d="M155.552 21.2092C155.071 19.9145 148.702 19.8267 148.702 19.8267H61.8641C54.0732 19.8267 53.8544 21.2092 53.8544 21.2092V6.74832C53.8544 6.74832 53.4386 4.00537 61.3389 4.00537C69.2393 4.00537 148.68 4.00537 148.68 4.00537C148.68 4.00537 155.552 4.09315 155.552 6.74832V21.2092Z" fill="black"/>
</g>
<g opacity="0.11">
<path opacity="0.11" d="M53.8535 242.028C54.335 243.323 60.7034 243.411 60.7034 243.411H147.542C155.333 243.411 155.551 242.028 155.551 242.028V256.489C155.551 256.489 155.989 259.232 148.067 259.232C140.145 259.232 60.7253 259.232 60.7253 259.232C60.7253 259.232 53.8535 259.144 53.8535 256.489V242.028Z" fill="black"/>
</g>
<path d="M147.542 259.671H61.8634C57.6397 259.671 55.67 258.574 54.7509 257.653C53.7661 256.665 53.7661 255.678 53.7661 255.656V6.77113C53.7442 6.68335 53.7004 6.22254 54.1381 5.69589C54.7947 4.88398 56.5892 3.91846 61.36 3.91846H148.089C152.86 3.91846 154.654 4.88398 155.311 5.69589C155.748 6.22254 155.683 6.7053 155.683 6.77113V255.634C155.683 255.678 155.683 256.643 154.698 257.631C153.757 258.552 151.765 259.671 147.542 259.671ZM61.3382 4.11595C56.6767 4.11595 54.926 5.03758 54.2913 5.80561C53.8755 6.31031 53.963 6.7053 53.963 6.72724V6.74918V255.634C53.963 255.634 53.9849 256.599 54.9479 257.543C55.8451 258.421 57.771 259.452 61.8634 259.452H147.564C151.656 259.452 153.582 258.399 154.479 257.543C155.442 256.599 155.464 255.656 155.464 255.634V6.74918V6.72724C155.464 6.7053 155.551 6.31031 155.136 5.80561C154.501 5.03758 152.772 4.11595 148.089 4.11595H61.3382Z" fill="black"/>
<path d="M147.544 260H61.8653C58.3856 260 55.9127 259.275 54.512 257.871C53.4397 256.774 53.4178 255.677 53.4178 255.633V6.79212C53.3959 6.61657 53.374 6.06798 53.8555 5.4755C54.8841 4.20277 57.4008 3.56641 61.3401 3.56641H148.069C152.008 3.56641 154.525 4.20277 155.553 5.4755C156.035 6.06798 156.013 6.61657 155.991 6.79212V255.633C155.991 255.677 155.991 256.774 154.897 257.871C153.496 259.275 151.023 260 147.544 260ZM61.3401 4.44415C56.613 4.44415 55.081 5.40967 54.5777 5.9802C54.2494 6.35325 54.2932 6.66046 54.2932 6.6824V6.72629V6.74823V255.633C54.2932 255.764 54.4464 259.122 61.8653 259.122H147.565C154.984 259.122 155.116 255.764 155.138 255.633V6.70434V6.66046C155.138 6.66046 155.181 6.35325 154.853 5.9802C154.35 5.40967 152.818 4.44415 148.091 4.44415H61.3401Z" fill="black"/>
<path d="M155.445 21.2529C155.073 20.2435 150.455 19.9801 148.683 19.9582H61.8663C54.4036 19.9582 53.9659 21.2309 53.9659 21.2529L53.7471 21.209C53.769 21.0554 54.2066 19.7388 61.8663 19.7388H148.704C149.361 19.7388 155.16 19.8485 155.664 21.187L155.445 21.2529Z" fill="black"/>
<path d="M147.542 243.52H60.7254C60.0689 243.52 54.2695 243.411 53.7661 242.072L53.9631 242.006C54.3351 243.016 58.9528 243.279 60.7254 243.301H147.564C155.026 243.301 155.464 242.028 155.464 242.006L155.683 242.05C155.639 242.204 155.201 243.52 147.542 243.52Z" fill="black"/>
<path d="M111.042 75.7393H98.9835C97.3202 75.7393 95.9634 74.3788 95.9634 72.7111V47.059C95.9634 45.3913 97.3202 44.0308 98.9835 44.0308H111.042C112.705 44.0308 114.062 45.3913 114.062 47.059V72.7111C114.062 74.3788 112.705 75.7393 111.042 75.7393ZM98.9835 44.4477C97.561 44.4477 96.4011 45.6107 96.4011 47.037V72.6891C96.4011 74.1155 97.561 75.2785 98.9835 75.2785H111.042C112.464 75.2785 113.624 74.1155 113.624 72.6891V47.059C113.624 45.6326 112.464 44.4696 111.042 44.4696H98.9835V44.4477Z" fill="black"/>
<path d="M109.856 48.5077C109.637 48.5077 109.44 48.3321 109.44 48.0908V47.7177C109.44 47.4983 109.616 47.3008 109.856 47.3008C110.097 47.3008 110.272 47.4763 110.272 47.7177V48.0908C110.25 48.3102 110.075 48.5077 109.856 48.5077ZM109.856 47.4324C109.681 47.4324 109.55 47.5641 109.55 47.7397V48.1127C109.55 48.2882 109.681 48.4199 109.856 48.4199C110.031 48.4199 110.163 48.2882 110.163 48.1127V47.7397C110.141 47.5641 110.009 47.4324 109.856 47.4324Z" fill="black"/>
<path d="M109.856 50.1537C109.637 50.1537 109.44 49.9781 109.44 49.7367V49.3637C109.44 49.1443 109.616 48.9468 109.856 48.9468C110.097 48.9468 110.272 49.1223 110.272 49.3637V49.7367C110.25 49.9562 110.075 50.1537 109.856 50.1537ZM109.856 49.0784C109.681 49.0784 109.55 49.2101 109.55 49.3857V49.7587C109.55 49.9342 109.681 50.0659 109.856 50.0659C110.031 50.0659 110.163 49.9342 110.163 49.7587V49.3857C110.141 49.2101 110.009 49.0784 109.856 49.0784Z" fill="black"/>
<path d="M109.856 51.7997C109.637 51.7997 109.44 51.6241 109.44 51.3827V51.0097C109.44 50.7903 109.616 50.5928 109.856 50.5928C110.097 50.5928 110.272 50.7683 110.272 51.0097V51.3827C110.25 51.6022 110.075 51.7997 109.856 51.7997ZM109.856 50.7244C109.681 50.7244 109.55 50.8561 109.55 51.0316V51.4047C109.55 51.5802 109.681 51.7119 109.856 51.7119C110.031 51.7119 110.163 51.5802 110.163 51.4047V51.0316C110.141 50.8561 110.009 50.7244 109.856 50.7244Z" fill="black"/>
<path d="M109.856 53.4227C109.637 53.4227 109.44 53.2472 109.44 53.0058V52.6328C109.44 52.4133 109.616 52.2158 109.856 52.2158C110.097 52.2158 110.272 52.3914 110.272 52.6328V53.0058C110.25 53.2472 110.075 53.4227 109.856 53.4227ZM109.856 52.3694C109.681 52.3694 109.55 52.5011 109.55 52.6766V53.0497C109.55 53.2252 109.681 53.3569 109.856 53.3569C110.031 53.3569 110.163 53.2252 110.163 53.0497V52.6766C110.141 52.5011 110.009 52.3694 109.856 52.3694Z" fill="black"/>
<path d="M109.856 55.0687C109.637 55.0687 109.44 54.8932 109.44 54.6518V54.2788C109.44 54.0593 109.616 53.8618 109.856 53.8618C110.097 53.8618 110.272 54.0374 110.272 54.2788V54.6518C110.25 54.8932 110.075 55.0687 109.856 55.0687ZM109.856 54.0154C109.681 54.0154 109.55 54.1471 109.55 54.3226V54.6957C109.55 54.8712 109.681 55.0029 109.856 55.0029C110.031 55.0029 110.163 54.8712 110.163 54.6957V54.3226C110.141 54.1471 110.009 54.0154 109.856 54.0154Z" fill="black"/>
<path d="M109.856 56.7137C109.637 56.7137 109.44 56.5382 109.44 56.2968V55.9238C109.44 55.7043 109.616 55.5068 109.856 55.5068C110.097 55.5068 110.272 55.6824 110.272 55.9238V56.2968C110.25 56.5382 110.075 56.7137 109.856 56.7137ZM109.856 55.6385C109.681 55.6385 109.55 55.7702 109.55 55.9457V56.3188C109.55 56.4943 109.681 56.626 109.856 56.626C110.031 56.626 110.163 56.4943 110.163 56.3188V55.9457C110.141 55.7921 110.009 55.6385 109.856 55.6385Z" fill="black"/>
<path d="M109.856 58.3597C109.637 58.3597 109.44 58.1842 109.44 57.9428V57.5698C109.44 57.3503 109.616 57.1528 109.856 57.1528C110.097 57.1528 110.272 57.3284 110.272 57.5698V57.9428C110.25 58.1842 110.075 58.3597 109.856 58.3597ZM109.856 57.2845C109.681 57.2845 109.55 57.4162 109.55 57.5917V57.9647C109.55 58.1403 109.681 58.272 109.856 58.272C110.031 58.272 110.163 58.1403 110.163 57.9647V57.5917C110.141 57.4381 110.009 57.2845 109.856 57.2845Z" fill="black"/>
<path d="M109.856 60.0057C109.637 60.0057 109.44 59.8302 109.44 59.5888V59.2158C109.44 58.9963 109.616 58.7988 109.856 58.7988C110.097 58.7988 110.272 58.9744 110.272 59.2158V59.5888C110.25 59.8302 110.075 60.0057 109.856 60.0057ZM109.856 58.9305C109.681 58.9305 109.55 59.0622 109.55 59.2377V59.6107C109.55 59.7863 109.681 59.9179 109.856 59.9179C110.031 59.9179 110.163 59.7863 110.163 59.6107V59.2377C110.141 59.0841 110.009 58.9305 109.856 58.9305Z" fill="black"/>
<path d="M109.856 61.6507C109.637 61.6507 109.44 61.4752 109.44 61.2338V60.8608C109.44 60.6413 109.616 60.4438 109.856 60.4438C110.097 60.4438 110.272 60.6194 110.272 60.8608V61.2338C110.25 61.4752 110.075 61.6507 109.856 61.6507ZM109.856 60.5755C109.681 60.5755 109.55 60.7072 109.55 60.8827V61.2558C109.55 61.4313 109.681 61.563 109.856 61.563C110.031 61.563 110.163 61.4313 110.163 61.2558V60.8827C110.141 60.7072 110.009 60.5755 109.856 60.5755Z" fill="black"/>
<path d="M109.856 63.2972C109.637 63.2972 109.44 63.1217 109.44 62.8803V62.5073C109.44 62.2878 109.616 62.0903 109.856 62.0903C110.097 62.0903 110.272 62.2659 110.272 62.5073V62.8803C110.25 63.1217 110.075 63.2972 109.856 63.2972ZM109.856 62.222C109.681 62.222 109.55 62.3537 109.55 62.5292V62.9022C109.55 63.0778 109.681 63.2094 109.856 63.2094C110.031 63.2094 110.163 63.0778 110.163 62.9022V62.5292C110.141 62.3537 110.009 62.222 109.856 62.222Z" fill="black"/>
<path d="M109.856 64.9432C109.637 64.9432 109.44 64.7677 109.44 64.5263V64.1533C109.44 63.9338 109.616 63.7363 109.856 63.7363C110.097 63.7363 110.272 63.9119 110.272 64.1533V64.5263C110.25 64.7677 110.075 64.9432 109.856 64.9432ZM109.856 63.868C109.681 63.868 109.55 63.9997 109.55 64.1752V64.5482C109.55 64.7238 109.681 64.8554 109.856 64.8554C110.031 64.8554 110.163 64.7238 110.163 64.5482V64.1752C110.141 63.9997 110.009 63.868 109.856 63.868Z" fill="black"/>
<path d="M109.856 66.5892C109.637 66.5892 109.44 66.4137 109.44 66.1723V65.7993C109.44 65.5798 109.616 65.3823 109.856 65.3823C110.097 65.3823 110.272 65.5579 110.272 65.7993V66.1723C110.25 66.4137 110.075 66.5892 109.856 66.5892ZM109.856 65.514C109.681 65.514 109.55 65.6456 109.55 65.8212V66.1942C109.55 66.3698 109.681 66.5014 109.856 66.5014C110.031 66.5014 110.163 66.3698 110.163 66.1942V65.8212C110.141 65.6456 110.009 65.514 109.856 65.514Z" fill="black"/>
<path d="M109.856 68.2342C109.637 68.2342 109.44 68.0587 109.44 67.8173V67.4443C109.44 67.2248 109.616 67.0273 109.856 67.0273C110.097 67.0273 110.272 67.2029 110.272 67.4443V67.8173C110.25 68.0587 110.075 68.2342 109.856 68.2342ZM109.856 67.159C109.681 67.159 109.55 67.2907 109.55 67.4662V67.8393C109.55 68.0148 109.681 68.1465 109.856 68.1465C110.031 68.1465 110.163 68.0148 110.163 67.8393V67.4662C110.141 67.2907 110.009 67.159 109.856 67.159Z" fill="black"/>
<path d="M109.856 69.8802C109.637 69.8802 109.44 69.7047 109.44 69.4633V69.0903C109.44 68.8708 109.616 68.6733 109.856 68.6733C110.097 68.6733 110.272 68.8489 110.272 69.0903V69.4633C110.25 69.7047 110.075 69.8802 109.856 69.8802ZM109.856 68.805C109.681 68.805 109.55 68.9367 109.55 69.1122V69.4852C109.55 69.6608 109.681 69.7925 109.856 69.7925C110.031 69.7925 110.163 69.6608 110.163 69.4852V69.1122C110.141 68.9367 110.009 68.805 109.856 68.805Z" fill="black"/>
<path d="M109.856 71.5267C109.637 71.5267 109.44 71.3512 109.44 71.1098V70.7368C109.44 70.5173 109.616 70.3198 109.856 70.3198C110.097 70.3198 110.272 70.4954 110.272 70.7368V71.1098C110.25 71.3512 110.075 71.5267 109.856 71.5267ZM109.856 70.4515C109.681 70.4515 109.55 70.5831 109.55 70.7587V71.1317C109.55 71.3073 109.681 71.4389 109.856 71.4389C110.031 71.4389 110.163 71.3073 110.163 71.1317V70.7587C110.141 70.5831 110.009 70.4515 109.856 70.4515Z" fill="black"/>
<path d="M109.856 73.1727C109.637 73.1727 109.44 72.9972 109.44 72.7558V72.3828C109.44 72.1633 109.616 71.9658 109.856 71.9658C110.097 71.9658 110.272 72.1414 110.272 72.3828V72.7558C110.25 72.9972 110.075 73.1727 109.856 73.1727ZM109.856 72.0975C109.681 72.0975 109.55 72.2291 109.55 72.4047V72.7777C109.55 72.9533 109.681 73.085 109.856 73.085C110.031 73.085 110.163 72.9533 110.163 72.7777V72.4047C110.141 72.2291 110.009 72.0975 109.856 72.0975Z" fill="black"/>
<path d="M89.6349 34.5506C89.4817 34.2653 89.2847 34.1117 88.9346 34.1117C88.5844 34.1117 88.2561 34.375 88.2561 34.7481C88.2561 35.0992 88.6063 35.2528 88.8908 35.3845L89.1534 35.4942C89.6786 35.7356 90.1163 35.9769 90.1163 36.6352C90.1163 37.3374 89.5473 37.886 88.847 37.886C88.1905 37.886 87.709 37.4691 87.5996 36.8327L88.0373 36.7011C88.103 37.118 88.4093 37.4472 88.847 37.4472C89.2847 37.4472 89.6786 37.118 89.6786 36.6572C89.6786 36.1744 89.3066 36.0208 88.9346 35.8453L88.6938 35.7356C88.2124 35.5161 87.8185 35.2747 87.8185 34.7042C87.8185 34.0678 88.3437 33.6729 88.9565 33.6729C89.416 33.6729 89.7881 33.8923 90.0069 34.3092L89.6349 34.5506Z" fill="#231F20"/>
<path d="M92.108 36.1751C92.108 36.4823 92.108 36.8114 92.2831 37.0747C92.4582 37.3161 92.8083 37.4697 93.0928 37.4697C93.3773 37.4697 93.7056 37.3381 93.8807 37.1186C94.0995 36.8553 94.0776 36.5042 94.0776 36.197V33.7832H94.5372V36.3067C94.5372 36.7456 94.5153 37.0967 94.1871 37.4258C93.9026 37.7331 93.5086 37.8867 93.0928 37.8867C92.7208 37.8867 92.3269 37.7331 92.0424 37.4697C91.6922 37.1406 91.6484 36.7675 91.6484 36.3067V33.7832H92.108V36.1751Z" fill="#231F20"/>
<path d="M96.0913 33.6074L99.2427 36.9209V33.783H99.7023V38.0181L96.5509 34.7265V37.8425H96.0913V33.6074Z" fill="#231F20"/>
<path d="M101.824 34.1996H101.999C102.524 34.1996 103.049 34.2435 103.049 34.9018C103.049 35.4723 102.634 35.6259 102.13 35.6259H101.824V34.1996ZM101.824 36.0429H102.152C102.48 36.0429 102.831 35.999 103.115 35.7796C103.356 35.5601 103.509 35.231 103.509 34.9018C103.509 34.5507 103.356 34.1996 103.049 33.9802C102.765 33.7827 102.393 33.7607 102.043 33.7607H101.386V37.7984H101.846V36.0429H101.824Z" fill="#231F20"/>
<path d="M110.753 36.8116L112.067 33.564L113.38 36.8116L114.43 33.7834H114.912L113.358 38.0405L112.045 34.7928L110.732 38.0405L109.178 33.7834H109.659L110.753 36.8116Z" fill="#231F20"/>
<path d="M115.895 33.7832H117.995V34.2001H116.354V35.407H117.952V35.824H116.354V37.4039H117.995V37.8208H115.895V33.7832Z" fill="#231F20"/>
<path d="M119.965 34.1996H120.096C120.643 34.1996 121.125 34.2654 121.125 34.9238C121.125 35.5601 120.621 35.6479 120.096 35.6479H119.965V34.1996ZM119.965 36.0429H120.074L121.3 37.8203H121.847L120.556 35.999C121.169 35.9551 121.563 35.5162 121.563 34.8799C121.563 33.9582 120.862 33.7607 120.096 33.7607H119.505V37.7984H119.965V36.0429Z" fill="#231F20"/>
<path d="M89.6349 34.5506C89.4817 34.2653 89.2847 34.1117 88.9346 34.1117C88.5844 34.1117 88.2561 34.375 88.2561 34.7481C88.2561 35.0992 88.6063 35.2528 88.8908 35.3845L89.1534 35.4942C89.6786 35.7356 90.1163 35.9769 90.1163 36.6352C90.1163 37.3374 89.5473 37.886 88.847 37.886C88.1905 37.886 87.709 37.4691 87.5996 36.8327L88.0373 36.7011C88.103 37.118 88.4093 37.4472 88.847 37.4472C89.2847 37.4472 89.6786 37.118 89.6786 36.6572C89.6786 36.1744 89.3066 36.0208 88.9346 35.8453L88.6938 35.7356C88.2124 35.5161 87.8185 35.2747 87.8185 34.7042C87.8185 34.0678 88.3437 33.6729 88.9565 33.6729C89.416 33.6729 89.7881 33.8923 90.0069 34.3092L89.6349 34.5506Z" fill="#231F20"/>
<path d="M92.108 36.1751C92.108 36.4823 92.108 36.8114 92.2831 37.0747C92.4582 37.3161 92.8083 37.4697 93.0928 37.4697C93.3773 37.4697 93.7056 37.3381 93.8807 37.1186C94.0995 36.8553 94.0776 36.5042 94.0776 36.197V33.7832H94.5372V36.3067C94.5372 36.7456 94.5153 37.0967 94.1871 37.4258C93.9026 37.7331 93.5086 37.8867 93.0928 37.8867C92.7208 37.8867 92.3269 37.7331 92.0424 37.4697C91.6922 37.1406 91.6484 36.7675 91.6484 36.3067V33.7832H92.108V36.1751Z" fill="#231F20"/>
<path d="M101.824 34.1996H101.999C102.524 34.1996 103.049 34.2435 103.049 34.9018C103.049 35.4723 102.634 35.6259 102.13 35.6259H101.824V34.1996ZM101.824 36.0429H102.152C102.48 36.0429 102.831 35.999 103.115 35.7796C103.356 35.5601 103.509 35.231 103.509 34.9018C103.509 34.5507 103.356 34.1996 103.049 33.9802C102.765 33.7827 102.393 33.7607 102.043 33.7607H101.386V37.7984H101.846V36.0429H101.824Z" fill="#231F20"/>
<path d="M110.753 36.8116L112.067 33.564L113.38 36.8116L114.43 33.7834H114.912L113.358 38.0405L112.045 34.7928L110.732 38.0405L109.178 33.7834H109.659L110.753 36.8116Z" fill="#231F20"/>
<path d="M115.895 33.7832H117.995V34.2001H116.354V35.407H117.952V35.824H116.354V37.4039H117.995V37.8208H115.895V33.7832Z" fill="#231F20"/>
<path d="M119.965 34.1996H120.096C120.643 34.1996 121.125 34.2654 121.125 34.9238C121.125 35.5601 120.621 35.6479 120.096 35.6479H119.965V34.1996ZM119.965 36.0429H120.074L121.3 37.8203H121.847L120.556 35.999C121.169 35.9551 121.563 35.5162 121.563 34.8799C121.563 33.9582 120.862 33.7607 120.096 33.7607H119.505V37.7984H119.965V36.0429Z" fill="#231F20"/>
<path d="M108.587 35.8019C108.587 36.9868 107.646 37.8865 106.464 37.8865C105.304 37.8865 104.385 36.9429 104.385 35.8238C104.385 34.6827 105.304 33.7392 106.464 33.7392C107.646 33.7172 108.587 34.6169 108.587 35.8019ZM104.844 35.8019C104.844 36.6577 105.523 37.4257 106.442 37.4257C107.383 37.4257 108.105 36.7235 108.105 35.8019C108.105 34.8583 107.383 34.1561 106.442 34.1561C105.523 34.178 104.844 34.9241 104.844 35.8019Z" fill="#231F20"/>
<path d="M101.365 50.5252H100.008C99.9647 50.5252 99.9209 50.4813 99.9209 50.4374V50.1083C99.9209 50.0644 99.9647 50.0205 100.008 50.0205H101.365C101.409 50.0205 101.453 50.0425 101.453 50.0863V50.1083V50.4374C101.453 50.5033 101.409 50.5252 101.365 50.5252ZM100.008 50.4155H101.343V50.1302H100.008V50.4155Z" fill="black"/>
<path d="M101.365 49.8226H100.008C99.9647 49.8226 99.9209 49.7787 99.9209 49.7348V49.4056C99.9209 49.3618 99.9647 49.3179 100.008 49.3179H101.365C101.409 49.3179 101.453 49.3398 101.453 49.3837V49.4056V49.7348C101.453 49.7787 101.409 49.8226 101.365 49.8226ZM100.008 49.7129H101.343V49.4276H100.008V49.7129Z" fill="black"/>
<path d="M101.365 49.0765H100.008C99.9642 49.0765 99.9204 49.0326 99.9204 48.9887V48.6596C99.9204 48.6157 99.9642 48.5718 100.008 48.5718H101.365C101.409 48.5718 101.452 48.5937 101.452 48.6376V48.6596V48.9887C101.452 49.0545 101.409 49.0765 101.365 49.0765ZM100.008 48.9668H101.343V48.6815H100.008V48.9668Z" fill="black"/>
<path d="M101.452 50.8993H99.8984C99.7014 50.8993 99.5264 50.7237 99.5264 50.5263V47.8272C99.5264 47.6297 99.7014 47.4542 99.8984 47.4542H100.205V47.2347C100.205 47.1689 100.249 47.125 100.314 47.125H100.993C101.058 47.125 101.102 47.1689 101.102 47.2347V47.4542H101.408C101.605 47.4542 101.78 47.6297 101.78 47.8272V50.5263C101.824 50.7237 101.649 50.8993 101.452 50.8993ZM99.8984 47.5858C99.7452 47.5858 99.6358 47.6955 99.6358 47.8491V50.5263C99.6358 50.6799 99.7452 50.7896 99.8984 50.7896H101.452C101.584 50.7896 101.715 50.6799 101.715 50.5263V47.8272C101.715 47.6955 101.605 47.5639 101.452 47.5639H101.036V47.2347H100.358V47.5639H99.8984V47.5858Z" fill="black"/>
<path d="M100.995 55.9687H100.032C99.9881 55.9687 99.9443 55.9249 99.9443 55.9029V55.6615C99.9443 55.6176 99.9881 55.5957 100.032 55.5957H100.995C101.039 55.5957 101.06 55.6176 101.082 55.6615V55.6835V55.9249C101.082 55.9468 101.039 55.9687 100.995 55.9687ZM100.054 55.859H100.973V55.6835H100.054V55.859Z" fill="black"/>
<path d="M100.995 55.3755H100.032C99.9881 55.3755 99.9443 55.3316 99.9443 55.3097V55.0683C99.9443 55.0244 99.9881 55.0024 100.032 55.0024H100.995C101.039 55.0024 101.06 55.0244 101.082 55.0683V55.0902V55.3316C101.082 55.3535 101.039 55.3755 100.995 55.3755ZM100.054 55.2658H100.973V55.0902H100.054V55.2658Z" fill="black"/>
<path d="M100.995 54.7602H100.032C99.9881 54.7602 99.9443 54.7164 99.9443 54.6944V54.453C99.9443 54.4091 99.9881 54.3872 100.032 54.3872H100.995C101.039 54.3872 101.06 54.4091 101.082 54.453V54.475V54.7164C101.082 54.7383 101.039 54.7602 100.995 54.7602ZM100.054 54.6505H100.973V54.475H100.054V54.6505Z" fill="black"/>
<path d="M101.062 56.2313H99.9456C99.7924 56.2313 99.6611 56.0996 99.6611 55.946V54.0369C99.6611 53.8833 99.7924 53.7516 99.9456 53.7516H100.143V53.62C100.143 53.5541 100.186 53.5103 100.252 53.5103H100.733C100.799 53.5103 100.843 53.5541 100.843 53.62V53.7516H101.04C101.193 53.7516 101.324 53.8833 101.324 54.0369V55.946C101.346 56.1215 101.215 56.2313 101.062 56.2313ZM99.9456 53.8833C99.8581 53.8833 99.7706 53.9491 99.7706 54.0588V55.9679C99.7706 56.0557 99.8362 56.1435 99.9456 56.1435H101.062C101.149 56.1435 101.237 56.0777 101.237 55.9679V54.0369C101.237 53.9491 101.171 53.8613 101.062 53.8613H100.755V53.62H100.274V53.8613H99.9456V53.8833Z" fill="black"/>
<path d="M102.699 53.5757H102.589V56.187H102.699V53.5757Z" fill="black"/>
<path d="M103.336 53.7964H101.979V53.9061H103.336V53.7964Z" fill="black"/>
<path d="M103.206 54.2349H102.112V54.3446H103.206V54.2349Z" fill="black"/>
<path d="M101.431 72.3167C100.775 72.3167 100.25 71.79 100.25 71.1317C100.25 70.4734 100.775 69.9468 101.431 69.9468C102.088 69.9468 102.613 70.4734 102.613 71.1317C102.613 71.79 102.066 72.3167 101.431 72.3167ZM101.431 70.0565C100.84 70.0565 100.359 70.5392 100.359 71.1317C100.359 71.7242 100.84 72.2069 101.431 72.2069C102.022 72.2069 102.504 71.7242 102.504 71.1317C102.504 70.5392 102.022 70.0565 101.431 70.0565Z" fill="black"/>
<path d="M101.539 70.4072H101.32V71.3069H101.539V70.4072Z" fill="black"/>
<path d="M101.432 71.8116C101.516 71.8116 101.585 71.7428 101.585 71.658C101.585 71.5732 101.516 71.5044 101.432 71.5044C101.347 71.5044 101.278 71.5732 101.278 71.658C101.278 71.7428 101.347 71.8116 101.432 71.8116Z" fill="black"/>
<path d="M102.045 67.0935H101.126C100.995 67.0935 100.885 66.9838 100.885 66.8521V64.57C100.885 64.4383 100.995 64.3286 101.126 64.3286H102.045C102.176 64.3286 102.286 64.4383 102.286 64.57V66.8521C102.286 66.9838 102.176 67.0935 102.045 67.0935ZM101.126 64.4383C101.06 64.4383 100.995 64.5042 100.995 64.57V66.8521C100.995 66.918 101.06 66.9838 101.126 66.9838H102.045C102.111 66.9838 102.176 66.918 102.176 66.8521V64.57C102.176 64.5042 102.111 64.4383 102.045 64.4383H101.126Z" fill="black"/>
<path d="M101.759 64.658H101.409C101.387 64.658 101.343 64.6361 101.343 64.5922C101.343 64.5703 101.365 64.5264 101.409 64.5264H101.759C101.781 64.5264 101.825 64.5483 101.825 64.5922C101.825 64.6361 101.803 64.658 101.759 64.658Z" fill="black"/>
<path d="M100.25 67.0935H99.3311C99.1998 67.0935 99.0903 66.9838 99.0903 66.8521V64.57C99.0903 64.4383 99.1998 64.3286 99.3311 64.3286H100.25C100.382 64.3286 100.491 64.4383 100.491 64.57V66.8521C100.469 66.9838 100.382 67.0935 100.25 67.0935ZM99.3092 64.4383C99.2435 64.4383 99.1779 64.5042 99.1779 64.57V66.8521C99.1779 66.918 99.2435 66.9838 99.3092 66.9838H100.228C100.294 66.9838 100.36 66.918 100.36 66.8521V64.57C100.36 64.5042 100.294 64.4383 100.228 64.4383H99.3092Z" fill="black"/>
<path d="M99.9641 64.658H99.592C99.5701 64.658 99.5264 64.6361 99.5264 64.5922C99.5264 64.5703 99.5483 64.5264 99.592 64.5264H99.9422C99.9641 64.5264 100.008 64.5483 100.008 64.5922C100.03 64.6361 99.9859 64.658 99.9641 64.658Z" fill="black"/>
<path d="M103.841 67.0935H102.921C102.79 67.0935 102.681 66.9838 102.681 66.8521V64.57C102.681 64.4383 102.79 64.3286 102.921 64.3286H103.841C103.972 64.3286 104.081 64.4383 104.081 64.57V66.8521C104.081 66.9838 103.972 67.0935 103.841 67.0935ZM102.921 64.4383C102.856 64.4383 102.79 64.5042 102.79 64.57V66.8521C102.79 66.918 102.856 66.9838 102.921 66.9838H103.841C103.906 66.9838 103.972 66.918 103.972 66.8521V64.57C103.972 64.5042 103.906 64.4383 103.841 64.4383H102.921Z" fill="black"/>
<path d="M103.552 64.658H103.202C103.18 64.658 103.136 64.6361 103.136 64.5922C103.136 64.5703 103.158 64.5264 103.202 64.5264H103.552C103.574 64.5264 103.618 64.5483 103.618 64.5922C103.618 64.6361 103.596 64.658 103.552 64.658Z" fill="black"/>
<path d="M101.301 65.7551C101.323 65.8868 101.454 65.9965 101.585 65.9965C101.673 65.9965 101.739 65.9746 101.782 65.9087L101.848 65.9965C101.782 66.0624 101.673 66.1062 101.585 66.1062C101.389 66.1062 101.213 65.9526 101.192 65.7771H101.104L101.257 65.5796L101.41 65.7771L101.301 65.7551Z" fill="black"/>
<path d="M101.977 65.6455C101.955 65.448 101.78 65.2944 101.583 65.2944C101.474 65.2944 101.386 65.3383 101.32 65.4042L101.386 65.4919C101.452 65.448 101.495 65.4042 101.583 65.4042C101.714 65.4042 101.846 65.5139 101.867 65.6455H101.78L101.911 65.843L102.064 65.6455H101.977Z" fill="black"/>
<path d="M103.051 65.7978C103.087 65.7978 103.116 65.7685 103.116 65.7324C103.116 65.6963 103.087 65.667 103.051 65.667C103.015 65.667 102.986 65.6963 102.986 65.7324C102.986 65.7685 103.015 65.7978 103.051 65.7978Z" fill="black"/>
<path d="M103.71 65.5786C103.746 65.5786 103.775 65.5493 103.775 65.5132C103.775 65.477 103.746 65.4478 103.71 65.4478C103.674 65.4478 103.645 65.477 103.645 65.5132C103.645 65.5493 103.674 65.5786 103.71 65.5786Z" fill="black"/>
<path d="M103.008 65.7779L103.271 66.0632L103.752 65.5585L103.643 65.4707L103.271 65.8437L103.096 65.6901L103.008 65.7779Z" fill="black"/>
<path d="M100.339 64.7245C100.472 64.7245 100.58 64.6164 100.58 64.4831C100.58 64.3498 100.472 64.2417 100.339 64.2417C100.206 64.2417 100.099 64.3498 100.099 64.4831C100.099 64.6164 100.206 64.7245 100.339 64.7245Z" fill="black"/>
<path d="M100.033 59.105C99.486 59.105 99.0483 59.5439 99.0483 60.0924C99.0483 60.641 99.486 61.0799 100.033 61.0799C100.58 61.0799 101.018 60.641 101.018 60.0924C100.996 59.5439 100.558 59.105 100.033 59.105ZM100.733 59.5439C100.668 59.5658 100.58 59.5877 100.515 59.5877C100.471 59.4341 100.383 59.3244 100.296 59.2366C100.471 59.2805 100.624 59.3902 100.733 59.5439ZM100.055 59.6975C100.186 59.6975 100.318 59.6975 100.449 59.6755C100.493 59.8072 100.493 59.9169 100.515 60.0486H100.077V59.6975H100.055ZM100.055 59.6097V59.1928C100.208 59.2147 100.34 59.3683 100.427 59.5877C100.318 59.6097 100.186 59.6097 100.055 59.6097ZM99.9894 59.1928V59.6097C99.8581 59.6097 99.7486 59.6097 99.6173 59.5877C99.7049 59.3683 99.8362 59.2147 99.9894 59.1928ZM99.9894 59.6975V60.0486H99.5517C99.5517 59.9169 99.5736 59.7852 99.6173 59.6755C99.7268 59.6975 99.8581 59.6975 99.9894 59.6975ZM99.4641 60.0486H99.1359C99.1359 59.895 99.2015 59.7413 99.2672 59.6097C99.3547 59.6316 99.4204 59.6536 99.5079 59.6755C99.486 59.7852 99.4641 59.9169 99.4641 60.0486ZM99.4641 60.1363C99.4641 60.268 99.486 60.3997 99.5298 60.5313C99.4423 60.5533 99.3547 60.5533 99.2891 60.5972C99.2015 60.4655 99.1578 60.3119 99.1578 60.1583H99.4641V60.1363ZM99.5298 60.1363H99.9675V60.4874C99.8362 60.4874 99.7049 60.4874 99.5736 60.5094C99.5517 60.3777 99.5298 60.2461 99.5298 60.1363ZM99.9894 60.5533V60.9702C99.8362 60.9483 99.7049 60.7946 99.6173 60.5752C99.7486 60.5752 99.8581 60.5533 99.9894 60.5533ZM100.055 60.9921V60.5752C100.186 60.5752 100.296 60.5752 100.427 60.5972C100.34 60.7946 100.208 60.9702 100.055 60.9921ZM100.055 60.4874V60.1363H100.493C100.493 60.268 100.471 60.3997 100.427 60.5094C100.318 60.4874 100.186 60.4874 100.055 60.4874ZM100.58 60.1363H100.909C100.909 60.2899 100.843 60.4435 100.777 60.5752C100.69 60.5533 100.624 60.5313 100.536 60.5094C100.558 60.3777 100.58 60.268 100.58 60.1363ZM100.58 60.0486C100.58 59.9169 100.558 59.7852 100.515 59.6536C100.602 59.6316 100.69 59.6316 100.755 59.5877C100.843 59.7194 100.887 59.873 100.887 60.0266H100.58V60.0486ZM99.7486 59.2366C99.6611 59.3244 99.5955 59.4341 99.5298 59.5877C99.4641 59.5877 99.3766 59.5658 99.311 59.5439C99.4204 59.3902 99.5736 59.2805 99.7486 59.2366ZM99.311 60.641C99.3766 60.6191 99.4641 60.5972 99.5298 60.5972C99.5736 60.7508 99.6611 60.8605 99.7486 60.9483C99.5736 60.8824 99.4204 60.7727 99.311 60.641ZM100.296 60.9483C100.383 60.8605 100.449 60.7508 100.515 60.5972C100.58 60.5972 100.668 60.6191 100.733 60.641C100.624 60.7727 100.471 60.8824 100.296 60.9483Z" fill="black"/>
<path d="M102.725 59.105C102.177 59.105 101.74 59.5439 101.74 60.0924C101.74 60.641 102.177 61.0799 102.725 61.0799C103.272 61.0799 103.709 60.641 103.709 60.0924C103.709 59.5439 103.272 59.105 102.725 59.105ZM103.447 59.5439C103.381 59.5658 103.294 59.5877 103.228 59.5877C103.184 59.4341 103.097 59.3244 103.009 59.2366C103.184 59.2805 103.337 59.3902 103.447 59.5439ZM102.768 59.6975C102.9 59.6975 103.031 59.6975 103.162 59.6755C103.206 59.8072 103.206 59.9169 103.228 60.0486H102.79V59.6975H102.768ZM102.768 59.6097V59.1928C102.922 59.2147 103.053 59.3683 103.14 59.5877C103.009 59.6097 102.9 59.6097 102.768 59.6097ZM102.703 59.1928V59.6097C102.571 59.6097 102.462 59.6097 102.331 59.5877C102.418 59.3683 102.549 59.2147 102.703 59.1928ZM102.703 59.6975V60.0486H102.265C102.265 59.9169 102.287 59.7852 102.331 59.6755C102.44 59.6975 102.571 59.6975 102.703 59.6975ZM102.177 60.0486H101.849C101.849 59.895 101.915 59.7413 101.98 59.6097C102.068 59.6316 102.134 59.6536 102.221 59.6755C102.199 59.7852 102.177 59.9169 102.177 60.0486ZM102.177 60.1363C102.177 60.268 102.199 60.3997 102.243 60.5313C102.156 60.5533 102.068 60.5533 102.002 60.5972C101.915 60.4655 101.871 60.3119 101.871 60.1583H102.177V60.1363ZM102.243 60.1363H102.681V60.4874C102.549 60.4874 102.418 60.4874 102.287 60.5094C102.265 60.3777 102.243 60.2461 102.243 60.1363ZM102.703 60.5533V60.9702C102.549 60.9483 102.418 60.7946 102.331 60.5752C102.44 60.5752 102.571 60.5533 102.703 60.5533ZM102.768 60.9921V60.5752C102.9 60.5752 103.009 60.5752 103.14 60.5972C103.053 60.7946 102.922 60.9702 102.768 60.9921ZM102.768 60.4874V60.1363H103.206C103.206 60.268 103.184 60.3997 103.14 60.5094C103.031 60.4874 102.9 60.4874 102.768 60.4874ZM103.294 60.1363H103.622C103.622 60.2899 103.556 60.4435 103.491 60.5752C103.403 60.5533 103.337 60.5313 103.25 60.5094C103.272 60.3777 103.294 60.268 103.294 60.1363ZM103.294 60.0486C103.294 59.9169 103.272 59.7852 103.228 59.6536C103.315 59.6316 103.403 59.6316 103.469 59.5877C103.556 59.7194 103.6 59.873 103.6 60.0266H103.294V60.0486ZM102.462 59.2366C102.374 59.3244 102.309 59.4341 102.243 59.5877C102.177 59.5877 102.09 59.5658 102.024 59.5439C102.134 59.3902 102.287 59.2805 102.462 59.2366ZM102.024 60.641C102.09 60.6191 102.177 60.5972 102.243 60.5972C102.287 60.7508 102.374 60.8605 102.462 60.9483C102.287 60.8824 102.134 60.7727 102.024 60.641ZM103.009 60.9483C103.097 60.8605 103.162 60.7508 103.228 60.5972C103.294 60.5972 103.381 60.6191 103.447 60.641C103.337 60.7727 103.184 60.8824 103.009 60.9483Z" fill="black"/>
<path d="M101.697 61.1692C101.675 61.1692 101.631 61.1473 101.609 61.1253C101.565 61.0814 101.565 61.0156 101.609 60.9717L103.688 59.0188C103.732 58.9749 103.797 58.9749 103.841 59.0188C103.885 59.0626 103.885 59.1285 103.841 59.1724L101.762 61.1253C101.74 61.1692 101.718 61.1692 101.697 61.1692Z" fill="black"/>
</g>
<g filter="url(#filter1_d)">
<rect x="6.71191" y="166" width="69.4955" height="35.7244" rx="3" fill="#FCC50C" stroke="white" stroke-width="4"/>
<path d="M31.515 189.457H28.8217L24.474 181.896H24.4125C24.4991 183.232 24.5424 184.184 24.5424 184.754V189.457H22.6488V179.463H25.3217L29.6625 186.948H29.7103C29.642 185.649 29.6078 184.731 29.6078 184.193V179.463H31.515V189.457ZM40.9133 189.457H35.1575V179.463H40.9133V181.199H37.2766V183.394H40.6604V185.13H37.2766V187.707H40.9133V189.457ZM53.8595 189.457H51.4464L50.0929 184.207C50.0428 184.02 49.9562 183.635 49.8331 183.052C49.7147 182.464 49.6463 182.07 49.6281 181.869C49.6007 182.115 49.5324 182.512 49.423 183.059C49.3136 183.601 49.2293 183.988 49.1701 184.221L47.8234 189.457H45.4171L42.8673 179.463H44.9523L46.2306 184.918C46.4539 185.925 46.6157 186.798 46.716 187.536C46.7433 187.276 46.8048 186.875 46.9005 186.333C47.0008 185.786 47.0942 185.362 47.1808 185.062L48.6369 179.463H50.6398L52.0958 185.062C52.1596 185.312 52.2394 185.695 52.3351 186.21C52.4308 186.725 52.5037 187.167 52.5538 187.536C52.5994 187.181 52.6723 186.739 52.7726 186.21C52.8729 185.677 52.964 185.246 53.046 184.918L54.3175 179.463H56.4025L53.8595 189.457ZM60.3662 186.142H58.6983L58.3496 179.463H60.7149L60.3662 186.142ZM58.3223 188.479C58.3223 188.097 58.4248 187.807 58.6299 187.611C58.835 187.415 59.1335 187.317 59.5254 187.317C59.9037 187.317 60.1953 187.418 60.4004 187.618C60.61 187.819 60.7149 188.106 60.7149 188.479C60.7149 188.84 60.61 189.124 60.4004 189.334C60.1908 189.539 59.8991 189.642 59.5254 189.642C59.1426 189.642 58.8464 189.541 58.6367 189.341C58.4271 189.136 58.3223 188.849 58.3223 188.479Z" fill="black"/>
</g>
<defs>
<filter id="filter0_d" x="42.4087" y="0.566406" width="116.591" height="270.433" filterUnits="userSpaceOnUse" color-interpolation-filters="sRGB">
<feFlood flood-opacity="0" result="BackgroundImageFix"/>
<feColorMatrix in="SourceAlpha" type="matrix" values="0 0 0 0 0 0 0 0 0 0 0 0 0 0 0 0 0 0 127 0"/>
<feOffset dx="-4" dy="4"/>
<feGaussianBlur stdDeviation="3.5"/>
<feColorMatrix type="matrix" values="0 0 0 0 0.568627 0 0 0 0 0.596078 0 0 0 0 0.639216 0 0 0 0.2 0"/>
<feBlend mode="normal" in2="BackgroundImageFix" result="effect1_dropShadow"/>
<feBlend mode="normal" in="SourceGraphic" in2="effect1_dropShadow" result="shape"/>
</filter>
<filter id="filter1_d" x="0.711914" y="164" width="81.4955" height="47.7244" filterUnits="userSpaceOnUse" color-interpolation-filters="sRGB">
<feFlood flood-opacity="0" result="BackgroundImageFix"/>
<feColorMatrix in="SourceAlpha" type="matrix" values="0 0 0 0 0 0 0 0 0 0 0 0 0 0 0 0 0 0 127 0"/>
<feOffset dy="4"/>
<feGaussianBlur stdDeviation="2"/>
<feColorMatrix type="matrix" values="0 0 0 0 0 0 0 0 0 0 0 0 0 0 0 0 0 0 0.25 0"/>
<feBlend mode="normal" in2="BackgroundImageFix" result="effect1_dropShadow"/>
<feBlend mode="normal" in="SourceGraphic" in2="effect1_dropShadow" result="shape"/>
</filter>
</defs>
</svg>
