<svg width="33" height="30" viewBox="0 0 33 30" fill="none" xmlns="http://www.w3.org/2000/svg">
<path d="M8.47505 23.4755V29.0905C8.47505 29.5718 8.10427 29.9461 7.62754 29.9461C7.15082 29.9461 6.78003 29.5718 6.78003 29.0905V23.4755C6.78003 22.9942 7.15082 22.5664 7.62754 22.5664C8.10427 22.5664 8.47505 22.9942 8.47505 23.4755ZM15.2022 22.6199C14.7255 22.6199 14.3017 22.9942 14.3017 23.529V29.1439C14.3017 29.6252 14.6725 29.9996 15.2022 29.9996C15.6789 29.9996 16.0497 29.6252 16.0497 29.1439V23.4755C16.0497 22.9942 15.6789 22.6199 15.2022 22.6199ZM22.7239 22.6199C22.2471 22.6199 21.8763 22.9942 21.8763 23.529V24.9193C21.8763 25.4006 22.2471 25.775 22.7239 25.775C23.2006 25.775 23.5714 25.4006 23.5714 24.9193V23.529C23.6243 22.9942 23.2535 22.6199 22.7239 22.6199ZM22.7239 26.4701C22.2471 26.4701 21.8763 26.898 21.8763 27.3792C21.8763 27.8605 22.2471 28.2883 22.7239 28.2883C23.2006 28.2883 23.5714 27.914 23.5714 27.3792C23.6243 26.8445 23.2535 26.4701 22.7239 26.4701ZM11.3884 22.6199C10.9117 22.6199 10.5409 22.9942 10.5409 23.529V24.9193C10.5409 25.4006 10.9117 25.775 11.3884 25.775C11.8651 25.775 12.2889 25.4006 12.2889 24.9193V23.529C12.2889 22.9942 11.8651 22.6199 11.3884 22.6199ZM11.3884 26.4701C10.9117 26.4701 10.5409 26.898 10.5409 27.3792C10.5409 27.8605 10.9117 28.2883 11.3884 28.2883C11.8651 28.2883 12.2889 27.914 12.2889 27.3792C12.2889 26.8445 11.8651 26.4701 11.3884 26.4701ZM26.5377 22.6199C26.0609 22.6199 25.6372 22.9942 25.6372 23.529V26.3632C25.6372 26.8445 26.008 27.2723 26.5377 27.2723C27.0144 27.2723 27.4381 26.898 27.4381 26.3632V23.529C27.3852 22.9942 27.0144 22.6199 26.5377 22.6199ZM18.963 22.6199C18.4863 22.6199 18.0625 22.9942 18.0625 23.529V26.3632C18.0625 26.8445 18.4333 27.2723 18.963 27.2723C19.4397 27.2723 19.8105 26.898 19.8105 26.3632V23.529C19.8105 22.9942 19.4397 22.6199 18.963 22.6199Z" fill="#92BCCD"/>
<path d="M29.1862 9.83957C29.2392 9.67914 29.2392 9.46524 29.2392 9.30481C29.3451 8.18182 29.0803 7.3262 29.0803 7.3262C28.3917 4.91979 26.3258 3.1016 23.7833 2.78075C22.7239 2.56684 21.9294 2.83422 21.9294 2.83422C21.2937 2.94118 20.6581 3.15508 20.0754 3.47594C18.5393 1.3369 16.1027 0 13.4543 0C9.05779 0 5.45586 3.63636 5.45586 8.12834C5.45586 8.55615 5.45586 8.98396 5.61477 9.46524C2.48957 9.57219 0 12.1925 0 15.3476C0 18.6096 2.59551 21.2299 5.82665 21.2299H27.1734C30.4045 21.2299 33 18.6096 33 15.3476C33 12.8877 31.4109 10.6952 29.1862 9.83957ZM27.2793 19.3583H5.82665C3.60193 19.3583 1.74799 17.4866 1.74799 15.2406C1.74799 12.9947 3.54896 11.123 5.82665 11.123H7.89246L7.52167 9.94652C7.30979 9.30481 7.20385 8.6631 7.20385 8.02139C7.20385 4.54545 10.0112 1.71123 13.4543 1.71123C15.7849 1.71123 17.9037 2.99465 19.0161 5.08021L19.4928 5.98931L20.2873 5.34759C20.7111 5.02674 21.2408 4.81283 21.7175 4.65241C22.1413 4.49198 22.618 4.4385 23.0417 4.4385C23.1477 4.4385 23.3066 4.4385 23.4655 4.4385C25.3724 4.65241 26.9085 6.04278 27.3852 7.86096C27.4912 8.23529 27.5441 8.6631 27.5441 9.03743C27.5441 9.25134 27.5441 9.46524 27.4912 9.67915C27.4382 9.83957 27.4382 10 27.3852 10.1604L27.1734 11.0695L28.0738 11.2834C29.9807 11.7112 31.305 13.369 31.3579 15.2406C31.3579 17.4866 29.557 19.3583 27.2793 19.3583Z" fill="#92BCCD"/>
</svg>
