<svg width="35" height="27" viewBox="0 0 35 27" fill="none" xmlns="http://www.w3.org/2000/svg">
<g clip-path="url(#clip97)">
<path d="M33.8882 17.9094H0.236796C0.157864 17.9094 0.105243 17.8823 0.0526214 17.828C0 17.7737 0 17.6922 0 17.6107L1.63126 9.03038C1.65758 8.89462 1.78913 8.81316 1.92068 8.84031C2.05224 8.86747 2.13117 9.00323 2.10486 9.139L0.526214 17.4207H33.8619C33.9934 17.4207 34.0987 17.5293 34.0987 17.665C34.0987 17.8008 34.0198 17.9094 33.8882 17.9094ZM33.7567 17.7194C33.6514 17.7194 33.5462 17.6379 33.5199 17.5021L30.3099 0.803017H3.73612L1.76282 10.8768C1.73651 11.0126 1.60495 11.094 1.4734 11.0669C1.34185 11.0397 1.26291 10.9039 1.28923 10.7682L3.28884 0.477181C3.31515 0.368568 3.39408 0.287109 3.52564 0.287109H30.5204C30.6257 0.287109 30.7309 0.368568 30.7572 0.504334L33.9934 17.4207C34.0198 17.5564 33.9408 17.6922 33.8093 17.7194C33.783 17.7194 33.783 17.7194 33.7567 17.7194Z" fill="#FFE600"/>
<path d="M31.1001 5.14774H2.895C2.76345 5.14774 2.6582 5.03913 2.6582 4.90337C2.6582 4.7676 2.76345 4.63184 2.895 4.63184H31.1001C31.2316 4.63184 31.3369 4.74045 31.3369 4.87621C31.3369 5.01198 31.2316 5.14774 31.1001 5.14774Z" fill="#FFE600"/>
<path d="M26.1532 17.9371C26.0216 17.9371 25.9164 17.8556 25.9164 17.7198L23.7326 0.586266C23.7063 0.450501 23.8115 0.314736 23.9431 0.314736C24.0746 0.287583 24.2062 0.396195 24.2062 0.53196L26.39 17.6655C26.4163 17.8013 26.311 17.9371 26.1795 17.9371H26.1532Z" fill="#FFE600"/>
<path d="M32.2037 9.51903H1.76219C1.63063 9.51903 1.52539 9.41042 1.52539 9.27465C1.52539 9.13889 1.63063 9.03027 1.76219 9.03027H32.2037C32.3352 9.03027 32.4405 9.13889 32.4405 9.27465C32.4668 9.41042 32.3352 9.51903 32.2037 9.51903Z" fill="#FFE600"/>
<path d="M16.7602 17.9366C16.6287 17.9366 16.5234 17.828 16.5234 17.6922V0.531487C16.5234 0.395721 16.6287 0.287109 16.7602 0.287109C16.8918 0.287109 16.997 0.395721 16.997 0.531487V17.665C16.997 17.828 16.8918 17.9366 16.7602 17.9366Z" fill="#FFE600"/>
<path d="M32.9671 13.5923H1.02586C0.894305 13.5923 0.789062 13.4837 0.789062 13.3479C0.789062 13.2121 0.894305 13.1035 1.02586 13.1035H32.9934C33.1249 13.1035 33.2302 13.2121 33.2302 13.3479C33.2302 13.4837 33.0986 13.5923 32.9671 13.5923Z" fill="#FFE600"/>
<path d="M7.84046 17.9371H7.81415C7.6826 17.9099 7.57736 17.8013 7.60367 17.6655L9.78746 0.53196C9.81377 0.396195 9.91901 0.287583 10.0506 0.314736C10.1821 0.341889 10.2874 0.450501 10.2611 0.586266L8.07726 17.7198C8.07726 17.8556 7.97202 17.9371 7.84046 17.9371Z" fill="#FFE600"/>
<path d="M19.2331 21.0855H14.7602C14.6287 21.0855 14.5234 20.9769 14.5234 20.8411V18.2073C14.5234 18.0715 14.6287 17.9629 14.7602 17.9629H19.2331C19.3646 17.9629 19.4699 18.0715 19.4699 18.2073V20.8411C19.4962 20.9769 19.3909 21.0855 19.2331 21.0855ZM15.0233 20.5696H18.9963V18.4516H15.0233V20.5696Z" fill="white"/>
<path d="M19.2325 21.358H14.7597C14.4703 21.358 14.2598 21.1137 14.2598 20.8421V18.2083C14.2598 17.9096 14.4966 17.6924 14.7597 17.6924H19.2325C19.5219 17.6924 19.7324 17.9368 19.7324 18.2083V20.8421C19.7587 21.1137 19.5219 21.358 19.2325 21.358ZM15.2859 20.2991H18.7326V18.7242H15.2859V20.2991Z" fill="white"/>
<path d="M20.6013 26.136H13.4184C13.2869 26.136 13.1816 26.0274 13.1816 25.8917V23.5022C13.1816 23.3664 13.2869 23.2578 13.4184 23.2578H20.6276C20.7591 23.2578 20.8644 23.3664 20.8644 23.5022V25.8917C20.8644 26.0274 20.7591 26.136 20.6013 26.136ZM13.6552 25.6201H20.3645V23.7194H13.6552V25.6201Z" fill="white"/>
<path d="M20.6007 26.4086H13.4179C13.1285 26.4086 12.918 26.1642 12.918 25.8927V23.5032C12.918 23.2045 13.1548 22.9873 13.4179 22.9873H20.627C20.9164 22.9873 21.1269 23.2317 21.1269 23.5032V25.8927C21.1269 26.1642 20.8901 26.4086 20.6007 26.4086ZM13.9178 25.3496H20.1008V23.992H13.9178V25.3496Z" fill="white"/>
<path d="M17.9963 23.7191H16.0493C15.9177 23.7191 15.8125 23.6105 15.8125 23.4747V20.8137C15.8125 20.6779 15.9177 20.5693 16.0493 20.5693H17.9963C18.1278 20.5693 18.2331 20.6779 18.2331 20.8137V23.4747C18.2331 23.6105 18.1278 23.7191 17.9963 23.7191ZM16.2861 23.2303H17.7332V21.0852H16.2861V23.2303Z" fill="white"/>
<path d="M17.9957 23.9916H16.0487C15.7593 23.9916 15.5488 23.7473 15.5488 23.4757V20.8147C15.5488 20.5161 15.7856 20.2988 16.0487 20.2988H17.9957C18.2851 20.2988 18.4956 20.5432 18.4956 20.8147V23.4757C18.4956 23.7744 18.2588 23.9916 17.9957 23.9916ZM16.5486 22.9598H17.4695V21.3578H16.5486V22.9598Z" fill="white"/>
</g>
<defs>
<clipPath id="clip97">
<rect width="34.125" height="26.1212" fill="white" transform="translate(0 0.287109)"/>
</clipPath>
</defs>
</svg>
