<svg width="30" height="30" viewBox="0 0 30 30" fill="none" xmlns="http://www.w3.org/2000/svg">
<path class="fill" d="M15 22.2125L22.725 26.875L20.675 18.0875L27.5 12.175L18.5125 11.4125L15 3.125L11.4875 11.4125L2.5 12.175L9.325 18.0875L7.275 26.875L15 22.2125Z" />
<path class="outline" d="M27.6118 10.9L19.6775 9.74689L16.1306 2.55626C16.0337 2.35939 15.8743 2.20001 15.6775 2.10314C15.1837 1.85939 14.5837 2.06251 14.3368 2.55626L10.79 9.74689L2.85558 10.9C2.63683 10.9313 2.43683 11.0344 2.2837 11.1906C2.09858 11.3809 1.99657 11.6369 2.00009 11.9023C2.0036 12.1678 2.11236 12.421 2.30245 12.6063L8.04308 18.2031L6.68683 26.1063C6.65502 26.2901 6.67537 26.4792 6.74555 26.6521C6.81574 26.8249 6.93296 26.9747 7.08392 27.0843C7.23488 27.194 7.41354 27.2591 7.59964 27.2724C7.78574 27.2856 7.97184 27.2465 8.13683 27.1594L15.2337 23.4281L22.3306 27.1594C22.5243 27.2625 22.7493 27.2969 22.965 27.2594C23.5087 27.1656 23.8743 26.65 23.7806 26.1063L22.4243 18.2031L28.165 12.6063C28.3212 12.4531 28.4243 12.2531 28.4556 12.0344C28.54 11.4875 28.1587 10.9813 27.6118 10.9V10.9ZM20.0087 17.4156L21.1368 23.9875L15.2337 20.8875L9.33058 23.9906L10.4587 17.4188L5.6837 12.7625L12.2837 11.8031L15.2337 5.82501L18.1837 11.8031L24.7837 12.7625L20.0087 17.4156Z" fill="black"/>
</svg>
