<svg width="23" height="29" viewBox="0 0 23 29" fill="none" xmlns="http://www.w3.org/2000/svg">
<path d="M19.3977 3.10288H16.3803C16.2326 1.37243 14.7859 0 13.0263 0H9.76674C8.00707 0 6.56627 1.37243 6.41274 3.10288H3.39533C1.54118 3.10288 0 4.63642 0 6.51008V9.1177C0 9.6786 0.478299 10.144 1.03336 10.144H2.24387V25.5928C2.24387 27.4665 3.72601 29 5.58606 29H17.2128C19.067 29 20.555 27.4665 20.555 25.5928V10.144H21.7655C22.3206 10.144 22.7989 9.6786 22.7989 9.1177V6.51008C22.793 4.63642 21.2518 3.10288 19.3977 3.10288ZM9.76674 2.02881H13.0263C13.6758 2.02881 14.2191 2.50617 14.3549 3.10288H8.43813C8.57395 2.50617 9.1172 2.02881 9.76674 2.02881ZM18.5415 25.5928C18.5415 26.3506 17.9569 26.9712 17.2069 26.9712H5.58606C4.83613 26.9712 4.25154 26.3506 4.25154 25.5928V10.144H18.5415V25.5928ZM20.7853 8.11523H2.00767V6.51008C2.00767 5.75226 2.6454 5.13169 3.39533 5.13169H19.3977C20.1476 5.13169 20.7853 5.75226 20.7853 6.51008V8.11523Z" fill="black"/>
<path d="M14.4081 23.665C14.9632 23.665 15.412 23.2115 15.412 22.6506V13.6999C15.412 13.139 14.9632 12.6855 14.4081 12.6855C13.8531 12.6855 13.4043 13.139 13.4043 13.6999V22.6506C13.4043 23.2115 13.8531 23.665 14.4081 23.665Z" fill="black"/>
<path d="M8.38665 23.665C8.94171 23.665 9.39049 23.2115 9.39049 22.6506V13.6999C9.39049 13.139 8.94171 12.6855 8.38665 12.6855C7.83159 12.6855 7.38281 13.139 7.38281 13.6999V22.6506C7.38281 23.2115 7.83159 23.665 8.38665 23.665Z" fill="black"/>
</svg>
