<svg width="14" height="29" viewBox="0 0 14 29" fill="none" xmlns="http://www.w3.org/2000/svg">
<path d="M3.72696 29L3.75085 16.4685H0.724687C0.334471 16.4685 0.0159272 16.1254 0.00796359 15.7051L0 11.6652C0 11.2363 0.318544 10.8932 0.716724 10.8932H3.73493V6.99911C3.72696 2.47027 6.2992 0 10.0501 0H13.124C13.5142 0 13.8407 0.343094 13.8407 0.771961V4.17717C13.8407 4.59746 13.5222 4.94913 13.124 4.94913H11.2366C9.19795 4.94913 8.79977 5.99556 8.79977 7.52233V10.8932H13.2833C13.7133 10.8932 14.0398 11.2964 13.992 11.751L13.5461 15.7909C13.5063 16.1769 13.1957 16.4685 12.8373 16.4685H8.8157L8.79181 29" fill="#838B98" opacity="0.5"/>
</svg>
