<svg width="27" height="27" viewBox="0 0 27 27" opacity="0.5" fill="none" xmlns="http://www.w3.org/2000/svg">
<path d="M8.0412 0H18.9539C23.3935 0 27 3.60653 27 8.0461V18.9588C27 23.3935 23.3935 27 18.9539 27H8.0412C3.60653 27 -0.00489807 23.3935 -0.00489807 18.9539V8.0461C1.90735e-06 3.60653 3.60653 0 8.0412 0ZM2.7147 18.9588C2.7147 21.8989 5.10109 24.2853 8.0412 24.2853H18.9539C21.894 24.2853 24.2804 21.8989 24.2804 18.9588V8.0461C24.2804 5.10599 21.894 2.7196 18.9539 2.7196H8.0412C5.10109 2.7196 2.7147 5.10599 2.7147 8.0461V18.9588Z" fill="#838B98"/>
<path d="M13.4997 6.51758C17.3512 6.51758 20.4824 9.64879 20.4824 13.5003C20.4824 17.3519 17.3512 20.4831 13.4997 20.4831C9.64812 20.4831 6.51691 17.3519 6.51691 13.5003C6.51691 9.64879 9.64812 6.51758 13.4997 6.51758ZM13.4997 17.7684C15.8567 17.7684 17.7677 15.8573 17.7677 13.5003C17.7677 11.1433 15.8567 9.23228 13.4997 9.23228C11.1427 9.23228 9.23161 11.1433 9.23161 13.5003C9.23161 15.8573 11.1427 17.7684 13.4997 17.7684Z" fill="#838B98"/>
<path d="M6.50287 8.24232C5.58002 8.24232 4.83191 7.4942 4.83191 6.57135C4.83191 5.64851 5.58002 4.90039 6.50287 4.90039C7.42571 4.90039 8.17383 5.64851 8.17383 6.57135C8.17383 7.4942 7.42571 8.24232 6.50287 8.24232Z" fill="#838B98"/>
</svg>
