<svg width="29" height="29" viewBox="0 0 29 29" fill="none" xmlns="http://www.w3.org/2000/svg">
<path d="M7.06863 28.0165C7.06863 28.5618 6.62745 29 6.07843 29H1.89216C1.34314 29 0.901961 28.5618 0.901961 28.0165V10.5463C0.901961 10.001 1.34314 9.56279 1.89216 9.56279H6.08824C6.63726 9.56279 7.07843 10.001 7.07843 10.5463V28.0165H7.06863ZM3.9902 7.91706C1.78431 7.91706 0 6.14473 0 3.9634C0 1.78207 1.78431 0 3.9902 0C6.19608 0 7.98039 1.77233 7.98039 3.9634C7.98039 6.15447 6.18628 7.91706 3.9902 7.91706ZM29 28.1041C29 28.6007 28.598 29 28.098 29H23.598C23.098 29 22.6961 28.6007 22.6961 28.1041V19.9046C22.6961 18.6776 23.0588 14.5487 19.4804 14.5487C16.7059 14.5487 16.1373 17.3825 16.0294 18.6484V28.1041C16.0294 28.6007 15.6275 29 15.1275 29H10.7745C10.2745 29 9.87255 28.6007 9.87255 28.1041V10.4684C9.87255 9.97179 10.2745 9.57253 10.7745 9.57253H15.1275C15.6275 9.57253 16.0294 9.97179 16.0294 10.4684V11.9973C17.0588 10.4587 18.5882 9.28039 21.8431 9.28039C29.0588 9.28039 29.0098 15.9705 29.0098 19.6514L29 28.1041Z" fill="#838B98" opacity="0.5"/>
</svg>
