<svg width="29" height="23" viewBox="0 0 29 23" fill="none" xmlns="http://www.w3.org/2000/svg">
<path opacity="0.5" d="M28.5354 2.67536C27.8922 2.94492 27.2207 3.16056 26.5351 3.31556C27.2914 2.62819 27.8569 1.77234 28.182 0.815412C28.2739 0.539115 27.9629 0.303252 27.7014 0.451509C26.7472 0.990624 25.7223 1.39496 24.6479 1.65778C24.5843 1.67126 24.5207 1.678 24.4571 1.678C24.2592 1.678 24.0683 1.61061 23.9199 1.48257C22.7819 0.525637 21.3117 0 19.785 0C19.1276 0 18.4562 0.101084 17.8059 0.289774C15.7844 0.88954 14.2152 2.48667 13.7275 4.4477C13.5437 5.18224 13.4943 5.92353 13.5791 6.64459C13.5862 6.72546 13.5508 6.78611 13.5225 6.81307C13.4801 6.86024 13.4165 6.8872 13.3529 6.8872C13.3458 6.8872 13.3388 6.8872 13.3317 6.8872C8.89286 6.49634 4.89225 4.45444 2.06497 1.14562C1.92361 0.977146 1.64088 0.997363 1.52779 1.18605C0.976465 2.08907 0.6796 3.12687 0.6796 4.18488C0.6796 5.80223 1.35815 7.32523 2.54561 8.43041C2.05083 8.31585 1.57019 8.14064 1.11783 7.90478C0.898714 7.79021 0.637191 7.93847 0.630122 8.17433C0.601849 10.5734 2.07204 12.7096 4.27732 13.6733C4.23491 13.6733 4.18543 13.6733 4.14302 13.6733C3.78961 13.6733 3.4362 13.6396 3.08986 13.579C2.84954 13.5318 2.64456 13.7542 2.71525 13.9833C3.42913 16.1195 5.35876 17.6897 7.66299 18.0469C5.74751 19.2734 3.52102 19.9203 1.20265 19.9203H0.48169C0.255507 19.9203 0.0717336 20.0618 0.0151879 20.264C-0.0413578 20.4662 0.0646654 20.6818 0.255507 20.7829C2.87075 22.2318 5.84646 23 8.87873 23C11.5293 23 14.0032 22.5013 16.2438 21.5107C18.2936 20.6077 20.1101 19.3071 21.6368 17.6628C23.0576 16.1263 24.1673 14.3539 24.9377 12.3929C25.6728 10.5262 26.0616 8.5315 26.0616 6.62438V6.53677C26.0616 6.23352 26.21 5.94375 26.4574 5.74832C27.4186 5.00703 28.2527 4.13097 28.9454 3.14708C29.1221 2.87079 28.8394 2.54732 28.5354 2.67536Z" fill="#838B98" opacity="0.5"/>
</svg>
