<svg width="322" height="322" viewBox="0 0 322 322" fill="none" xmlns="http://www.w3.org/2000/svg">
<g opacity="0.3">
<path d="M305 1H17C8.16344 1 1 8.16344 1 17V305C1 313.837 8.16344 321 17 321H305C313.837 321 321 313.837 321 305V17C321 8.16344 313.837 1 305 1Z" fill="#DEE7EE" stroke="#89969F" stroke-width="2"/>
<mask id="mask0" mask-type="alpha" maskUnits="userSpaceOnUse" x="0" y="0" width="322" height="322">
<path d="M305 1H17C8.16344 1 1 8.16344 1 17V305C1 313.837 8.16344 321 17 321H305C313.837 321 321 313.837 321 305V17C321 8.16344 313.837 1 305 1Z" fill="white" stroke="white" stroke-width="2"/>
</mask>
<g mask="url(#mask0)">
<path d="M233.862 -19H193.971L195.686 -17.5648C207.853 -7.3544 212.508 7.9404 208.139 23.3584C204.015 37.9152 192.869 48.9044 180.416 50.6676C178.333 50.9548 176.251 51.1188 174.251 51.1188C166.901 51.1188 159.552 49.1916 152.488 45.378C147.058 42.4668 141.75 39.0224 136.605 35.742C132.441 33.0764 128.154 30.288 123.785 27.7868C114.027 22.1692 102.839 19.2168 91.3657 19.2168C75.1157 19.2168 58.9877 24.9576 46.0037 35.3728C32.4892 46.198 23.67 61.288 21.1385 77.8132C18.1579 97.2904 22.4859 114.431 33.9999 128.7C43.5133 140.51 57.6405 150.31 77.1569 158.634C90.5901 164.375 113.496 177.004 115.537 196.933C117.334 214.278 106.187 230.803 89.0793 236.298C85.8537 237.323 82.4649 237.856 78.9945 237.856C66.1737 237.856 53.8841 230.967 41.9617 224.284C40.0837 223.217 38.2869 222.233 36.4906 221.249C24.7316 214.852 11.5843 211.449 -1.56287 211.449C-22.4678 211.449 -41.8619 219.773 -54.8867 234.33C-67.2175 248.148 -72.6479 266.027 -70.5655 286.037C-70.3611 288.005 -68.0747 301.086 -64.8491 309H-23.6518L-24.8767 307.852C-36.5541 296.74 -45.1283 278.369 -34.0226 260.081C-27.4898 249.378 -16.0983 243.474 -1.97116 243.474C4.6841 243.474 11.5843 244.827 17.913 247.41C24.2416 249.994 30.0395 253.397 35.6331 256.718C43.4317 261.311 51.4749 266.068 61.2333 268.733C68.2153 270.66 75.2789 271.644 82.2609 271.644C93.8973 271.644 104.881 269.02 114.966 263.812C125.295 258.482 134.074 250.732 141.097 240.768C150.529 227.359 153.958 210.137 150.692 192.34C147.221 173.232 136.646 156.461 121.662 146.374C113.455 140.838 102.594 133.826 91.4065 128.824C82.6281 124.887 70.0937 118.654 62.4993 109.674C54.9049 100.735 53.1493 90.4428 57.0689 78.1412C61.5601 64.1584 76.1773 54.3992 92.6317 54.3992C94.4281 54.3992 96.1837 54.522 97.9393 54.7684C108.351 56.2032 117.293 62.0672 126.725 68.3C135.135 73.8356 143.832 79.5352 153.836 81.9956C159.879 83.472 165.881 84.21 171.719 84.21C187.03 84.21 201.484 79.0432 213.529 69.3252C224.104 60.7548 232.556 48.8224 237.21 35.742C242.641 20.5288 241.252 6.054 239.089 -3.418C237.415 -10.922 235.087 -16.4168 233.862 -19Z" fill="#B8C5D0"/>
<path d="M124.138 53H164.029L162.314 54.4352C150.147 64.6456 145.492 79.9404 149.861 95.3584C153.985 109.915 165.131 120.904 177.584 122.668C179.667 122.955 181.749 123.119 183.75 123.119C191.099 123.119 198.448 121.192 205.512 117.378C210.942 114.467 216.25 111.022 221.395 107.742C225.559 105.076 229.846 102.288 234.215 99.7868C243.974 94.1692 255.161 91.2168 266.634 91.2168C282.884 91.2168 299.012 96.9576 311.996 107.373C325.511 118.198 334.33 133.288 336.862 149.813C339.842 169.29 335.514 186.431 324 200.7C314.487 212.51 300.36 222.31 280.843 230.634C267.41 236.375 244.504 249.004 242.463 268.933C240.666 286.278 251.813 302.803 268.921 308.298C272.146 309.323 275.535 309.856 279.006 309.856C291.826 309.856 304.116 302.967 316.038 296.284C317.916 295.217 319.713 294.233 321.51 293.249C333.268 286.852 346.416 283.449 359.563 283.449C380.468 283.449 399.864 291.773 412.888 306.33C425.216 320.148 430.648 338.028 428.564 358.036C428.36 360.004 426.076 373.084 422.848 381H381.652L382.877 379.852C394.554 368.74 403.128 350.368 392.023 332.08C385.49 321.38 374.098 315.472 359.971 315.472C353.316 315.472 346.416 316.828 340.087 319.412C333.758 321.992 327.961 325.396 322.367 328.72C314.568 333.312 306.525 338.068 296.767 340.732C289.785 342.66 282.721 343.644 275.739 343.644C264.103 343.644 253.12 341.02 243.034 335.812C232.705 330.48 223.926 322.732 216.904 312.768C207.472 299.359 204.042 282.137 207.308 264.34C210.779 245.232 221.354 228.461 236.338 218.374C244.545 212.838 255.406 205.826 266.594 200.824C275.372 196.887 287.906 190.654 295.501 181.674C303.095 172.735 304.851 162.443 300.931 150.141C296.44 136.158 281.823 126.399 265.368 126.399C263.572 126.399 261.816 126.522 260.061 126.768C249.649 128.203 240.707 134.067 231.276 140.3C222.865 145.836 214.168 151.535 204.164 153.996C198.122 155.472 192.12 156.21 186.281 156.21C170.97 156.21 156.516 151.043 144.471 141.325C133.896 132.755 125.444 120.822 120.79 107.742C115.36 92.5288 116.748 78.054 118.912 68.582C120.586 61.078 122.913 55.5832 124.138 53Z" fill="#B8C5D0"/>
<path fill-rule="evenodd" clip-rule="evenodd" d="M186.834 169.16C193.983 169.224 200.814 172.126 205.822 177.227C210.83 182.328 213.606 189.211 213.538 196.36C213.538 211.36 191.842 242.24 186.834 242.24C181.826 242.24 160.134 211.36 160.134 196.36C160.065 189.212 162.84 182.329 167.847 177.227C172.855 172.126 179.686 169.224 186.834 169.16ZM186.834 184.44C191.667 184.349 196.074 187.19 197.989 191.628C199.903 196.066 198.943 201.221 195.56 204.674C192.178 208.126 187.043 209.19 182.567 207.366C178.091 205.543 175.161 201.194 175.154 196.36C175.096 189.847 180.321 184.515 186.834 184.44Z" fill="#89969F"/>
<path fill-rule="evenodd" clip-rule="evenodd" d="M66.2013 121.4C73.3501 121.464 80.1809 124.366 85.1893 129.467C90.1977 134.569 92.9737 141.452 92.9053 148.6C92.9053 163.6 71.2093 194.44 66.2013 194.44C61.1933 194.44 39.5013 163.6 39.5013 148.6C39.4321 141.452 42.2069 134.569 47.2145 129.467C52.2225 124.366 59.0529 121.464 66.2013 121.4ZM66.2013 136.68C71.0341 136.59 75.4417 139.43 77.3561 143.868C79.2701 148.306 78.3105 153.461 74.9277 156.914C71.5449 160.366 66.4105 161.43 61.9341 159.606C57.4581 157.783 54.5285 153.434 54.5213 148.6C54.4873 145.47 55.6993 142.455 57.8901 140.219C60.0809 137.983 63.0709 136.71 66.2013 136.68Z" fill="#89969F"/>
</g>
</g>
</svg>
