<svg width="36" height="36" viewBox="0 0 36 36" fill="none" xmlns="http://www.w3.org/2000/svg">
<path d="M28.5323 0H7.24282C3.23732 0 0 2.8354 0 6.31277V20.3293C0 23.8066 3.23732 26.642 7.24282 26.642H16.5158L25.0206 34.4527C25.5693 34.9342 26.2826 35.2017 26.9959 35.2017C27.38 35.2017 27.7641 35.1482 28.1482 34.9877C29.1907 34.5597 29.8492 33.5968 29.8492 32.5268V26.535C33.1962 25.9466 35.7203 23.3787 35.7203 20.3293V6.31277C35.7751 2.8354 32.5378 0 28.5323 0ZM33.1414 20.3293C33.1414 22.3622 31.0563 24.0741 28.5323 24.0741C27.819 24.0741 27.2703 24.6626 27.2703 25.3581V32.5268C27.2703 32.5268 27.2703 32.6338 27.1606 32.6873C27.1057 32.6873 26.9411 32.7408 26.8313 32.6338L17.8876 24.4486C17.6681 24.2346 17.3389 24.1276 17.0096 24.1276H7.24282C4.66393 24.1276 2.57888 22.4157 2.57888 20.3828V6.31277C2.57888 4.22635 4.66393 2.56791 7.24282 2.56791H28.5323C31.1112 2.56791 33.1962 4.27984 33.1962 6.31277V20.3293H33.1414Z" fill="#B4BEC4"/>
<path d="M9.38321 14.9799C10.7469 14.9799 11.8523 13.902 11.8523 12.5725C11.8523 11.2429 10.7469 10.165 9.38321 10.165C8.01954 10.165 6.91406 11.2429 6.91406 12.5725C6.91406 13.902 8.01954 14.9799 9.38321 14.9799Z" fill="#B4BEC4"/>
<path d="M17.8881 14.9799C19.2518 14.9799 20.3572 13.902 20.3572 12.5725C20.3572 11.2429 19.2518 10.165 17.8881 10.165C16.5244 10.165 15.4189 11.2429 15.4189 12.5725C15.4189 13.902 16.5244 14.9799 17.8881 14.9799Z" fill="#B4BEC4"/>
<path d="M26.392 14.9799C27.7557 14.9799 28.8611 13.902 28.8611 12.5725C28.8611 11.2429 27.7557 10.165 26.392 10.165C25.0283 10.165 23.9229 11.2429 23.9229 12.5725C23.9229 13.902 25.0283 14.9799 26.392 14.9799Z" fill="#B4BEC4"/>
</svg>
