<svg width="18" height="29" viewBox="0 0 18 29" fill="none" xmlns="http://www.w3.org/2000/svg">
<path d="M3.07031 24.6212V21.7461H14.9275V24.6212H3.07031Z" stroke="#F7921E"/>
<path d="M3.07031 19.4542V16.5791H14.9275V19.4542H3.07031Z" stroke="#F7921E"/>
<path d="M3.07031 14.2872V11.4121H14.9275V14.2872H3.07031Z" stroke="#F7921E"/>
<path opacity="0.1" d="M15.0158 5.74609H2.91866C2.72865 5.74609 2.57031 5.86264 2.57031 6.03746V9.32986C2.57031 9.47554 2.72865 9.62122 2.91866 9.62122H15.0791C15.2691 9.62122 15.4275 9.50467 15.4275 9.32986V6.00832C15.3641 5.86264 15.2058 5.74609 15.0158 5.74609Z" fill="#CDD1D4"/>
<path d="M15.4286 3.1843H12.381V1.08816C12.381 0.788715 12.127 0.579102 11.8413 0.579102H6.15873C5.84127 0.579102 5.61905 0.81866 5.61905 1.08816V3.1843H2.57143C1.14286 3.1843 0 4.26231 0 5.60982V26.5712C0 27.9187 1.14286 28.9967 2.57143 28.9967H15.4286H18V26.5712V5.60982C18 4.26231 16.8571 3.1843 15.4286 3.1843ZM16.8254 28.2481H2.7619C2.03175 28.2481 0.793651 27.6791 0.793651 26.9904V5.13071C0.793651 4.47192 2 3.90297 2.73016 3.90297H6.4127V1.35767H11.7143V3.90297H15.2381C15.9365 3.90297 16.9841 4.44198 16.9841 5.13071V28.0983H17.0159C16.9841 28.1882 16.9206 28.2481 16.8254 28.2481Z" fill="white"/>
</svg>
