<svg width="38" height="30" viewBox="0 0 38 30" fill="none" xmlns="http://www.w3.org/2000/svg">
<path d="M33.615 10.8655L36.0347 12.3244C36.3654 12.528 36.8006 12.4177 37.0008 12.0869L37.1662 11.8155C37.3577 11.4931 37.2532 11.086 36.9312 10.8909L18.9922 0.101784C18.7659 -0.0339281 18.4874 -0.0339281 18.2611 0.101784L11.6895 4.07137C11.2282 4.35128 10.6276 4.02896 10.6276 3.49459V2.25622C10.6276 1.88301 10.3143 1.57766 9.93131 1.57766H6.79787C6.41489 1.57766 6.10154 1.88301 6.10154 2.25622V7.04856C6.10154 7.28606 5.97969 7.50659 5.77079 7.62534L0.330776 10.8909C0.00872741 11.086 -0.0957208 11.4931 0.0957677 11.8155L0.261144 12.0869C0.461337 12.4177 0.896538 12.5195 1.22729 12.3244L3.64701 10.8655C4.10832 10.5856 4.7089 10.9079 4.7089 11.4423V26.8541C4.7089 27.2273 4.39556 27.5327 4.01258 27.5327H3.15967C2.77669 27.5327 2.46335 27.838 2.46335 28.2112V28.5505C2.46335 28.9237 2.77669 29.2291 3.15967 29.2291H4.7089H10.1054H18.1131H32.5618H34.6507C35.0337 29.2291 35.3471 28.9237 35.3471 28.5505V28.2112C35.3471 27.838 35.0337 27.5327 34.6507 27.5327H33.2581C32.8751 27.5327 32.5618 27.2273 32.5618 26.8541V11.4423C32.5531 10.9164 33.1537 10.5856 33.615 10.8655ZM7.83364 3.27406H8.87813V5.17404C8.87813 5.41153 8.74757 5.64055 8.52997 5.75929L7.83364 6.15795V3.27406ZM18.2698 2.12899C18.4961 1.99328 18.7746 1.99328 18.9922 2.12899L30.8993 9.21148H30.8123V26.7693C30.8123 27.1425 30.4989 27.4478 30.1159 27.4478H18.8007C18.4177 27.4478 18.1044 27.1425 18.1044 26.7693V13.4101C18.1044 13.0369 17.791 12.7315 17.4081 12.7315H10.793C10.41 12.7315 10.0967 13.0369 10.0967 13.4101V26.8541C10.0967 27.2273 9.78335 27.5327 9.40037 27.5327H7.13732C6.75435 27.5327 6.441 27.2273 6.441 26.8541V9.21148H6.35396L18.2698 2.12899ZM11.8375 27.5327V15.1065C11.8375 14.7333 12.1508 14.4279 12.5338 14.4279H15.6673C16.0502 14.4279 16.3636 14.7333 16.3636 15.1065V26.7693C16.3636 27.1425 16.0502 27.4478 15.6673 27.4478H11.8375V27.5327Z" fill="white"/>
</svg>
