<svg width="61" height="91" viewBox="0 0 61 91" fill="none" xmlns="http://www.w3.org/2000/svg">
<g clip-path="url(#clip96)">
<path d="M41.4441 42.7246C41.5307 42.3765 41.6172 42.0284 41.6172 41.6804V40.8102C41.6172 39.9401 41.2711 39.244 40.8383 38.6349C41.3576 38.0258 41.6172 37.2426 41.6172 36.4595V35.5893C41.6172 34.4582 41.098 33.501 40.3191 32.8919L42.7423 25.3216V25.2346C42.7423 25.1476 42.7423 25.1476 42.7423 25.0606C42.7423 24.9736 42.7423 24.9736 42.7423 24.8865C42.7423 24.7995 42.7423 24.7995 42.7423 24.7125C42.7423 24.6255 42.7423 24.6255 42.7423 24.5385C42.7423 24.4515 42.7423 24.4515 42.7423 24.3644C42.7423 24.2774 42.7423 24.2774 42.6558 24.1904C42.6558 24.1034 42.6558 24.1034 42.5692 24.0164C42.5692 23.9294 42.4827 23.9294 42.4827 23.9294L42.3961 23.8424L42.3096 23.7553L42.223 23.6683C42.1365 23.6683 42.1365 23.5813 42.0499 23.5813C42.0499 23.5813 41.9634 23.5813 41.9634 23.4943C41.7903 23.4073 41.6172 23.2333 41.4441 23.0592C40.8383 22.4501 40.0594 21.667 38.4151 21.667C36.7708 21.667 35.9919 22.5371 35.3861 23.0592C34.9534 23.4943 34.8668 23.5813 34.5206 23.5813C34.1745 23.5813 34.0879 23.4943 33.6552 23.0592C33.0494 22.4501 32.2705 21.667 30.6262 21.667C28.9818 21.667 28.2029 22.5371 27.5971 23.0592C27.1644 23.4943 27.0779 23.5813 26.7317 23.5813C26.3855 23.5813 26.299 23.4943 25.8663 23.0592C25.2605 22.4501 24.4816 21.667 22.8372 21.667C21.1929 21.667 20.3275 22.5371 19.8082 23.0592C19.6351 23.2333 19.5486 23.3203 19.3755 23.4943L19.2889 23.5813C18.6831 24.1034 18.5966 24.9736 19.0293 25.5827L21.366 32.8049C20.5005 33.414 19.9813 34.4582 19.9813 35.5893V36.4595C19.9813 37.3296 20.3275 38.0258 20.7602 38.6349C20.2409 39.244 19.9813 40.0271 19.9813 40.8102V41.6804C19.9813 42.0284 20.0678 42.3765 20.1544 42.7246C11.5865 47.4234 5.87463 57.343 5.87463 66.4796C5.87463 78.7486 15.6541 86.667 30.8858 86.667C46.1175 86.667 55.8104 78.7486 55.8104 66.4796C55.8104 57.343 50.0985 47.4234 41.4441 42.7246ZM22.9238 24.6255C23.2699 24.6255 23.3565 24.7125 23.7892 25.1476C24.395 25.6697 25.1739 26.5398 26.8182 26.5398C28.4626 26.5398 29.2415 25.6697 29.8473 25.1476C30.28 24.7125 30.4531 24.6255 30.7127 24.6255C31.0589 24.6255 31.1454 24.7125 31.5781 25.1476C32.184 25.6697 32.9629 26.5398 34.6072 26.5398C36.2515 26.5398 37.0304 25.6697 37.6362 25.1476C38.0689 24.7125 38.1555 24.6255 38.5017 24.6255C38.8478 24.6255 38.9344 24.7125 39.3671 25.1476L39.4536 25.2346L37.29 31.9347H24.3085L22.0583 24.9736C22.491 24.7125 22.6641 24.6255 22.9238 24.6255ZM38.0689 36.8946H23.5296C23.2699 36.8946 23.0103 36.6335 23.0103 36.3725V35.5023C23.0103 35.2413 23.2699 34.9802 23.5296 34.9802H38.0689C38.3286 34.9802 38.5882 35.2413 38.5882 35.5023V36.3725C38.5882 36.7205 38.4151 36.8946 38.0689 36.8946ZM38.5882 40.8972V41.7674C38.5882 42.0284 38.3286 42.2895 38.0689 42.2895H23.5296C23.2699 42.2895 23.0103 42.0284 23.0103 41.7674V40.8972C23.0103 40.6362 23.2699 40.3752 23.5296 40.3752H38.0689C38.4151 40.3752 38.5882 40.6362 38.5882 40.8972ZM30.7993 83.6215C20.1544 83.6215 8.81712 79.0967 8.81712 66.4796C8.81712 58.1262 14.1828 48.9896 22.318 45.074C22.6641 45.248 23.0969 45.335 23.5296 45.335H38.0689C38.5017 45.335 38.8478 45.248 39.2806 45.074C47.3291 48.9896 52.7814 58.1262 52.7814 66.4796C52.7814 79.0967 41.4441 83.6215 30.7993 83.6215Z" fill="#92BCCD"/>
<path d="M30.4509 0.5C31.2022 0.5 31.8113 1.10905 31.8113 1.86035V8.48056C31.8113 9.23186 31.2022 9.84091 30.4509 9.84091C29.6996 9.84091 29.0906 9.23186 29.0906 8.48056V1.86035C29.0906 1.10905 29.6996 0.5 30.4509 0.5Z" stroke="#92BCCD"/>
<path d="M42.5966 2.9238L42.5966 2.92389L42.6058 2.9275C43.3144 3.20467 43.6585 4.00861 43.3699 4.71261L40.8904 10.7604C40.6014 11.4653 39.7904 11.7962 39.0907 11.4946C38.4068 11.1998 38.0864 10.4103 38.3714 9.72226L40.8959 3.62829C41.171 2.96412 41.9324 2.64871 42.5966 2.9238Z" stroke="#92BCCD"/>
<path d="M52.9101 9.80665C53.4746 10.3744 53.4746 11.2914 52.9101 11.8592L48.3648 16.431C47.8273 16.9717 46.9525 16.9717 46.4149 16.431C45.8818 15.8948 45.8818 15.0287 46.4149 14.4924L51.0735 9.80666C51.5798 9.29741 52.4038 9.29741 52.9101 9.80665Z" stroke="#92BCCD"/>
<path d="M52.0083 21.9491L58.0544 19.4291C58.7526 19.1381 59.5522 19.4692 59.8403 20.1685C60.1284 20.8679 59.796 21.6708 59.0978 21.9618L53.0517 24.4818C52.3535 24.7728 51.5539 24.4417 51.2658 23.7423C50.9777 23.043 51.3101 22.2401 52.0083 21.9491Z" stroke="#92BCCD"/>
<path d="M2.98026 19.4289L9.02704 21.9482C9.7253 22.2391 10.0578 23.042 9.7698 23.7414C9.48175 24.4409 8.68219 24.7721 7.98393 24.4811L1.93714 21.9618C1.23888 21.6709 0.906338 20.868 1.19439 20.1686C1.48243 19.4691 2.28199 19.1379 2.98026 19.4289Z" stroke="#92BCCD"/>
<path d="M14.5849 14.4924C15.118 15.0287 15.118 15.8948 14.5849 16.431C14.0474 16.9717 13.1725 16.9717 12.635 16.431L8.08975 11.8592C7.52529 11.2914 7.52529 10.3744 8.08975 9.80665C8.59604 9.29741 9.42004 9.29741 9.92633 9.80665L14.5849 14.4924Z" stroke="#92BCCD"/>
<path d="M22.6284 9.72226C22.9135 10.4103 22.5931 11.1998 21.9091 11.4946C21.2095 11.7962 20.3984 11.4653 20.1094 10.7604L17.5955 4.62857C17.3228 3.96333 17.6381 3.20302 18.3008 2.92569C19.025 2.64523 19.8413 2.99411 20.1388 3.71221L22.6284 9.72226Z" stroke="#92BCCD"/>
<path d="M32.0297 54.2149H31.6943V52.1963H29.0118V54.2149H28.6765C26.8657 54.2149 25.4574 55.4261 25.4574 56.9064V61.6166C25.4574 63.0969 26.8657 64.3081 28.6765 64.3081H31.9626C32.2309 64.3081 32.365 64.3754 32.4991 64.4427V68.7491C32.432 68.8164 32.2309 68.8837 31.9626 68.8837H28.6765C28.4082 68.8837 28.2741 68.8164 28.14 68.7491V67.2015C28.14 66.4613 27.5364 65.8557 26.7987 65.8557C26.061 65.8557 25.4574 66.4613 25.4574 67.2015V68.8837C25.4574 70.364 26.8657 71.5752 28.6765 71.5752H29.0118V73.863H31.6943V71.5752H32.0297C33.8404 71.5752 35.2487 70.364 35.2487 68.8837V64.3081C35.2487 62.8278 33.8404 61.6166 32.0297 61.6166H28.7435C28.4753 61.6166 28.3411 61.5493 28.207 61.482V57.041C28.2741 56.9737 28.4753 56.9064 28.7435 56.9064H32.0297C32.2979 56.9064 32.432 56.9737 32.5662 57.041V58.1849C32.5662 58.9251 33.1697 59.5307 33.9075 59.5307C34.6452 59.5307 35.2487 58.9251 35.2487 58.1849V56.9064C35.2487 55.4261 33.8404 54.2149 32.0297 54.2149Z" fill="#92BCCD"/>
</g>
<defs>
<clipPath id="clip96">
<rect width="61" height="91" fill="white"/>
</clipPath>
</defs>
</svg>
