<svg width="22" height="22" viewBox="0 0 22 22" fill="none" xmlns="http://www.w3.org/2000/svg">
<path opacity="0.4" d="M11 21C5.47715 21 1 16.5228 1 11C1 5.47715 5.47715 1 11 1C16.5228 1 21 5.47715 21 11C21 16.5228 16.5228 21 11 21Z" stroke="#737F86"/>
<path opacity="0.4" d="M11.9986 5.81641C12.6616 5.81641 12.9926 6.26841 12.9926 6.78541C12.9926 7.43141 12.4171 8.02841 11.6671 8.02841C11.0391 8.02841 10.6726 7.65691 10.6901 7.04341C10.6901 6.52691 11.1261 5.81641 11.9986 5.81641Z" fill="#737F86"/>
<path opacity="0.4" d="M9.95563 15.7195C9.43213 15.7195 9.04813 15.3965 9.41462 13.9755L10.0156 11.455C10.1201 11.051 10.1376 10.89 10.0156 10.89C9.85862 10.89 9.17862 11.169 8.77713 11.4435L8.51562 11.0075C9.78912 9.92552 11.2546 9.29102 11.8821 9.29102C12.4051 9.29102 12.4926 9.92102 12.2311 10.89L11.5431 13.5395C11.4206 14.0075 11.4731 14.169 11.5951 14.169C11.7521 14.169 12.2671 13.9745 12.7731 13.571L13.0696 13.975C11.8316 15.234 10.4791 15.7195 9.95563 15.7195Z" fill="#737F86"/>
</svg>
