<svg width="36" height="49" viewBox="0 0 36 49" fill="none" xmlns="http://www.w3.org/2000/svg">
<path d="M9.24779 5.61074C9.67967 5.61074 10.0822 5.54117 10.3859 5.41967C10.5371 5.35919 10.6762 5.28093 10.7817 5.18124C10.8876 5.08104 10.9761 4.94197 10.9761 4.76944C10.9761 4.5969 10.8876 4.45783 10.7817 4.35763C10.6762 4.25794 10.5371 4.17968 10.3859 4.1192C10.0822 3.9977 9.67967 3.92813 9.24779 3.92813C8.81592 3.92813 8.41342 3.9977 8.10966 4.1192C7.95847 4.17968 7.81934 4.25794 7.71392 4.35763C7.60798 4.45783 7.51953 4.5969 7.51953 4.76944C7.51953 4.94197 7.60798 5.08104 7.71392 5.18124C7.81934 5.28093 7.95847 5.35919 8.10966 5.41967C8.41342 5.54117 8.81592 5.61074 9.24779 5.61074Z" fill="#7BB053" stroke="#7BB053" stroke-width="0.5"/>
<path d="M3.70929 24.8154L3.74105 24.8048L3.76891 24.7863C4.00574 24.6284 4.32371 24.3414 4.32371 23.913V7.84493C8.02091 8.96313 14.0233 9.38043 18.1172 9.38043C22.2055 9.38043 28.2093 9.03372 31.9107 7.85103V23.913C31.9107 24.2704 32.0915 24.7019 32.5334 24.8182L32.7302 24.8838C32.88 24.9581 33.0448 25.0312 33.1876 25.0937C33.1955 25.0972 33.2033 25.1006 33.211 25.1039C33.1807 25.1251 33.1465 25.1476 33.108 25.1713C32.915 25.2897 32.6429 25.4196 32.2885 25.5551C31.5808 25.8255 30.57 26.1086 29.2666 26.3656C26.6614 26.8793 22.9083 27.2848 18.1172 27.2848C13.326 27.2848 9.57298 26.8793 6.96773 26.3656C5.66433 26.1086 4.65355 25.8255 3.94584 25.5551C3.59151 25.4196 3.31936 25.2897 3.12638 25.1713C3.07864 25.142 3.03757 25.1145 3.0024 25.089C3.02073 25.0795 3.03939 25.07 3.05834 25.0606C3.20253 24.9885 3.34885 24.9248 3.46913 24.8947L3.47844 24.8924L3.48755 24.8893L3.70929 24.8154ZM32.4923 43.7236L32.4923 43.7238L32.5007 43.7276C32.8934 43.9061 33.1318 44.0617 33.2675 44.1734C33.3022 44.202 33.3291 44.2269 33.3498 44.2477C33.3163 44.2851 33.2605 44.3363 33.1693 44.3993C33.0001 44.5164 32.7481 44.6476 32.4082 44.786C31.73 45.0622 30.7345 45.3541 29.4313 45.6203C26.8269 46.1522 23.019 46.5761 18.1172 46.5761C13.2154 46.5761 9.40749 46.1522 6.80308 45.6203C5.49985 45.3541 4.5044 45.0622 3.82616 44.786C3.48624 44.6476 3.23432 44.5164 3.06505 44.3993C2.97387 44.3363 2.9181 44.2851 2.88462 44.2477C2.90523 44.2269 2.9322 44.202 2.96688 44.1734C3.10199 44.0621 3.33902 43.9074 3.72882 43.7298C3.96884 43.6322 4.14872 43.4571 4.2402 43.2349C4.3208 43.0391 4.32719 42.8208 4.26299 42.6087C4.27148 42.5918 4.28512 42.5642 4.29624 42.5345C4.309 42.5005 4.32371 42.4507 4.32371 42.3913V27.8014C8.02091 28.9196 14.0233 29.337 18.1172 29.337C22.2055 29.337 28.2093 28.9902 31.9107 27.8076V42.3913L31.9107 42.3978C31.9106 42.4537 31.9104 42.5503 31.9601 42.6536C31.8492 43.1236 32.1452 43.5501 32.4923 43.7236ZM2.34545 42.2395C2.06297 42.3918 1.73191 42.6063 1.4551 42.8917C1.12952 43.2275 0.867188 43.6746 0.867188 44.2391C0.867188 45.1922 1.6682 45.9053 2.78165 46.4405C3.91508 46.9852 5.47733 47.3988 7.21724 47.7097C10.7018 48.3323 14.9678 48.5543 18.1172 48.5543C21.2665 48.5543 25.5326 48.3323 29.0171 47.7097C30.757 47.3988 32.3193 46.9852 33.4527 46.4405C34.5662 45.9053 35.3672 45.1922 35.3672 44.2391C35.3672 43.6746 35.1049 43.2275 34.7793 42.8917C34.5025 42.6063 34.1714 42.3918 33.8889 42.2394V27.0169C34.7981 26.4992 35.3672 25.8629 35.3672 25.0217C35.3672 24.5039 35.1681 24.1231 34.8498 23.8378C34.5848 23.6002 34.2428 23.4337 33.8889 23.2964V7.06038C34.7981 6.5427 35.3672 5.90642 35.3672 5.06522C35.3672 4.1121 34.5662 3.39903 33.4527 2.86387C32.3193 2.31911 30.757 1.90552 29.0171 1.59466C25.5326 0.972083 21.2665 0.75 18.1172 0.75C14.9678 0.75 10.7018 0.972083 7.21724 1.59466C5.47733 1.90552 3.91508 2.31911 2.78165 2.86387C1.6682 3.39903 0.867188 4.1121 0.867188 5.06522C0.867188 5.91043 1.51084 6.54572 2.34545 7.05501V23.3094C1.99136 23.4749 1.64822 23.6568 1.38454 23.8932C1.07263 24.1728 0.867188 24.533 0.867188 25.0217C0.867188 25.867 1.51084 26.5022 2.34545 27.0115V42.2395ZM2.87717 5.06522C2.9096 5.02718 2.96675 4.97301 3.06505 4.90503C3.23432 4.78799 3.48624 4.6568 3.82616 4.51835C4.5044 4.24212 5.49985 3.95023 6.80308 3.68407C9.40749 3.15219 13.2154 2.72826 18.1172 2.72826C22.9819 2.72826 26.7899 3.15217 29.4037 3.68411C30.7117 3.95029 31.7143 4.24224 32.3985 4.51862C32.7414 4.65715 32.996 4.78845 33.1672 4.90568C33.2661 4.97339 33.3237 5.02735 33.3565 5.06521C33.3237 5.10308 33.2661 5.15704 33.1672 5.22475C32.996 5.34198 32.7414 5.47329 32.3985 5.61181C31.7143 5.8882 30.7117 6.18015 29.4037 6.44633C26.7899 6.97827 22.9819 7.40217 18.1172 7.40217C13.2154 7.40217 9.40749 6.97825 6.80308 6.44636C5.49985 6.18021 4.5044 5.88832 3.82616 5.61208C3.48624 5.47364 3.23432 5.34245 3.06505 5.2254C2.96675 5.15743 2.9096 5.10325 2.87717 5.06522Z" fill="#7BB053" stroke="#7BB053" stroke-width="0.5"/>
<path d="M18.7733 13.6553L18.7734 13.6553L18.7693 13.6492C18.4746 13.2059 17.8171 13.2039 17.5192 13.6433C17.3516 13.8707 16.7088 14.9286 16.1086 16.1077C15.8046 16.705 15.5077 17.3407 15.2862 17.9235C15.0678 18.4983 14.9111 19.0506 14.9111 19.47C14.9111 21.2381 16.3528 22.6848 18.1177 22.6848C19.8825 22.6848 21.3242 21.2381 21.3242 19.47C21.3242 19.0506 21.1675 18.4983 20.95 17.9238C20.7293 17.3411 20.434 16.7056 20.1333 16.1087C19.5318 14.9148 18.8997 13.8582 18.7733 13.6553ZM17.0265 17.6477C17.3427 16.9624 17.7366 16.2068 18.1148 15.5327C18.4954 16.2249 18.8914 16.9836 19.2091 17.6668C19.3983 18.0738 19.5578 18.4503 19.6696 18.7678C19.7842 19.0935 19.8387 19.3306 19.8387 19.47C19.8387 20.4197 19.063 21.1965 18.1177 21.1965C17.1723 21.1965 16.3966 20.4197 16.3966 19.47C16.3966 19.3301 16.4513 19.0897 16.566 18.76C16.6778 18.4385 16.8375 18.0575 17.0265 17.6477Z" fill="#7BB053" stroke="#7BB053" stroke-width="0.5"/>
<path d="M8.75853 20.2174V16.5218C8.75853 15.9755 8.31569 15.5326 7.7694 15.5326C7.22312 15.5326 6.78027 15.9755 6.78027 16.5218V20.2174C6.78027 20.7637 7.22312 21.2065 7.7694 21.2065C8.31568 21.2065 8.75853 20.7637 8.75853 20.2174Z" fill="#7BB053" stroke="#7BB053" stroke-width="0.5"/>
<path d="M6.78027 12.8261C6.78027 13.3724 7.22312 13.8152 7.7694 13.8152C8.31569 13.8152 8.75853 13.3724 8.75853 12.8261C8.75853 12.2798 8.31569 11.8369 7.7694 11.8369C7.22312 11.8369 6.78027 12.2798 6.78027 12.8261Z" fill="#7BB053" stroke="#7BB053" stroke-width="0.5"/>
</svg>
