<svg width="44" height="40" viewBox="0 0 44 40" fill="none" xmlns="http://www.w3.org/2000/svg">
<mask id="path-1-outside-1" maskUnits="userSpaceOnUse" x="-0.03125" y="0" width="44" height="40" fill="black">
<rect fill="white" x="-0.03125" width="44" height="40"/>
<path d="M39.8351 11.767H39.3139L39.5717 10.1894C39.6671 9.61138 39.5033 9.0207 39.1239 8.57437C38.7551 8.13852 38.2129 7.88736 37.6419 7.88785C37.44 7.88794 37.249 7.79638 37.1226 7.63895C36.9818 7.46566 36.9273 7.23781 36.9744 7.01956C37.0914 6.43412 36.9388 5.82712 36.5589 5.36657C36.1918 4.91691 35.6422 4.65583 35.0618 4.65535H34.2479C34.007 4.6533 33.7851 4.52393 33.6646 4.31525L32.7248 2.718C32.2435 1.87775 31.2133 1.52531 30.3181 1.89468L28.7981 2.51471C28.6029 2.59478 28.381 2.57641 28.2016 2.46531L26.2769 1.28542C25.6583 0.90486 24.8783 0.90486 24.2597 1.28542L22.3161 2.47607C22.1407 2.58349 21.9256 2.60361 21.7334 2.53054L18.2387 1.19042C17.3845 0.863331 16.418 1.18065 15.9239 1.95041L14.4229 4.25129C14.2842 4.46997 14.032 4.58928 13.775 4.55782L10.5248 4.14299C9.63786 4.03391 8.79034 4.54184 8.46838 5.37544L7.78882 7.10949C7.72001 7.28731 7.58162 7.42936 7.40566 7.50278L5.78054 8.16588C4.90673 8.52895 4.41055 9.45822 4.59495 10.3863L4.86602 11.767H4.36886C3.6693 11.767 3.1022 12.3341 3.1022 13.0336V15.5669C3.1022 16.2665 3.6693 16.8336 4.36886 16.8336H4.47399L6.7755 29.5001H6.26884C5.56928 29.5001 5.00218 30.0672 5.00218 30.7668V32.0334C5.00218 32.733 5.56928 33.3001 6.26884 33.3001H8.16882C8.16907 34.2361 8.5166 35.1388 9.14414 35.8334H1.60208C1.2523 35.8334 0.96875 36.1169 0.96875 36.4667C0.96875 36.8165 1.2523 37.1 1.60208 37.1H4.36886V38.3667C4.36886 38.7164 4.65241 39 5.00218 39C5.35196 39 5.63551 38.7164 5.63551 38.3667V37.1H10.0688V38.3667C10.0688 38.7164 10.3523 39 10.7021 39C11.0519 39 11.3354 38.7164 11.3354 38.3667V37.1H15.7687V38.3667C15.7687 38.7164 16.0523 39 16.4021 39C16.7518 39 17.0354 38.7164 17.0354 38.3667V37.1H21.4687V38.3667C21.4687 38.7164 21.7522 39 22.102 39C22.4518 39 22.7353 38.7164 22.7353 38.3667V37.1H27.1686V38.3667C27.1686 38.7164 27.4521 39 27.8019 39C28.1517 39 28.4353 38.7164 28.4353 38.3667V37.1H32.8685V38.3667C32.8685 38.7164 33.1521 39 33.5019 39C33.8516 39 34.1352 38.7164 34.1352 38.3667V37.1H38.5685V38.3667C38.5685 38.7164 38.852 39 39.2018 39C39.5516 39 39.8351 38.7164 39.8351 38.3667V37.1H42.1021C42.4518 37.1 42.7354 36.8165 42.7354 36.4667C42.7354 36.1169 42.4518 35.8334 42.1021 35.8334H35.0599C35.6874 35.1388 36.0349 34.2361 36.0352 33.3001H37.9352C38.6347 33.3001 39.2018 32.733 39.2018 32.0334V30.7668C39.2018 30.0672 38.6347 29.5001 37.9352 29.5001H37.4285L39.7313 16.8336H39.8351C40.5347 16.8336 41.1018 16.2665 41.1018 15.5669V13.0336C41.1018 12.3341 40.5347 11.767 39.8351 11.767ZM5.83817 10.1438C5.76912 9.80958 5.94496 9.47299 6.2587 9.3388L7.88382 8.67507C8.38077 8.47021 8.77245 8.07121 8.96807 7.57055L9.647 5.83777C9.75657 5.54405 10.0525 5.36311 10.3639 5.39951L13.6154 5.8137C14.3539 5.90895 15.0811 5.57046 15.4837 4.94415L16.9853 2.64707C17.1552 2.37843 17.4905 2.26622 17.7878 2.37854L21.2787 3.71296C21.8378 3.92965 22.4661 3.8715 22.976 3.55589L24.919 2.36524C25.1325 2.23343 25.4022 2.23343 25.6157 2.36524L27.5448 3.54703C28.0686 3.86662 28.7128 3.91902 29.2814 3.68826L30.8014 3.06887C31.1128 2.94371 31.4687 3.06823 31.6342 3.3602L32.5734 4.95681C32.922 5.55228 33.5592 5.9193 34.2492 5.922H35.063C35.2649 5.92219 35.4558 6.01369 35.5824 6.1709C35.7231 6.3447 35.7776 6.57291 35.7305 6.79156C35.6139 7.37678 35.7664 7.98347 36.146 8.44391C36.5145 8.89456 37.0662 9.15552 37.6483 9.1545C37.8462 9.15442 38.034 9.24237 38.1606 9.39453C38.2987 9.55818 38.3578 9.77429 38.3221 9.98542L38.0302 11.767H6.15674L5.83817 10.1438ZM6.26884 32.0334V30.7668H9.14414C8.81278 31.1358 8.55676 31.5661 8.39048 32.0334H6.26884ZM14.5021 33.3001C14.5021 34.6992 13.3679 35.8334 11.9688 35.8334C10.5697 35.8334 9.43547 34.6992 9.43547 33.3001C9.43547 31.901 10.5697 30.7668 11.9688 30.7668C13.3679 30.7668 14.5021 31.901 14.5021 33.3001ZM32.2352 30.7668C33.6343 30.7668 34.7685 31.901 34.7685 33.3001C34.7685 34.6992 33.6343 35.8334 32.2352 35.8334C30.8361 35.8334 29.7019 34.6992 29.7019 33.3001C29.7019 31.901 30.8361 30.7668 32.2352 30.7668ZM29.4106 35.8334H14.7934C15.4209 35.1388 15.7685 34.2361 15.7687 33.3001H28.4353C28.4355 34.2361 28.783 35.1388 29.4106 35.8334ZM37.9352 32.0334H35.8135C35.6472 31.5661 35.3912 31.1358 35.0599 30.7668H37.9352V32.0334ZM39.8351 15.5669H17.0354C16.6856 15.5669 16.4021 15.8505 16.4021 16.2003C16.4021 16.55 16.6856 16.8336 17.0354 16.8336H38.4418L36.1403 29.5001H32.2352C30.6264 29.5019 28.9715 31.4832 28.4353 33H15.6022C15.066 31.4832 13.5775 29.5019 11.9688 29.5001H8.06368L5.76217 16.8336H10.7021C11.0519 16.8336 11.3354 16.55 11.3354 16.2003C11.3354 15.8505 11.0519 15.5669 10.7021 15.5669H4.36886V13.0336H39.8351V15.5669Z"/>
</mask>
<path d="M39.8351 11.767H39.3139L39.5717 10.1894C39.6671 9.61138 39.5033 9.0207 39.1239 8.57437C38.7551 8.13852 38.2129 7.88736 37.6419 7.88785C37.44 7.88794 37.249 7.79638 37.1226 7.63895C36.9818 7.46566 36.9273 7.23781 36.9744 7.01956C37.0914 6.43412 36.9388 5.82712 36.5589 5.36657C36.1918 4.91691 35.6422 4.65583 35.0618 4.65535H34.2479C34.007 4.6533 33.7851 4.52393 33.6646 4.31525L32.7248 2.718C32.2435 1.87775 31.2133 1.52531 30.3181 1.89468L28.7981 2.51471C28.6029 2.59478 28.381 2.57641 28.2016 2.46531L26.2769 1.28542C25.6583 0.90486 24.8783 0.90486 24.2597 1.28542L22.3161 2.47607C22.1407 2.58349 21.9256 2.60361 21.7334 2.53054L18.2387 1.19042C17.3845 0.863331 16.418 1.18065 15.9239 1.95041L14.4229 4.25129C14.2842 4.46997 14.032 4.58928 13.775 4.55782L10.5248 4.14299C9.63786 4.03391 8.79034 4.54184 8.46838 5.37544L7.78882 7.10949C7.72001 7.28731 7.58162 7.42936 7.40566 7.50278L5.78054 8.16588C4.90673 8.52895 4.41055 9.45822 4.59495 10.3863L4.86602 11.767H4.36886C3.6693 11.767 3.1022 12.3341 3.1022 13.0336V15.5669C3.1022 16.2665 3.6693 16.8336 4.36886 16.8336H4.47399L6.7755 29.5001H6.26884C5.56928 29.5001 5.00218 30.0672 5.00218 30.7668V32.0334C5.00218 32.733 5.56928 33.3001 6.26884 33.3001H8.16882C8.16907 34.2361 8.5166 35.1388 9.14414 35.8334H1.60208C1.2523 35.8334 0.96875 36.1169 0.96875 36.4667C0.96875 36.8165 1.2523 37.1 1.60208 37.1H4.36886V38.3667C4.36886 38.7164 4.65241 39 5.00218 39C5.35196 39 5.63551 38.7164 5.63551 38.3667V37.1H10.0688V38.3667C10.0688 38.7164 10.3523 39 10.7021 39C11.0519 39 11.3354 38.7164 11.3354 38.3667V37.1H15.7687V38.3667C15.7687 38.7164 16.0523 39 16.4021 39C16.7518 39 17.0354 38.7164 17.0354 38.3667V37.1H21.4687V38.3667C21.4687 38.7164 21.7522 39 22.102 39C22.4518 39 22.7353 38.7164 22.7353 38.3667V37.1H27.1686V38.3667C27.1686 38.7164 27.4521 39 27.8019 39C28.1517 39 28.4353 38.7164 28.4353 38.3667V37.1H32.8685V38.3667C32.8685 38.7164 33.1521 39 33.5019 39C33.8516 39 34.1352 38.7164 34.1352 38.3667V37.1H38.5685V38.3667C38.5685 38.7164 38.852 39 39.2018 39C39.5516 39 39.8351 38.7164 39.8351 38.3667V37.1H42.1021C42.4518 37.1 42.7354 36.8165 42.7354 36.4667C42.7354 36.1169 42.4518 35.8334 42.1021 35.8334H35.0599C35.6874 35.1388 36.0349 34.2361 36.0352 33.3001H37.9352C38.6347 33.3001 39.2018 32.733 39.2018 32.0334V30.7668C39.2018 30.0672 38.6347 29.5001 37.9352 29.5001H37.4285L39.7313 16.8336H39.8351C40.5347 16.8336 41.1018 16.2665 41.1018 15.5669V13.0336C41.1018 12.3341 40.5347 11.767 39.8351 11.767ZM5.83817 10.1438C5.76912 9.80958 5.94496 9.47299 6.2587 9.3388L7.88382 8.67507C8.38077 8.47021 8.77245 8.07121 8.96807 7.57055L9.647 5.83777C9.75657 5.54405 10.0525 5.36311 10.3639 5.39951L13.6154 5.8137C14.3539 5.90895 15.0811 5.57046 15.4837 4.94415L16.9853 2.64707C17.1552 2.37843 17.4905 2.26622 17.7878 2.37854L21.2787 3.71296C21.8378 3.92965 22.4661 3.8715 22.976 3.55589L24.919 2.36524C25.1325 2.23343 25.4022 2.23343 25.6157 2.36524L27.5448 3.54703C28.0686 3.86662 28.7128 3.91902 29.2814 3.68826L30.8014 3.06887C31.1128 2.94371 31.4687 3.06823 31.6342 3.3602L32.5734 4.95681C32.922 5.55228 33.5592 5.9193 34.2492 5.922H35.063C35.2649 5.92219 35.4558 6.01369 35.5824 6.1709C35.7231 6.3447 35.7776 6.57291 35.7305 6.79156C35.6139 7.37678 35.7664 7.98347 36.146 8.44391C36.5145 8.89456 37.0662 9.15552 37.6483 9.1545C37.8462 9.15442 38.034 9.24237 38.1606 9.39453C38.2987 9.55818 38.3578 9.77429 38.3221 9.98542L38.0302 11.767H6.15674L5.83817 10.1438ZM6.26884 32.0334V30.7668H9.14414C8.81278 31.1358 8.55676 31.5661 8.39048 32.0334H6.26884ZM14.5021 33.3001C14.5021 34.6992 13.3679 35.8334 11.9688 35.8334C10.5697 35.8334 9.43547 34.6992 9.43547 33.3001C9.43547 31.901 10.5697 30.7668 11.9688 30.7668C13.3679 30.7668 14.5021 31.901 14.5021 33.3001ZM32.2352 30.7668C33.6343 30.7668 34.7685 31.901 34.7685 33.3001C34.7685 34.6992 33.6343 35.8334 32.2352 35.8334C30.8361 35.8334 29.7019 34.6992 29.7019 33.3001C29.7019 31.901 30.8361 30.7668 32.2352 30.7668ZM29.4106 35.8334H14.7934C15.4209 35.1388 15.7685 34.2361 15.7687 33.3001H28.4353C28.4355 34.2361 28.783 35.1388 29.4106 35.8334ZM37.9352 32.0334H35.8135C35.6472 31.5661 35.3912 31.1358 35.0599 30.7668H37.9352V32.0334ZM39.8351 15.5669H17.0354C16.6856 15.5669 16.4021 15.8505 16.4021 16.2003C16.4021 16.55 16.6856 16.8336 17.0354 16.8336H38.4418L36.1403 29.5001H32.2352C30.6264 29.5019 28.9715 31.4832 28.4353 33H15.6022C15.066 31.4832 13.5775 29.5019 11.9688 29.5001H8.06368L5.76217 16.8336H10.7021C11.0519 16.8336 11.3354 16.55 11.3354 16.2003C11.3354 15.8505 11.0519 15.5669 10.7021 15.5669H4.36886V13.0336H39.8351V15.5669Z" fill="#7BB053"/>
<path d="M39.8351 11.767H39.3139L39.5717 10.1894C39.6671 9.61138 39.5033 9.0207 39.1239 8.57437C38.7551 8.13852 38.2129 7.88736 37.6419 7.88785C37.44 7.88794 37.249 7.79638 37.1226 7.63895C36.9818 7.46566 36.9273 7.23781 36.9744 7.01956C37.0914 6.43412 36.9388 5.82712 36.5589 5.36657C36.1918 4.91691 35.6422 4.65583 35.0618 4.65535H34.2479C34.007 4.6533 33.7851 4.52393 33.6646 4.31525L32.7248 2.718C32.2435 1.87775 31.2133 1.52531 30.3181 1.89468L28.7981 2.51471C28.6029 2.59478 28.381 2.57641 28.2016 2.46531L26.2769 1.28542C25.6583 0.90486 24.8783 0.90486 24.2597 1.28542L22.3161 2.47607C22.1407 2.58349 21.9256 2.60361 21.7334 2.53054L18.2387 1.19042C17.3845 0.863331 16.418 1.18065 15.9239 1.95041L14.4229 4.25129C14.2842 4.46997 14.032 4.58928 13.775 4.55782L10.5248 4.14299C9.63786 4.03391 8.79034 4.54184 8.46838 5.37544L7.78882 7.10949C7.72001 7.28731 7.58162 7.42936 7.40566 7.50278L5.78054 8.16588C4.90673 8.52895 4.41055 9.45822 4.59495 10.3863L4.86602 11.767H4.36886C3.6693 11.767 3.1022 12.3341 3.1022 13.0336V15.5669C3.1022 16.2665 3.6693 16.8336 4.36886 16.8336H4.47399L6.7755 29.5001H6.26884C5.56928 29.5001 5.00218 30.0672 5.00218 30.7668V32.0334C5.00218 32.733 5.56928 33.3001 6.26884 33.3001H8.16882C8.16907 34.2361 8.5166 35.1388 9.14414 35.8334H1.60208C1.2523 35.8334 0.96875 36.1169 0.96875 36.4667C0.96875 36.8165 1.2523 37.1 1.60208 37.1H4.36886V38.3667C4.36886 38.7164 4.65241 39 5.00218 39C5.35196 39 5.63551 38.7164 5.63551 38.3667V37.1H10.0688V38.3667C10.0688 38.7164 10.3523 39 10.7021 39C11.0519 39 11.3354 38.7164 11.3354 38.3667V37.1H15.7687V38.3667C15.7687 38.7164 16.0523 39 16.4021 39C16.7518 39 17.0354 38.7164 17.0354 38.3667V37.1H21.4687V38.3667C21.4687 38.7164 21.7522 39 22.102 39C22.4518 39 22.7353 38.7164 22.7353 38.3667V37.1H27.1686V38.3667C27.1686 38.7164 27.4521 39 27.8019 39C28.1517 39 28.4353 38.7164 28.4353 38.3667V37.1H32.8685V38.3667C32.8685 38.7164 33.1521 39 33.5019 39C33.8516 39 34.1352 38.7164 34.1352 38.3667V37.1H38.5685V38.3667C38.5685 38.7164 38.852 39 39.2018 39C39.5516 39 39.8351 38.7164 39.8351 38.3667V37.1H42.1021C42.4518 37.1 42.7354 36.8165 42.7354 36.4667C42.7354 36.1169 42.4518 35.8334 42.1021 35.8334H35.0599C35.6874 35.1388 36.0349 34.2361 36.0352 33.3001H37.9352C38.6347 33.3001 39.2018 32.733 39.2018 32.0334V30.7668C39.2018 30.0672 38.6347 29.5001 37.9352 29.5001H37.4285L39.7313 16.8336H39.8351C40.5347 16.8336 41.1018 16.2665 41.1018 15.5669V13.0336C41.1018 12.3341 40.5347 11.767 39.8351 11.767ZM5.83817 10.1438C5.76912 9.80958 5.94496 9.47299 6.2587 9.3388L7.88382 8.67507C8.38077 8.47021 8.77245 8.07121 8.96807 7.57055L9.647 5.83777C9.75657 5.54405 10.0525 5.36311 10.3639 5.39951L13.6154 5.8137C14.3539 5.90895 15.0811 5.57046 15.4837 4.94415L16.9853 2.64707C17.1552 2.37843 17.4905 2.26622 17.7878 2.37854L21.2787 3.71296C21.8378 3.92965 22.4661 3.8715 22.976 3.55589L24.919 2.36524C25.1325 2.23343 25.4022 2.23343 25.6157 2.36524L27.5448 3.54703C28.0686 3.86662 28.7128 3.91902 29.2814 3.68826L30.8014 3.06887C31.1128 2.94371 31.4687 3.06823 31.6342 3.3602L32.5734 4.95681C32.922 5.55228 33.5592 5.9193 34.2492 5.922H35.063C35.2649 5.92219 35.4558 6.01369 35.5824 6.1709C35.7231 6.3447 35.7776 6.57291 35.7305 6.79156C35.6139 7.37678 35.7664 7.98347 36.146 8.44391C36.5145 8.89456 37.0662 9.15552 37.6483 9.1545C37.8462 9.15442 38.034 9.24237 38.1606 9.39453C38.2987 9.55818 38.3578 9.77429 38.3221 9.98542L38.0302 11.767H6.15674L5.83817 10.1438ZM6.26884 32.0334V30.7668H9.14414C8.81278 31.1358 8.55676 31.5661 8.39048 32.0334H6.26884ZM14.5021 33.3001C14.5021 34.6992 13.3679 35.8334 11.9688 35.8334C10.5697 35.8334 9.43547 34.6992 9.43547 33.3001C9.43547 31.901 10.5697 30.7668 11.9688 30.7668C13.3679 30.7668 14.5021 31.901 14.5021 33.3001ZM32.2352 30.7668C33.6343 30.7668 34.7685 31.901 34.7685 33.3001C34.7685 34.6992 33.6343 35.8334 32.2352 35.8334C30.8361 35.8334 29.7019 34.6992 29.7019 33.3001C29.7019 31.901 30.8361 30.7668 32.2352 30.7668ZM29.4106 35.8334H14.7934C15.4209 35.1388 15.7685 34.2361 15.7687 33.3001H28.4353C28.4355 34.2361 28.783 35.1388 29.4106 35.8334ZM37.9352 32.0334H35.8135C35.6472 31.5661 35.3912 31.1358 35.0599 30.7668H37.9352V32.0334ZM39.8351 15.5669H17.0354C16.6856 15.5669 16.4021 15.8505 16.4021 16.2003C16.4021 16.55 16.6856 16.8336 17.0354 16.8336H38.4418L36.1403 29.5001H32.2352C30.6264 29.5019 28.9715 31.4832 28.4353 33H15.6022C15.066 31.4832 13.5775 29.5019 11.9688 29.5001H8.06368L5.76217 16.8336H10.7021C11.0519 16.8336 11.3354 16.55 11.3354 16.2003C11.3354 15.8505 11.0519 15.5669 10.7021 15.5669H4.36886V13.0336H39.8351V15.5669Z" stroke="#7BB053" mask="url(#path-1-outside-1)"/>
</svg>
