<svg width="74" height="71" viewBox="0 0 74 71" fill="none" xmlns="http://www.w3.org/2000/svg">
<path d="M17 5C17.2652 5 17.5196 4.87776 17.7071 4.66016C17.8946 4.44257 18 4.14745 18 3.83973V1.16027C18 0.852549 17.8946 0.557429 17.7071 0.339836C17.5196 0.122243 17.2652 0 17 0C16.7348 0 16.4804 0.122243 16.2929 0.339836C16.1054 0.557429 16 0.852549 16 1.16027V3.83973C16 4.14745 16.1054 4.44257 16.2929 4.66016C16.4804 4.87776 16.7348 5 17 5Z" fill="#7BB053"/>
<path d="M2.50091 24.2252C2.30993 24.3297 2.16063 24.4914 2.07622 24.685C1.99182 24.8786 1.97705 25.0934 2.03421 25.2958C2.09137 25.4982 2.21725 25.677 2.39228 25.8044C2.56731 25.9317 2.78167 26.0005 3.00203 26C3.17708 26.0007 3.34916 25.9569 3.50049 25.8732L5.49965 24.7754C5.61342 24.7129 5.71314 24.6298 5.79313 24.5307C5.87312 24.4316 5.9318 24.3185 5.96584 24.1978C5.99987 24.0772 6.00859 23.9513 5.99149 23.8275C5.97438 23.7036 5.9318 23.5841 5.86617 23.4759C5.80053 23.3677 5.71314 23.2729 5.60896 23.1968C5.50479 23.1207 5.38588 23.0649 5.25903 23.0325C5.13217 23.0001 4.99986 22.9918 4.86964 23.0081C4.73941 23.0244 4.61384 23.0649 4.50007 23.1273L2.50091 24.2252Z" fill="#7BB053"/>
<path d="M25.2018 7.99265C25.3815 7.99317 25.5591 7.95686 25.7214 7.88637C25.8838 7.81589 26.0267 7.71303 26.1398 7.58538L27.7005 5.82984C27.8074 5.71845 27.8887 5.5885 27.9394 5.44777C27.9901 5.30704 28.0093 5.15841 27.9958 5.01076C27.9823 4.8631 27.9363 4.71945 27.8607 4.58839C27.7851 4.45732 27.6813 4.34153 27.5556 4.24792C27.4299 4.15431 27.2849 4.08481 27.1292 4.04357C26.9734 4.00233 26.8102 3.9902 26.6492 4.00789C26.4882 4.02558 26.3328 4.07274 26.1922 4.14655C26.0516 4.22036 25.9287 4.3193 25.8309 4.43747L24.2702 6.20183C24.1265 6.36348 24.0358 6.55904 24.0086 6.76586C23.9814 6.97268 24.0189 7.18231 24.1167 7.37046C24.2146 7.55861 24.3687 7.7176 24.5613 7.82901C24.7539 7.94043 24.9771 7.99971 25.205 8L25.2018 7.99265Z" fill="#7BB053"/>
<path d="M0.969404 14.6805L3.63964 14.9898C3.70166 14.9966 3.7643 15 3.82702 15C4.12209 15.0003 4.40645 14.9201 4.62325 14.7755C4.84006 14.6308 4.97333 14.4323 4.99641 14.2196C5.01949 14.007 4.93069 13.7959 4.74776 13.6285C4.56483 13.4612 4.30125 13.3499 4.00972 13.317L1.33949 13.0088C1.03501 12.9768 0.725349 13.0328 0.477454 13.1645C0.229558 13.2962 0.0633367 13.4932 0.0147185 13.7128C-0.0338997 13.9324 0.038991 14.1571 0.217635 14.3382C0.396279 14.5192 0.666326 14.6422 0.969404 14.6805Z" fill="#7BB053"/>
<path d="M7.91245 7.49739C8.00895 7.63527 8.12847 7.75 8.2641 7.83494C8.39973 7.91988 8.54878 7.97336 8.70265 7.99229C8.85651 8.01122 9.01215 7.99522 9.16056 7.94521C9.30897 7.89521 9.44721 7.81219 9.56731 7.70096C9.68741 7.58972 9.78698 7.45247 9.86028 7.29714C9.93357 7.1418 9.97913 6.97146 9.99433 6.79594C10.0095 6.62042 9.99407 6.44322 9.94884 6.27455C9.90361 6.10588 9.8295 5.9491 9.7308 5.81325L8.08272 3.49177C7.98528 3.3557 7.86527 3.24284 7.72956 3.15963C7.59384 3.07642 7.44507 3.02449 7.29174 3.0068C7.13841 2.98911 6.98353 3.00601 6.83593 3.05654C6.68834 3.10707 6.55092 3.19023 6.43152 3.30128C6.31213 3.41233 6.21309 3.54909 6.14008 3.70376C6.06706 3.85842 6.02149 4.02797 6.00597 4.2027C5.97462 4.5556 6.06757 4.90824 6.26437 5.18303L7.91245 7.49739Z" fill="#7BB053"/>
<path d="M72.8396 68.678H54.8862V58.5889C61.2554 58.2784 65.4178 55.3542 65.4178 43.6881C65.4178 31.1885 55.1173 12.9832 54.6781 12.2148C54.5687 12.048 54.42 11.9111 54.2452 11.8164C54.0703 11.7217 53.8749 11.6721 53.6764 11.6721C53.4779 11.6721 53.2825 11.7217 53.1077 11.8164C52.9329 11.9111 52.7842 12.048 52.6748 12.2148C52.5977 12.3483 50.7607 15.5799 48.6002 20.2752C48.4838 20.5536 48.4792 20.8666 48.5874 21.1483C48.6956 21.43 48.9082 21.6584 49.1803 21.7854C49.4524 21.9123 49.7628 21.928 50.0461 21.829C50.3294 21.73 50.5635 21.5241 50.6991 21.2546C51.8564 18.737 52.9336 16.623 53.6749 15.2214C56.2947 20.1743 63.1062 34.0321 63.1062 43.6881C63.1062 55.2517 58.9007 56.2746 53.7966 56.2901C53.7735 56.2901 53.7535 56.2762 53.7304 56.2762C53.7073 56.2762 53.6826 56.2901 53.6564 56.2917C51.6279 56.4409 49.5993 56.0031 47.8096 55.0298C47.5546 54.8694 47.2475 54.8154 46.9536 54.8793C46.6597 54.9432 46.4021 55.12 46.2355 55.372C46.0688 55.6241 46.0063 55.9316 46.0611 56.2294C46.1159 56.5272 46.2837 56.7917 46.529 56.9669C48.3558 58.0618 50.449 58.6234 52.5746 58.5889V66.9985C49.1014 63.6915 44.5342 61.7991 39.756 61.687C38.5826 61.6966 37.4132 61.8256 36.2655 62.0719V53.8299C37.5569 53.8067 38.7605 53.7803 39.7914 53.757C41.0089 53.7306 41.915 53.7104 42.3234 53.7104C52.0445 53.7104 57.8481 48.0109 57.8481 38.4651C57.8481 32.2455 54.4824 27.5083 47.5646 24.0066C47.7854 22.3267 47.6615 20.619 47.2005 18.9893C46.7396 17.3596 45.9514 15.8425 44.8848 14.532C43.8181 13.2215 42.4958 12.1455 40.9996 11.3705C39.5034 10.5956 37.8651 10.1383 36.1863 10.0268C34.5075 9.91536 32.8239 10.1522 31.2396 10.7226C29.6554 11.2931 28.2042 12.185 26.9761 13.3431C25.7479 14.5013 24.7688 15.9011 24.0995 17.4557C23.4301 19.0104 23.0848 20.687 23.0848 22.3815C23.0851 23.1298 23.1542 23.8765 23.2913 24.612C21.3368 24.3707 19.3537 24.5502 17.4733 25.1384C15.5928 25.7267 13.8578 26.7104 12.3829 28.0245C10.9081 29.3386 9.72706 30.9531 8.91798 32.7612C8.10889 34.5694 7.69017 36.5299 7.68953 38.5132C7.68953 45.7913 13.4546 52.107 21.405 53.5304C24.1938 53.8416 27.0002 53.964 29.8053 53.8967C31.1769 53.8967 32.5885 53.8843 33.9662 53.8641V61.6482C30.2652 59.8732 26.2207 58.9431 22.1216 58.9241C17.9657 58.8874 13.8531 59.7772 10.0788 61.5298C6.30456 63.2824 2.96202 65.8544 0.290876 69.0613C0.188073 69.1782 0.109645 69.3146 0.0602565 69.4626C0.0108685 69.6105 -0.00847072 69.767 0.00338926 69.9226C0.0152492 70.0783 0.0580661 70.2299 0.129293 70.3685C0.20052 70.5072 0.298702 70.63 0.418 70.7296C0.537297 70.8293 0.675273 70.9037 0.823721 70.9486C0.972168 70.9934 1.12806 71.0077 1.28211 70.9907C1.43616 70.9736 1.58524 70.9255 1.72046 70.8493C1.85569 70.773 1.97431 70.6701 2.06926 70.5468C4.52329 67.6056 7.59252 65.2472 11.0573 63.6404C14.522 62.0336 18.2966 61.2182 22.1108 61.2524C25.5867 61.2731 29.0213 62.0127 32.2017 63.4254C29.4008 64.7392 26.9137 66.645 24.9094 69.0132C24.7147 69.2481 24.6196 69.5507 24.6448 69.8556C24.6699 70.1606 24.8132 70.4433 25.0437 70.6426C25.2742 70.8419 25.5734 70.9418 25.8764 70.9206C26.1795 70.8995 26.4621 70.7591 26.6631 70.5297C28.2525 68.5581 30.2456 66.9551 32.5062 65.83C34.7668 64.705 37.2417 64.0844 39.7622 64.0106C42.286 64.1034 44.7609 64.7395 47.0203 65.876C49.2797 67.0125 51.2713 68.6231 52.8612 70.5995C52.9699 70.7254 53.1042 70.8262 53.2549 70.8953C53.4057 70.9644 53.5694 71.0001 53.735 71H72.8442C73.1507 71 73.4447 70.8773 73.6615 70.659C73.8782 70.4407 74 70.1446 74 69.8359C74 69.5271 73.8782 69.231 73.6615 69.0127C73.4447 68.7944 73.1507 68.6718 72.8442 68.6718L72.8396 68.678ZM21.8057 51.2378C14.9649 50.0132 10.0011 44.6613 10.0011 38.5101C9.99489 36.7176 10.3997 34.948 11.184 33.339C11.9683 31.73 13.1109 30.3251 14.5227 29.2339C15.9345 28.1427 17.5775 27.3946 19.3235 27.0479C21.0695 26.7012 22.8714 26.7653 24.5888 27.2351C24.7922 27.2897 25.0064 27.2873 25.2085 27.2282C25.4106 27.1691 25.5928 27.0555 25.7355 26.8998C25.8783 26.7441 25.9761 26.5521 26.0184 26.3445C26.0607 26.1369 26.046 25.9216 25.9758 25.7218C25.4644 24.26 25.2957 22.6989 25.4829 21.1606C25.67 19.6223 26.208 18.1484 27.0547 16.8543C27.9014 15.5601 29.0339 14.4809 30.3635 13.7008C31.6932 12.9208 33.184 12.4611 34.7193 12.3579C36.2547 12.2546 37.7929 12.5104 39.2138 13.1055C40.6346 13.7005 41.8995 14.6185 42.9096 15.7877C43.9196 16.9569 44.6474 18.3456 45.036 19.8452C45.4247 21.3448 45.4636 22.9147 45.1497 24.4319C45.097 24.688 45.1314 24.9546 45.2474 25.1886C45.3634 25.4226 45.5543 25.6104 45.7893 25.7218C52.4405 28.8804 55.538 32.9285 55.538 38.462C55.538 46.7909 50.8455 51.3791 42.325 51.3791C41.9073 51.3791 40.9842 51.3993 39.7421 51.4272C38.7636 51.4474 37.5677 51.4738 36.267 51.4986V38.2012L46.6507 33.1815C46.7875 33.1152 46.91 33.0225 47.0113 32.9086C47.1125 32.7946 47.1904 32.6617 47.2407 32.5175C47.2909 32.3732 47.3124 32.2204 47.304 32.0677C47.2956 31.915 47.2574 31.7656 47.1916 31.6278C47.1259 31.49 47.0338 31.3666 46.9207 31.2646C46.8076 31.1627 46.6756 31.0842 46.5324 31.0336C46.3891 30.983 46.2374 30.9613 46.0858 30.9698C45.9343 30.9783 45.7858 31.0167 45.649 31.083L36.267 35.6168V20.328C36.267 20.0193 36.1453 19.7232 35.9285 19.5048C35.7118 19.2865 35.4178 19.1639 35.1112 19.1639C34.8047 19.1639 34.5107 19.2865 34.294 19.5048C34.0772 19.7232 33.9554 20.0193 33.9554 20.328V43.5003L24.5734 38.9649C24.4362 38.8951 24.2865 38.8536 24.1332 38.8428C23.9798 38.832 23.8259 38.8521 23.6804 38.902C23.5348 38.9518 23.4006 39.0304 23.2856 39.1332C23.1706 39.2359 23.0771 39.3607 23.0106 39.5003C22.9441 39.6399 22.9059 39.7914 22.8982 39.9461C22.8906 40.1007 22.9136 40.2553 22.966 40.4009C23.0184 40.5464 23.0991 40.68 23.2034 40.7938C23.3076 40.9075 23.4334 40.9992 23.5733 41.0634L33.9554 46.0846V51.5358C29.9033 51.6891 25.8456 51.5895 21.8057 51.2378Z" fill="#7BB053"/>
<path d="M17.2594 9.26782C18.5164 9.26889 19.7589 9.52342 20.9048 10.0146C22.0506 10.5058 23.0739 11.2224 23.9069 12.1172C24.1182 12.3428 24.4152 12.4794 24.7324 12.4969C25.0497 12.5143 25.3613 12.4113 25.5986 12.2104C25.836 12.0095 25.9796 11.7273 25.998 11.4257C26.0164 11.1241 25.908 10.828 25.6966 10.6024C24.6791 9.51222 23.4382 8.6309 22.0499 8.01239C20.6615 7.39388 19.155 7.05119 17.6225 7.00531C16.09 6.95943 14.5638 7.21131 13.1373 7.74554C11.7107 8.27977 10.4139 9.08511 9.32623 10.1123C8.23853 11.1394 7.38282 12.3667 6.81149 13.7191C6.24016 15.0715 5.96522 16.5205 6.00352 17.9774C6.04181 19.4343 6.39253 20.8685 7.0342 22.1921C7.67587 23.5157 8.59499 24.7008 9.7353 25.6751C9.85061 25.7825 9.98763 25.8667 10.1381 25.9224C10.2886 25.9782 10.4494 26.0044 10.6108 25.9994C10.7722 25.9945 10.9309 25.9585 11.0772 25.8936C11.2236 25.8287 11.3546 25.7364 11.4624 25.6221C11.5702 25.5077 11.6524 25.3738 11.7043 25.2285C11.7561 25.0831 11.7764 24.9292 11.7639 24.7762C11.7515 24.6232 11.7065 24.4741 11.6318 24.338C11.557 24.202 11.454 24.0817 11.329 23.9845C9.99233 22.844 9.05107 21.3449 8.62961 19.6853C8.20815 18.0256 8.32631 16.2834 8.96849 14.6889C9.61067 13.0944 10.7466 11.7226 12.2264 10.7547C13.7061 9.78682 15.4599 9.26836 17.2562 9.26782H17.2594Z" fill="#7BB053"/>
</svg>
