<svg width="35" height="40" viewBox="0 0 35 40" fill="none" xmlns="http://www.w3.org/2000/svg">
<path d="M26.2447 39.7131H0V3.46026C0 1.54381 1.54381 0 3.46026 0H22.7845C24.7009 0 26.2447 1.54381 26.2447 3.46026V39.7131ZM2.39556 37.3175H23.8491V3.46026C23.8491 2.87467 23.37 2.39556 22.7845 2.39556H3.46026C2.87467 2.39556 2.39556 2.87467 2.39556 3.46026V37.3175Z" fill="#7BB053"/>
<path d="M21.5605 20.8143H4.63184V4.79065H21.5605V20.8143ZM7.0274 18.4187H19.2181V7.23945H7.0274V18.4187Z" fill="#7BB053"/>
<path d="M31.1418 39.7134C29.2786 39.7134 27.7348 38.1696 27.7348 36.3064V24.7012H25.073C24.4342 24.7012 23.8486 24.1689 23.8486 23.4768C23.8486 22.7848 24.381 22.2524 25.073 22.2524H30.1303V36.2531C30.1303 36.7855 30.5562 37.2646 31.1418 37.2646C31.7274 37.2646 32.1532 36.8387 32.1532 36.2531V12.8299C32.1532 12.191 32.6856 11.6055 33.3776 11.6055C34.0697 11.6055 34.602 12.1378 34.602 12.8299V36.2531C34.4956 38.2228 33.005 39.7134 31.1418 39.7134Z" fill="#7BB053"/>
<path d="M33.3251 14.0002C32.8992 14.0002 32.4733 13.7341 32.2604 13.3082L27.416 3.45976C27.1499 2.87418 27.3628 2.12889 27.9484 1.86272C28.534 1.59655 29.2792 1.80949 29.5454 2.39507L34.3898 12.2435C34.656 12.8291 34.443 13.5744 33.8574 13.8405C33.6977 13.947 33.4848 14.0002 33.3251 14.0002Z" fill="#7BB053"/>
<path d="M29.9708 6.01599C29.9708 6.01599 28.4802 9.1036 28.6399 10.2215C28.7996 11.3395 29.5449 15.3853 32.8987 12.0315L29.9708 6.01599Z" fill="#7BB053"/>
</svg>
