<svg width="33" height="50" viewBox="0 0 33 50" fill="none" xmlns="http://www.w3.org/2000/svg">
<g clip-path="url(#clip99)">
<path d="M6.07549 50C4.26632 50 2.80938 49.4305 1.73669 48.305C-0.176552 46.2929 -0.000438393 43.2574 0.00756678 43.1285L1.2377 22.444L1.2457 22.393C2.2677 14.9062 6.17155 11.1213 9.26422 9.26503C12.6184 7.25299 15.7324 7.03272 15.8632 7.02466L15.9485 7.02197C20.9544 7.02197 25.1945 9.17369 28.2071 13.2488C30.4433 16.2736 31.2091 19.2849 31.2411 19.4112L31.2678 19.524L32.9969 43.4293C33.1196 47.7704 29.1971 49.6132 27.1051 49.9812L26.9904 50.0027H6.26495C6.20091 50 6.13686 50 6.07549 50ZM3.89541 22.7099L2.67062 43.2977C2.67062 43.3192 2.56922 45.3097 3.67127 46.4568C4.25031 47.0585 5.08285 47.3433 6.21692 47.3137H6.24894H26.7422C27.3426 47.1794 30.3899 46.3601 30.3312 43.5314L28.6234 19.9592C28.3112 18.8256 25.5094 9.7405 15.9992 9.70827C15.1934 9.77542 5.54448 10.8392 3.89541 22.7099Z" fill="#7BB053"/>
<path d="M20.5841 8.91312H12.5149C11.637 8.91312 10.9219 8.19588 10.9219 7.30941C10.9219 6.42561 11.6343 5.70569 12.5149 5.70569H20.5841C21.462 5.70569 22.1772 6.42293 22.1772 7.30941C22.1745 8.19588 21.462 8.91312 20.5841 8.91312Z" fill="#7BB053"/>
<path d="M20.5122 7.99173H12.8966L10.7725 2.98447C10.4924 2.32096 10.5591 1.56342 10.954 0.961693C11.3489 0.359963 12.0133 0 12.7311 0H20.2213C20.9791 0 21.6889 0.376081 22.1159 1.00467C22.5455 1.63327 22.6389 2.43378 22.364 3.14565L20.5122 7.99173ZM14.6577 5.30543H18.679L19.6823 2.68629H13.5477L14.6577 5.30543Z" fill="#7BB053"/>
<path d="M17.1523 37.5839C15.4072 37.5839 13.7154 37.0816 12.2558 36.1307C11.6368 35.7277 11.4606 34.895 11.8609 34.2717C12.2612 33.6485 13.0884 33.4712 13.7074 33.8742C14.7321 34.5431 15.9222 34.895 17.1523 34.895C20.6506 34.895 23.4978 32.0287 23.4978 28.5097C23.4978 27.7682 24.0955 27.1665 24.832 27.1665C25.5684 27.1665 26.1662 27.7682 26.1662 28.5097C26.1635 33.5142 22.1209 37.5839 17.1523 37.5839Z" fill="#7BB053"/>
<path d="M9.47287 29.8555C8.73639 29.8555 8.13867 29.2538 8.13867 28.5124C8.13867 23.5105 12.1813 19.438 17.1525 19.438C18.5267 19.438 19.8449 19.7416 21.075 20.3406C21.7395 20.663 22.0143 21.4662 21.6941 22.1351C21.3739 22.8013 20.576 23.0807 19.9116 22.7583C19.0471 22.3366 18.1211 22.1243 17.1525 22.1243C13.6542 22.1243 10.8071 24.9906 10.8071 28.5124C10.8071 29.2538 10.2093 29.8555 9.47287 29.8555Z" fill="#7BB053"/>
<path d="M20.9658 18.3635L18.2227 23.5212L22.9857 23.1586L20.9658 18.3635Z" fill="#7BB053"/>
<path d="M15.2259 33.114L12.5255 37.7962L10.5723 33.345L15.2259 33.114Z" fill="#7BB053"/>
</g>
<defs>
<clipPath id="clip99">
<rect width="33" height="50" fill="white"/>
</clipPath>
</defs>
</svg>
