<svg width="47" height="50" viewBox="0 0 47 50" fill="none" xmlns="http://www.w3.org/2000/svg">
<g clip-path="url(#clip98)">
<path d="M20.3887 50H7.0013C6.29711 50 5.72559 49.4351 5.72559 48.7391C5.72559 48.0431 6.29711 47.4783 7.0013 47.4783H20.3887C21.0929 47.4783 21.6644 48.0431 21.6644 48.7391C21.6644 49.4351 21.0929 50 20.3887 50Z" fill="#7BB053"/>
<path d="M37.3256 50H24.3822C23.678 50 23.1064 49.4351 23.1064 48.7391C23.1064 48.0431 23.678 47.4783 24.3822 47.4783H37.323C38.0272 47.4783 38.5988 48.0431 38.5988 48.7391C38.5988 49.4351 38.0298 50 37.3256 50Z" fill="#7BB053"/>
<path d="M29.9614 49.6217C29.6068 49.6217 29.2521 49.4755 28.9995 49.1905C24.9887 44.6515 25.1035 32.4844 25.1112 31.9674L25.1163 31.5412L29.5915 25.8927L24.8356 28.4068L23.3098 19.7044H22.6465L20.664 28.5808L14.9105 25.5447L20.0517 31.5564L20.0695 31.9876C20.3374 38.3624 16.9057 48.1516 16.7603 48.5652C16.5281 49.2233 15.801 49.5688 15.135 49.3393C14.4691 49.1098 14.1196 48.3912 14.3517 47.733C14.3849 47.6397 17.6099 38.4355 17.5308 32.5171L11.4941 25.4589L13.9333 22.1707L18.8933 24.7932L20.5926 17.1878H25.453L26.7415 24.541L31.1989 22.1858L33.4646 25.0908L27.6524 32.4264C27.6575 35.9794 28.229 44.4977 30.9131 47.5363C31.3775 48.0608 31.3213 48.8577 30.7907 49.3141C30.5585 49.5209 30.2574 49.6217 29.9614 49.6217Z" fill="#7BB053"/>
<path d="M27.28 38.7726C27.2417 38.7726 27.2034 38.7726 27.1626 38.7701C26.4584 38.7449 25.9098 38.1599 25.9354 37.4639C25.9609 36.7679 26.5528 36.2232 27.257 36.2509C28.0224 36.2812 29.2344 35.1036 29.8059 34.2992L30.459 33.3813L31.4592 33.9159C33.5437 35.0355 35.2991 35.2877 36.6718 34.6648C39.0217 33.6006 39.7718 30.2871 39.7794 30.2544L39.9351 29.5432L40.6367 29.3163C43.9561 28.2572 44.3082 25.8338 44.321 25.7305L44.3414 25.6094C45.1298 21.9681 41.1827 20.2987 41.0143 20.2307L39.7973 19.7288L40.3459 18.5437C41.8129 15.3638 39.981 13.3691 39.9606 13.349L39.8152 13.1952L39.7284 13.0035C38.7359 10.8071 34.3347 11.4401 34.2913 11.4476L33.1074 11.6342L32.8421 10.4793C32.1098 7.27423 28.1347 7.02206 28.0939 7.01954L27.2315 6.97163L26.9559 6.16217C25.5271 1.97365 23.1288 2.51581 22.8609 2.59146L22.6517 2.65954L22.4526 2.64694C18.6153 2.55616 18.2198 7.32719 18.2045 7.52892L18.1101 8.80742L16.8191 8.69646C12.7419 8.33586 11.7596 13.0615 11.7213 13.2632L11.5172 14.2921L10.4558 14.287C8.62641 14.2744 7.29966 14.751 6.51637 15.7118C5.01102 17.5602 5.71267 20.7173 5.72032 20.7476L5.91933 21.6075L5.16921 22.0891C2.93925 23.5089 2.60502 25.9423 2.55909 26.4441C3.11275 30.5091 8.33299 30.5393 8.55242 30.5318L9.45052 30.5267L9.7618 31.3589C10.6293 33.7141 11.7749 35.101 13.1629 35.4818C15.1428 36.024 17.1967 34.3975 17.2171 34.3824C17.7631 33.9461 18.5643 34.0243 19.0108 34.5614C19.4547 35.0985 19.3807 35.8878 18.8373 36.3316C18.7122 36.4325 15.7679 38.7978 12.5046 37.9203C10.4583 37.3706 8.83818 35.7239 7.67982 33.0181C4.84773 32.7761 0.538353 31.2479 0.0127572 26.6206L0 26.5248L0.00255144 26.429C0.00765431 26.2701 0.178601 22.7851 3.08979 20.4652C2.91374 19.0631 2.82954 16.2262 4.51604 14.1408C5.64378 12.7488 7.30731 11.962 9.46838 11.7956C10.2032 9.50088 12.1397 6.43955 15.824 6.17225C16.3547 3.59509 18.1382 0.125249 22.3174 0.122728C24.0294 -0.303438 27.2723 0.173162 29.094 4.60881C29.663 4.70968 30.4539 4.90132 31.2806 5.2594C33.0641 6.03104 34.3296 7.2591 34.9904 8.84524C36.8606 8.74942 40.55 8.94611 41.9788 11.8007C42.5171 12.4664 44.2189 14.9376 43.0989 18.4781C43.6092 18.7883 44.2317 19.227 44.8262 19.802C46.6454 21.5646 47.3445 23.7383 46.8495 26.0885C46.7627 26.6786 46.1045 29.8963 42.0859 31.4774C41.6624 32.8214 40.4658 35.7088 37.7562 36.9469C35.8553 37.8144 33.6534 37.6984 31.2041 36.6014C30.3774 37.5067 28.9282 38.7726 27.28 38.7726Z" fill="#7BB053"/>
</g>
<defs>
<clipPath id="clip98">
<rect width="47" height="50" fill="white"/>
</clipPath>
</defs>
</svg>
