<svg width="54" height="28" viewBox="0 0 54 28" fill="none" xmlns="http://www.w3.org/2000/svg">
<path d="M41.6902 18.3356C39.9232 18.3356 38.4854 19.7746 38.4854 21.5417C38.4854 23.3098 39.9232 24.7477 41.6902 24.7477C43.4572 24.7477 44.8962 23.3098 44.8962 21.5417C44.8951 19.7735 43.4572 18.3356 41.6902 18.3356ZM41.6902 22.983C40.8943 22.983 40.2488 22.3364 40.2488 21.5405C40.2488 20.7457 40.8943 20.0979 41.6902 20.0979C42.4861 20.0979 43.1327 20.7457 43.1327 21.5405C43.1316 22.3364 42.4861 22.983 41.6902 22.983Z" fill="#7BB053"/>
<path d="M43.4426 0.522461H26.0922C22.9379 0.522461 16.935 6.5489 15.2867 8.26889C14.0076 8.45699 8.96404 9.2247 4.66582 10.2534C0.117188 11.3444 0.117188 17.0417 0.117188 19.4765C0.117188 22.3756 2.60724 23.6395 3.92398 23.904C3.98041 23.9158 4.03919 23.9216 4.0968 23.9216H6.48927C7.4392 26.3071 9.76701 28 12.4887 28C15.208 28 17.537 26.3082 18.4869 23.9216H35.6939C36.645 26.3071 38.9716 28 41.6921 28C44.4126 28 46.7404 26.3082 47.6915 23.9216H48.5556C50.3884 23.9216 53.464 23.1422 53.464 17.9269V12.0416C53.4628 6.92393 46.1984 0.522461 43.4426 0.522461ZM50.312 8.21598H44.77L43.8565 2.36472C45.3437 2.82676 48.4886 5.39205 50.312 8.21598ZM34.3995 8.21598L33.4742 2.28595H42.0589L42.9853 8.21598H34.3995ZM31.6884 2.28595L32.6136 8.21598H17.8238C20.6137 5.4908 24.4299 2.28595 26.0922 2.28595H31.6884ZM4.64818 14.36C4.04272 14.8373 3.19154 15.3569 2.18988 15.5615C2.32625 14.9102 2.51906 14.3141 2.79064 13.7992L4.64818 14.36ZM12.4887 26.2353C9.89986 26.2353 7.79308 24.1297 7.79308 21.5409C7.79308 18.9533 9.89986 16.8465 12.4887 16.8465C15.0763 16.8465 17.1831 18.9533 17.1831 21.5409C17.1831 24.1297 15.0763 26.2353 12.4887 26.2353ZM41.6909 26.2353C39.1033 26.2353 36.9965 24.1297 36.9965 21.5409C36.9965 18.9533 39.1033 16.8465 41.6909 16.8465C44.2797 16.8465 46.3853 18.9533 46.3853 21.5409C46.3853 24.1297 44.2797 26.2353 41.6909 26.2353ZM48.5544 22.1581H48.1182C48.1382 21.9548 48.1488 21.7502 48.1488 21.5421C48.1488 17.981 45.252 15.0842 41.6909 15.0842C38.1298 15.0842 35.233 17.981 35.233 21.5421C35.233 21.7514 35.2459 21.9559 35.2636 22.1581H18.9148C18.9348 21.9548 18.9466 21.7502 18.9466 21.5421C18.9466 17.981 16.0486 15.0842 12.4887 15.0842C8.92759 15.0842 6.02959 17.981 6.02959 21.5421C6.02959 21.7514 6.04252 21.9559 6.06015 22.1581H4.19791C3.78407 22.0512 1.8795 21.4516 1.8795 19.4776C1.8795 18.7664 1.89714 18.0621 1.94769 17.385C4.96796 17.0711 6.94307 14.6104 7.03242 14.4952C7.2123 14.2671 7.26873 13.9626 7.18056 13.6852C7.09356 13.4077 6.87371 13.1902 6.59508 13.1067L4.11208 12.3578C4.39777 12.1874 4.71755 12.0569 5.07613 11.971C9.6953 10.8647 15.1962 10.0653 15.777 9.98183H51.2384C51.423 10.4415 51.5641 10.8965 51.6346 11.3421H50.7188C49.8288 11.3421 49.1058 12.1533 49.1058 13.1526V16.7031C49.1058 17.7024 49.8288 18.5148 50.7188 18.5148H51.6817C51.503 21.7619 49.83 22.1581 48.5544 22.1581ZM50.8716 16.7489C50.8693 16.7348 50.8681 16.7195 50.8681 16.7007V13.1502C50.8681 13.1326 50.8693 13.1173 50.8716 13.1032H51.6981V16.7489H50.8716Z" fill="#7BB053"/>
<path d="M12.4892 18.3356C10.721 18.3356 9.2832 19.7746 9.2832 21.5417C9.2832 23.3098 10.721 24.7477 12.4892 24.7477C14.2562 24.7477 15.6941 23.3098 15.6941 21.5417C15.6941 19.7735 14.2562 18.3356 12.4892 18.3356ZM12.4892 22.983C11.6933 22.983 11.0467 22.3364 11.0467 21.5405C11.0467 20.7457 11.6933 20.0979 12.4892 20.0979C13.284 20.0979 13.9306 20.7457 13.9306 21.5405C13.9306 22.3364 13.284 22.983 12.4892 22.983Z" fill="#7BB053"/>
<path d="M40.3664 11.8794H37.1122C36.6255 11.8794 36.2305 12.2744 36.2305 12.7611C36.2305 13.2478 36.6255 13.6429 37.1122 13.6429H40.3664C40.852 13.6429 41.2482 13.2478 41.2482 12.7611C41.2482 12.2744 40.852 11.8794 40.3664 11.8794Z" fill="#7BB053"/>
<path d="M30.042 11.8794H26.789C26.3022 11.8794 25.9072 12.2744 25.9072 12.7611C25.9072 13.2478 26.3022 13.6429 26.789 13.6429H30.042C30.5299 13.6429 30.9238 13.2478 30.9238 12.7611C30.9238 12.2744 30.5299 11.8794 30.042 11.8794Z" fill="#7BB053"/>
</svg>
