<svg width="43" height="43" viewBox="0 0 43 43" fill="none" xmlns="http://www.w3.org/2000/svg">
<path opacity="0.5" d="M38.2357 7.77041H30.5602V4.76334C30.5602 2.13705 28.4236 0 25.7968 0H4.76339C2.13708 0 0 2.13705 0 4.76334V30.4663C0 33.093 2.13708 35.2291 4.76339 35.2291H12.3112V38.2367C12.3112 40.8625 14.4478 43 17.0746 43H38.2361C40.8629 43 43 40.8625 43 38.2367V12.5333C42.9995 9.9065 40.8624 7.77041 38.2357 7.77041ZM4.76339 32.9397V32.9387C3.39983 32.9387 2.28949 31.8293 2.28949 30.4648V4.76334C2.28949 3.39979 3.39935 2.28946 4.76339 2.28946H25.7968C27.1604 2.28946 28.2708 3.39931 28.2708 4.76334V30.4663C28.2708 31.8298 27.1614 32.9401 25.7968 32.9401H4.76339V32.9397ZM40.71 38.2357C40.71 39.5993 39.6002 40.7096 38.2357 40.7096H17.0742C15.7106 40.7096 14.6002 39.5997 14.6002 38.2357V35.2286H25.7968C28.4236 35.2286 30.5602 33.0916 30.5602 30.4648V30.4132H36.4173V28.1238H30.5602V23.6285H36.4173V21.339H30.5602V16.8437H36.4173V14.5537H30.5602V10.0599H38.2357C39.5992 10.0599 40.71 11.1697 40.71 12.5337V38.2357Z" fill="#838B98"/>
<path opacity="0.5" d="M24.1056 6.51562H6.51465V9.12169H24.1056V6.51562Z" fill="#838B98"/>
<path opacity="0.5" d="M24.1056 13.6816H6.51465V15.6362H24.1056V13.6816Z" fill="#838B98"/>
<path opacity="0.5" d="M24.1056 20.1953H6.51465V22.8014H24.1056V20.1953Z" fill="#838B98"/>
</svg>
