<svg width="42" height="42" viewBox="0 0 42 42" fill="none" xmlns="http://www.w3.org/2000/svg">
<path opacity="0.5" d="M37.3465 7.5897H29.8495V4.65256C29.8495 2.08735 27.7626 0 25.1969 0H4.65262C2.08738 0 0 2.08735 0 4.65256V29.7577C0 32.3234 2.08738 34.4098 4.65262 34.4098H12.0249V37.3474C12.0249 39.9122 14.1118 42 16.6775 42H37.3469C39.9126 42 42 39.9122 42 37.3474V12.2418C41.9995 9.67612 39.9122 7.5897 37.3465 7.5897ZM4.65262 32.1736V32.1727C3.32076 32.1727 2.23624 31.0891 2.23624 29.7563V4.65256C2.23624 3.32073 3.3203 2.23622 4.65262 2.23622H25.1969C26.5288 2.23622 27.6133 3.32026 27.6133 4.65256V29.7577C27.6133 31.0896 26.5297 32.1741 25.1969 32.1741H4.65262V32.1736ZM39.7633 37.3465C39.7633 38.6783 38.6792 39.7629 37.3465 39.7629H16.6771C15.3452 39.7629 14.2607 38.6788 14.2607 37.3465V34.4094H25.1969C27.7626 34.4094 29.8495 32.322 29.8495 29.7563V29.7059H35.5703V27.4697H29.8495V23.079H35.5703V20.8427H29.8495V16.452H35.5703V14.2153H29.8495V9.82592H37.3465C38.6783 9.82592 39.7633 10.91 39.7633 12.2423V37.3465Z" fill="#838B98"/>
<path d="M14.8052 22.0488C14.5268 22.0209 14.2457 22.0511 13.9796 22.1376C13.7135 22.2241 13.4682 22.365 13.2592 22.5513C13.0502 22.7377 12.8821 22.9655 12.7655 23.2203C12.6489 23.4751 12.5863 23.7514 12.5817 24.0317C12.5771 24.312 12.6307 24.5901 12.7389 24.8486C12.8471 25.1071 13.0077 25.3403 13.2105 25.5334C13.4133 25.7266 13.6539 25.8754 13.917 25.9706C14.1802 26.0657 14.4601 26.1052 14.7393 26.0863C15.9847 26.0863 16.8602 25.2458 16.8566 24.0602C16.8629 23.7906 16.8138 23.5226 16.7123 23.2728C16.6109 23.023 16.4593 22.7967 16.2669 22.6081C16.0745 22.4195 15.8455 22.2725 15.5941 22.1763C15.3426 22.0801 15.0741 22.0367 14.8052 22.0488ZM18.8896 8.66271C17.6588 7.50285 16.1642 7.04037 14.2887 7C14.003 7.0367 13.5011 7.06974 13.0103 7.17251C11.9043 7.37549 10.8839 7.90459 10.0798 8.69208C9.74733 9.0438 9.55722 9.50679 9.54639 9.99111C9.53556 10.4754 9.70478 10.9465 10.0212 11.3128C10.6183 11.9845 11.4864 11.9845 12.3253 11.3128L12.3473 11.2908C12.7073 10.9901 13.1242 10.7653 13.573 10.6297C14.0217 10.4941 14.4931 10.4505 14.9591 10.5016C15.3273 10.5073 15.6851 10.6257 15.9843 10.8408C16.2835 11.056 16.5099 11.3577 16.6331 11.7055C16.8529 12.4837 16.4719 13.0452 15.9005 13.5407C15.699 13.7133 15.4682 13.8491 15.2521 14.0069C13.8272 15.053 13.0542 16.4184 13.2411 18.2316C13.2582 18.8106 13.4626 19.3684 13.8235 19.8209C13.8946 19.9211 13.9889 20.0025 14.0985 20.0579C14.208 20.1134 14.3293 20.1412 14.452 20.139C14.5747 20.1369 14.695 20.1048 14.8025 20.0455C14.91 19.9862 15.0015 19.9015 15.069 19.7989C15.2622 19.5368 15.4039 19.2404 15.4866 18.9253C15.7124 18.0362 16.2123 17.2412 16.9152 16.6533C17.2815 16.3303 17.7174 16.0477 18.135 15.7614C18.9762 15.2293 19.6454 14.4643 20.0618 13.5591C20.3892 12.7207 20.4524 11.802 20.2428 10.9265C20.0332 10.0511 19.561 9.261 18.8896 8.66271Z" fill="#C1C5CB"/>
</svg>
