<svg width="44" height="38" viewBox="0 0 44 38" fill="none" xmlns="http://www.w3.org/2000/svg">
<path opacity="0.5" d="M37.8804 0.882812H19.7552C16.345 0.882812 13.5889 3.28027 13.5889 6.22056V18.0722C13.5889 21.0124 16.345 23.4099 19.7552 23.4099H27.65L34.8907 30.0142C35.3579 30.4213 35.9651 30.6475 36.5724 30.6475C36.8994 30.6475 37.2264 30.6023 37.5534 30.4666C38.441 30.1047 39.0016 29.2905 39.0016 28.3858V23.3194C41.8512 22.8218 44 20.6506 44 18.0722V6.22056C44.0468 3.28027 41.2906 0.882812 37.8804 0.882812ZM41.8045 18.0722C41.8045 19.7911 40.0293 21.2386 37.8804 21.2386C37.2731 21.2386 36.806 21.7362 36.806 22.3243V28.3858C36.806 28.3858 36.806 28.4762 36.7126 28.5215C36.6659 28.5215 36.5257 28.5667 36.4323 28.4762L28.8178 21.5553C28.631 21.3743 28.3507 21.2839 28.0704 21.2839H19.7552C17.5596 21.2839 15.7845 19.8363 15.7845 18.1174V6.22056C15.7845 4.45639 17.5596 3.0541 19.7552 3.0541H37.8804C40.076 3.0541 41.8512 4.50162 41.8512 6.22056V18.0722H41.8045Z" fill="#838B98"/>
<path opacity="0.5" d="M24.7711 23.9217C24.1692 23.9217 23.6599 24.4138 23.6599 24.9954V27.1875C23.6599 28.8875 22.2246 30.2297 20.5114 30.2297H12.918C12.6402 30.2297 12.3624 30.3639 12.1309 30.5428L8.24161 34.3455V31.3034C8.24161 30.7218 7.73229 30.2297 7.13038 30.2297H5.32463C3.56519 30.2297 2.17615 28.8428 2.17615 27.1875V15.7794C2.17615 14.0794 3.61149 12.7373 5.32463 12.7373H12.1309C12.7328 12.7373 13.2421 12.2451 13.2421 11.6635C13.2421 11.082 12.7328 10.5898 12.1309 10.5898H5.37093C2.40766 10.5898 0 12.9162 0 15.7794V27.1875C0 30.0507 2.40766 32.3771 5.37093 32.3771H6.06545V35.464C6.06545 36.135 6.48216 36.7614 7.13038 36.985C7.36188 37.0745 7.54709 37.1193 7.77859 37.1193C8.24161 37.1193 8.65832 36.9403 8.98243 36.6271L13.381 32.3771H20.5114C23.4747 32.3771 25.8824 30.0507 25.8824 27.1875V24.9954C25.8824 24.4138 25.373 23.9217 24.7711 23.9217Z" fill="#838B98"/>
<path opacity="0.5" d="M21.6758 13.8243C22.9266 13.8243 23.9405 12.8104 23.9405 11.5596C23.9405 10.3089 22.9266 9.29492 21.6758 9.29492C20.4251 9.29492 19.4111 10.3089 19.4111 11.5596C19.4111 12.8104 20.4251 13.8243 21.6758 13.8243Z" fill="#838B98"/>
<path opacity="0.5" d="M28.794 13.8243C30.0448 13.8243 31.0587 12.8104 31.0587 11.5596C31.0587 10.3089 30.0448 9.29492 28.794 9.29492C27.5432 9.29492 26.5293 10.3089 26.5293 11.5596C26.5293 12.8104 27.5432 13.8243 28.794 13.8243Z" fill="#838B98"/>
<path opacity="0.5" d="M36.2351 13.8243C37.3072 13.8243 38.1763 12.8104 38.1763 11.5596C38.1763 10.3089 37.3072 9.29492 36.2351 9.29492C35.163 9.29492 34.2939 10.3089 34.2939 11.5596C34.2939 12.8104 35.163 13.8243 36.2351 13.8243Z" fill="#838B98"/>
</svg>
