<svg width="43" height="29" viewBox="0 0 43 29" fill="none" xmlns="http://www.w3.org/2000/svg">
<g opacity="0.5" clip-path="url(#clip94)">
<path d="M41.1486 24.7023C41.0194 26.5364 39.5419 27.9254 37.7081 28H37.6637H37.6002H37.5367H37.4732H37.4097H37.3462H37.2826H37.2191H37.1556H37.0921H37.0285H36.965H36.9015H36.8379H36.7744H36.7109H36.6473H36.5838H36.5203H36.4567H36.3932H36.3296H36.2661H36.2025H36.139H36.0754H36.0118H35.9483H35.8847H35.8212H35.7576H35.694H35.6305H35.5669H35.5033H35.4398H35.3762H35.3126H35.249H35.1855H35.1219H35.0583H34.9947H34.9311H34.8676H34.804H34.7404H34.6768H34.6132H34.5496H34.486H34.4224H34.3588H34.2952H34.2316H34.168H34.1044H34.0408H33.9772H33.9136H33.85H33.7864H33.7227H33.6591H33.5955H33.5319H33.4683H33.4047H33.341H33.2774H33.2138H33.1502H33.0865H33.0229H32.9593H32.8956H32.832H32.7684H32.7047H32.6411H32.5775H32.5138H32.4502H32.3866H32.3229H32.2593H32.1956H32.132H32.0683H32.0047H31.941H31.8774H31.8137H31.7501H31.6864H31.6228H31.5591H31.4954H31.4318H31.3681H31.3045H31.2408H31.1771H31.1135H31.0498H30.9861H30.9225H30.8588H30.7951H30.7314H30.6678H30.6041H30.5404H30.4767H30.4131H30.3494H30.2857H30.222H30.1583H30.0947H30.031H29.9673H29.9036H29.8399H29.7762H29.7125H29.6488H29.5852H29.5215H29.4578H29.3941H29.3304H29.2667H29.203H29.1393H29.0756H29.0119H28.9482H28.8845H28.8208H28.7571H28.6934H28.6297H28.566H28.5023H28.4386H28.3749H28.3111H28.2474H28.1837H28.12H28.0563H27.9926H27.9289H27.8652H27.8014H27.7377H27.674H27.6103H27.5466H27.4829H27.4191H27.3554H27.2917H27.228H27.1643H27.1005H27.0368H26.9731H26.9094H26.8456H26.7819H26.7182H26.6545H26.5907H26.527H26.4633H26.3995H26.3358H26.2721H26.2083H26.1446H26.0809H26.0172H25.9534H25.8897H25.826H25.7622H25.6985H25.6347H25.571H25.5073H25.4435H25.3798H25.3161H25.2523H25.1886H25.1248H25.0611H24.9974H24.9336H24.8699H24.8061H24.7424H24.6786H24.6149H24.5512H24.4874H24.4237H24.3599H24.2962H24.2324H24.1687H24.1049H24.0412H23.9775H23.9137H23.85H23.7862H23.7225H23.6587H23.595H23.5312H23.4675H23.4037H23.34H23.2762H23.2125H23.1487H23.085H23.0212H22.9575H22.8937H22.83H22.7662H22.7025H22.6387H22.575H22.5112H22.4475H22.3837H22.32H22.2562H22.1925H22.1287H22.065H22.0012H21.9375H21.8737H21.8099H21.7462H21.6824H21.6187H21.5549H21.4912H21.4274H21.3637H21.2999H21.2362H21.1724H21.1087H21.0449H20.9812H20.9174H20.8537H20.7899H20.7262H20.6624H20.5986H20.5349H20.4711H20.4074H20.3436H20.2799H20.2161H20.1524H20.0886H20.0249H19.9611H19.8974H19.8336H19.7699H19.7061H19.6424H19.5786H19.5149H19.4511H19.3874H19.3236H19.2599H19.1961H19.1324H19.0686H19.0049H18.9412H18.8774H18.8137H18.7499H18.6862H18.6224H18.5587H18.4949H18.4312H18.3674H18.3037H18.24H18.1762H18.1125H18.0487H17.985H17.9212H17.8575H17.7938H17.73H17.6663H17.6025H17.5388H17.4751H17.4113H17.3476H17.2839H17.2201H17.1564H17.0926H17.0289H16.9652H16.9014H16.8377H16.774H16.7102H16.6465H16.5828H16.5191H16.4553H16.3916H16.3279H16.2641H16.2004H16.1367H16.073H16.0092H15.9455H15.8818H15.8181H15.7543H15.6906H15.6269H15.5632H15.4994H15.4357H15.372H15.3083H15.2446H15.1808H15.1171H15.0534H14.9897H14.926H14.8623H14.7986H14.7348H14.6711H14.6074H14.5437H14.48H14.4163H14.3526H14.2889H14.2252H14.1615H14.0978H14.0341H13.9704H13.9067H13.843H13.7793H13.7156H13.6519H13.5882H13.5245H13.4608H13.3971H13.3334H13.2697H13.206H13.1423H13.0786H13.0149H12.9513H12.8876H12.8239H12.7602H12.6965H12.6328H12.5692H12.5055H12.4418H12.3781H12.3144H12.2508H12.1871H12.1234H12.0597H11.9961H11.9324H11.8687H11.8051H11.7414H11.6777H11.6141H11.5504H11.4867H11.4231H11.3594H11.2958H11.2321H11.1685H11.1048H11.0411H10.9775H10.9138H10.8502H10.7865H10.7229H10.6592H10.5956H10.532H10.4683H10.4047H10.341H10.2774H10.2138H10.1501H10.0865H10.0228H9.95921H9.89558H9.83195H9.76832H9.7047H9.64107H9.57745H9.51383H9.4502H9.38658H9.32296H9.25935H9.19573H9.13212H9.0685H9.00489H8.94128H8.87767H8.81407H8.75046H8.68686H8.62325H8.55965H8.49605H8.43245H8.36886H8.30526H8.24167H8.17808H8.11449H8.0509H7.98731H7.92372H7.86014H7.79656H7.73298H7.6694H7.60582H7.54224H7.47867H7.41509H7.35152H7.28795H7.22439H7.16082H7.09725H7.03369H6.97013H6.90657H6.84301H6.77946H6.7159H6.65235H6.5888H6.52525H6.4617H6.39816H6.33461H6.27107H6.20753H6.14399H6.08045H6.01692H5.95338H5.88985H5.82632H5.76279H5.69927H5.63574H5.57222H5.5087H5.44518H5.38167H5.31815H5.25464H5.19113H5.14617C3.27808 27.9263 1.78206 26.4261 1.70873 24.5008C1.70782 23.523 1.63311 22.6202 1.5571 21.7016C1.55206 21.6407 1.54702 21.5798 1.54199 21.5187V7.44023C1.54199 7.29208 1.55634 7.15243 1.57702 6.97421C1.57847 6.96168 1.57999 6.94872 1.58156 6.93537C1.60018 6.77653 1.62537 6.56168 1.62537 6.34111C1.62537 5.48822 1.62863 4.6704 1.76699 3.94572C2.25099 2.17579 3.78416 1 5.46112 1H5.52365H5.58618H5.64871H5.71124H5.77377H5.83631H5.89884H5.96137H6.0239H6.08643H6.14896H6.21149H6.27403H6.33656H6.39909H6.46162H6.52415H6.58668H6.64922H6.71175H6.77428H6.83681H6.89934H6.96188H7.02441H7.08694H7.14947H7.21201H7.27454H7.33707H7.39961H7.46214H7.52467H7.5872H7.64974H7.71227H7.77481H7.83734H7.89987H7.96241H8.02494H8.08748H8.15001H8.21255H8.27508H8.33762H8.40015H8.46269H8.52522H8.58776H8.65029H8.71283H8.77537H8.8379H8.90044H8.96298H9.02551H9.08805H9.15059H9.21313H9.27567H9.3382H9.40074H9.46328H9.52582H9.58836H9.6509H9.71344H9.77598H9.83852H9.90106H9.9636H10.0261H10.0887H10.1512H10.2138H10.2763H10.3389H10.4014H10.4639H10.5265H10.589H10.6516H10.7141H10.7767H10.8392H10.9017H10.9643H11.0268H11.0894H11.1519H11.2145H11.277H11.3396H11.4021H11.4647H11.5272H11.5898H11.6523H11.7149H11.7774H11.84H11.9025H11.9651H12.0276H12.0902H12.1527H12.2153H12.2778H12.3404H12.4029H12.4655H12.528H12.5906H12.6532H12.7157H12.7783H12.8408H12.9034H12.9659H13.0285H13.0911H13.1536H13.2162H13.2787H13.3413H13.4039H13.4664H13.529H13.5915H13.6541H13.7167H13.7792H13.8418H13.9044H13.9669H14.0295H14.0921H14.1546H14.2172H14.2798H14.3423H14.4049H14.4675H14.53H14.5926H14.6552H14.7178H14.7803H14.8429H14.9055H14.9681H15.0306H15.0932H15.1558H15.2184H15.2809H15.3435H15.4061H15.4687H15.5312H15.5938H15.6564H15.719H15.7816H15.8441H15.9067H15.9693H16.0319H16.0945H16.1571H16.2197H16.2822H16.3448H16.4074H16.47H16.5326H16.5952H16.6578H16.7204H16.783H16.8456H16.9081H16.9707H17.0333H17.0959H17.1585H17.2211H17.2837H17.3463H17.4089H17.4715H17.5341H17.5967H17.6593H17.7219H17.7845H17.8471H17.9097H17.9723H18.0349H18.0976H18.1602H18.2228H18.2854H18.348H18.4106H18.4732H18.5358H18.5984H18.661H18.7237H18.7863H18.8489H18.9115H18.9741H19.0367H19.0994H19.162H19.2246H19.2872H19.3499H19.4125H19.4751H19.5377H19.6004H19.663H19.7256H19.7882H19.8509H19.9135H19.9761H20.0388H20.1014H20.164H20.2267H20.2893H20.3519H20.4146H20.4772H20.5398H20.6025H20.6651H20.7278H20.7904H20.8531H20.9157H20.9783H21.041H21.1036H21.1663H21.2289H21.2916H21.3542H21.4169H21.4795H21.5422H21.6048H21.6675H21.7302H21.7928H21.8555H21.9181H21.9808H22.0435H22.1061H22.1688H22.2315H22.2941H22.3568H22.4195H22.4821H22.5448H22.6075H22.6701H22.7328H22.7955H22.8582H22.9208H22.9835H23.0462H23.1089H23.1715H23.2342H23.2969H23.3596H23.4223H23.485H23.5476H23.6103H23.673H23.7357H23.7984H23.8611H23.9238H23.9865H24.0492H24.1119H24.1746H24.2373H24.3H24.3627H24.4254H24.4881H24.5508H24.6135H24.6762H24.7389H24.8016H24.8643H24.927H24.9897H25.0524H25.1152H25.1779H25.2406H25.3033H25.366H25.4288H25.4915H25.5542H25.6169H25.6796H25.7424H25.8051H25.8678H25.9306H25.9933H26.056H26.1188H26.1815H26.2442H26.307H26.3697H26.4324H26.4952H26.5579H26.6207H26.6834H26.7462H26.8089H26.8717H26.9344H26.9972H27.0599H27.1227H27.1854H27.2482H27.3109H27.3737H27.4364H27.4992H27.562H27.6247H27.6875H27.7503H27.813H27.8758H27.9386H28.0014H28.0641H28.1269H28.1897H28.2525H28.3152H28.378H28.4408H28.5036H28.5664H28.6291H28.6919H28.7547H28.8175H28.8803H28.9431H29.0059H29.0687H29.1315H29.1943H29.2571H29.3199H29.3827H29.4455H29.5083H29.5711H29.6339H29.6967H29.7595H29.8223H29.8852H29.948H30.0108H30.0736H30.1364H30.1992H30.2621H30.3249H30.3877H30.4505H30.5134H30.5762H30.639H30.7019H30.7647H30.8275H30.8904H30.9532H31.0161H31.0789H31.1417H31.2046H31.2674H31.3303H31.3931H31.456H31.5188H31.5817H31.6446H31.7074H31.7703H31.8331H31.896H31.9589H32.0217H32.0846H32.1475H32.2103H32.2732H32.3361H32.3989H32.4618H32.5247H32.5876H32.6505H32.7133H32.7762H32.8391H32.902H32.9649H33.0278H33.0907H33.1536H33.2165H33.2794H33.3423H33.4052H33.4681H33.531H33.5939H33.6568H33.7197H33.7826H33.8455H33.9084H33.9714H34.0343H34.0972H34.1601H34.223H34.286H34.3489H34.4118H34.4747H34.5377H34.6006H34.6635H34.7265H34.7894H34.8524H34.9153H34.9782H35.0412H35.1041H35.1671H35.23H35.293H35.3559H35.4189H35.4819H35.5448H35.6078H35.6707H35.7337H35.7967H35.8596H35.9226H35.9856H36.0486H36.1115H36.1745H36.2375H36.3005H36.3635H36.4264H36.4894H36.5524H36.6154H36.6784H36.7414H36.8044H36.8674H36.9304H36.9934H37.0564H37.1194H37.1824H37.2454H37.3084H37.3714H37.4345H37.4975H37.5605C39.5337 1 41.1578 2.52557 41.2296 4.50096C41.2326 4.82362 41.3084 5.17055 41.3849 5.43867C41.3839 5.46302 41.383 5.48842 41.3821 5.51453C41.3772 5.66245 41.3729 5.87084 41.3688 6.12713C41.3608 6.64149 41.3539 7.3687 41.3481 8.23535C41.3363 9.9696 41.3285 12.2727 41.3233 14.5717C41.3181 16.871 41.3155 19.1676 41.3142 20.8892C41.3135 21.7501 41.3132 22.4672 41.313 22.9692L41.3129 23.5518L41.3129 23.6475C41.2758 23.828 41.255 23.9967 41.2392 24.1254L41.237 24.143C41.2151 24.321 41.2003 24.4313 41.1752 24.5332L41.1546 24.6166L41.1486 24.7023Z" stroke="#838B98" stroke-width="2"/>
<path d="M26.6737 15.1538L30.7864 19.3478C29.2195 18.2498 27.6534 17.1432 26.0875 16.0148C25.6143 15.648 24.959 15.5961 24.4889 16.0265C24.0552 16.3298 23.6044 16.6056 23.1383 16.8905L23.1318 16.8944C22.6616 17.1818 22.1758 17.4789 21.7045 17.8104L21.6934 17.8182L21.6828 17.8266C21.5371 17.9413 21.3349 17.9413 21.1893 17.8266L21.1786 17.8182L21.1675 17.8104C20.6995 17.4811 20.2329 17.1857 19.7777 16.8975L19.7732 16.8946C19.3235 16.6099 18.885 16.3322 18.448 16.0261C17.9992 15.6195 17.2801 15.62 16.832 16.0276C15.2668 17.1452 13.7025 18.2621 12.1246 19.3787L16.264 15.1537L16.6578 14.7517L16.2123 14.4079L10.9801 10.3701C14.065 11.9961 17.1662 13.6475 20.2323 15.2988C20.9805 15.7783 22.0243 15.778 22.7721 15.2979C25.824 13.6282 28.912 11.9937 32.0114 10.3672L26.727 14.4065L26.2776 14.75L26.6737 15.1538Z" fill="#838B98" stroke="#838B98"/>
</g>
<defs>
<clipPath id="clip94">
<rect width="41.6875" height="29" fill="white" transform="translate(0.625)"/>
</clipPath>
</defs>
</svg>
