<svg width="97" height="81" viewBox="0 0 97 81" fill="none" xmlns="http://www.w3.org/2000/svg">
<path d="M16.1667 16.1667H24.25V64.6667H16.1667V16.1667ZM28.2917 16.1667H32.3333V64.6667H28.2917V16.1667ZM36.375 16.1667H48.5V64.6667H36.375V16.1667ZM52.5417 16.1667H56.5833V64.6667H52.5417V16.1667ZM64.6667 16.1667H72.75V64.6667H64.6667V16.1667ZM76.7917 16.1667H80.8333V64.6667H76.7917V16.1667ZM8.08333 8.08333V24.25H0V8.08333C0 5.9395 0.851635 3.88347 2.36755 2.36755C3.88347 0.851634 5.9395 0 8.08333 0H24.25V8.08333H8.08333ZM88.9167 0C91.0605 0 93.1165 0.851634 94.6324 2.36755C96.1484 3.88347 97 5.9395 97 8.08333V24.25H88.9167V8.08333H72.75V0H88.9167ZM8.08333 56.5833V72.75H24.25V80.8333H8.08333C5.9395 80.8333 3.88347 79.9817 2.36755 78.4658C0.851635 76.9499 0 74.8938 0 72.75V56.5833H8.08333ZM88.9167 72.75V56.5833H97V72.75C97 74.8938 96.1484 76.9499 94.6324 78.4658C93.1165 79.9817 91.0605 80.8333 88.9167 80.8333H72.75V72.75H88.9167Z" fill="#F2F2F2"/>
</svg>
