<svg width="33" height="21" viewBox="0 0 33 21" fill="none" xmlns="http://www.w3.org/2000/svg">
<path d="M5.13527 10.6888C5.82922 7.28779 8.88262 4.78906 12.3524 4.78906C15.8222 4.78906 18.8756 7.28779 19.5001 10.6888C22.3453 10.6888 24.7048 12.9793 24.7048 15.8251C24.7048 18.6015 22.4147 20.892 19.5695 20.892H5.13527C2.29005 20.892 0 18.6015 0 15.8251C0 12.9793 2.35945 10.6888 5.13527 10.6888ZM6.24559 11.3829C6.24559 11.73 5.89862 11.9382 5.62103 11.9382C3.26159 11.5912 1.17972 13.4652 1.17972 15.8251C1.17972 17.9768 2.91461 19.712 5.13527 19.712H19.5695C21.7208 19.712 23.5251 17.9768 23.5251 15.8251C23.5251 13.4652 21.4432 11.5912 19.1532 11.8688C18.8062 11.9382 18.4592 11.73 18.4592 11.3829C18.0428 8.32893 15.4752 5.96902 12.3524 5.96902C9.2296 5.96902 6.59257 8.32893 6.24559 11.3829Z" fill="#92BCCD"/>
<path d="M16.7237 4.71982C16.6543 5.06687 16.3073 5.20569 15.9604 5.06687C15.6828 4.99746 15.544 4.65041 15.6134 4.37278C16.5155 1.73523 19.0138 0 21.7896 0C24.843 0 27.5494 2.15168 28.174 5.20569C30.6722 5.20569 32.7541 7.28796 32.7541 9.78669C32.7541 12.2854 30.6722 14.3677 28.174 14.3677H25.5369C25.19 14.3677 24.9124 14.0901 24.9124 13.743C24.9124 13.4654 25.19 13.1877 25.5369 13.1877H28.174C30.0476 13.1877 31.5743 11.6607 31.5743 9.78669C31.5743 7.77383 29.7701 6.17742 27.7576 6.38564C27.4106 6.45505 27.133 6.24683 27.0636 5.89978C26.7861 3.19282 24.496 1.17996 21.7896 1.17996C19.4995 1.17996 17.4871 2.56814 16.7237 4.71982Z" fill="#92BCCD"/>
</svg>
