<svg width="25" height="24" viewBox="0 0 25 24" fill="none" xmlns="http://www.w3.org/2000/svg">
<path d="M13.8137 15.0029C11.2463 15.0029 9.13574 12.9141 9.13574 10.3249C9.13574 7.73573 11.2463 5.64697 13.8137 5.64697C16.3811 5.64697 18.4916 7.75749 18.4916 10.3249C18.4916 12.8923 16.3811 15.0029 13.8137 15.0029Z" fill="#FFE600"/>
<path d="M13.9657 3.14475C14.4444 3.05772 14.7707 2.6008 14.6837 2.12213L14.3791 0.468533C14.3356 0.250954 14.1615 0.0551335 13.9222 0.0116178C13.6176 -0.0536558 13.313 0.163923 13.2477 0.468533L12.9431 2.10037C12.9213 2.20916 12.9213 2.31795 12.9431 2.42674C13.0301 2.90541 13.487 3.23178 13.9657 3.14475Z" fill="#FFE600"/>
<path d="M13.6608 17.5038C13.1821 17.5909 12.8557 18.0478 12.9428 18.5265L13.2474 20.1801C13.2909 20.3976 13.465 20.5935 13.7043 20.637C14.0089 20.7022 14.3135 20.4847 14.3788 20.1801L14.6834 18.5265C14.7052 18.4177 14.7052 18.3089 14.6834 18.2001C14.5964 17.7432 14.1395 17.4168 13.6608 17.5038Z" fill="#FFE600"/>
<path d="M20.1771 15.7667C20.1069 15.6836 20.0367 15.6005 19.9355 15.555C19.5291 15.2831 18.983 15.4257 18.7111 15.8321C18.4392 16.2385 18.5818 16.7846 18.9882 17.0565L20.3885 17.9583C20.5811 18.0918 20.8502 18.0866 21.0424 17.9298C21.2868 17.7403 21.3484 17.3749 21.1589 17.1305L20.1771 15.7667Z" fill="#FFE600"/>
<path d="M20.2684 5.35878L21.4024 4.11558C21.5555 3.94225 21.6112 3.69375 21.4943 3.46752C21.3474 3.17933 21.0042 3.07003 20.716 3.2169L19.2347 3.97839C19.154 4.03268 19.0516 4.08976 18.9737 4.16563C18.6486 4.53664 18.675 5.08169 19.0245 5.40956C19.3739 5.73743 19.9405 5.70821 20.2684 5.35878Z" fill="#FFE600"/>
<path d="M11.5085 14.3944C9.27464 13.1289 8.46785 10.2713 9.74406 8.01846C11.0203 5.76564 13.8861 4.98851 16.12 6.25399C18.3539 7.51947 19.15 10.3961 17.8845 12.63C16.619 14.8638 13.7424 15.6599 11.5085 14.3944Z" fill="#FFE600"/>
<path d="M8.50174 3.9265L6.93156 3.31224C6.71676 3.21856 6.45378 3.27578 6.29553 3.46682C6.09244 3.70003 6.10282 4.07041 6.33602 4.27349L7.58569 5.40033C7.67068 5.46825 7.75566 5.53616 7.86373 5.56126C8.31508 5.74928 8.8233 5.50369 9.01132 5.05234C9.1776 4.60033 8.95376 4.09277 8.50174 3.9265Z" fill="#FFE600"/>
<path d="M5.59318 9.51882L3.94002 9.83265C3.7135 9.87937 3.51981 10.0447 3.47756 10.2959C3.42208 10.6145 3.63098 10.9079 3.94963 10.9634L5.59152 11.2433C5.68869 11.2484 5.8048 11.2641 5.9127 11.2502C6.39539 11.1486 6.70137 10.6967 6.61864 10.2248C6.53592 9.7528 6.06516 9.4361 5.59318 9.51882Z" fill="#FFE600"/>
<path d="M8.71265 15.2875C8.35663 14.9559 7.79525 14.9676 7.46366 15.3236L6.32052 16.5567C6.17217 16.7217 6.11932 16.9783 6.22758 17.1962C6.35743 17.4793 6.71398 17.5933 6.99715 17.4635L8.50462 16.7187C8.60483 16.6711 8.69202 16.606 8.7662 16.5235C9.08035 16.1805 9.06867 15.6191 8.71265 15.2875Z" fill="#FFE600"/>
<path d="M22.034 11.1305L23.6871 10.8167C23.9136 10.77 24.1073 10.6046 24.1496 10.3535C24.2051 10.0348 23.9962 9.74145 23.6775 9.68596L22.0356 9.40602C21.9385 9.40098 21.8224 9.38522 21.7145 9.39912C21.2318 9.50077 20.9258 9.9526 21.0085 10.4246C21.0912 10.8965 21.562 11.2132 22.034 11.1305Z" fill="#FFE600"/>
</svg>
