<svg width="22" height="17" viewBox="0 0 22 17" fill="none" xmlns="http://www.w3.org/2000/svg">
<path d="M2.73902 4.47876L1.64062 4.01367" stroke="#FFE600" stroke-width="1.3" stroke-miterlimit="10" stroke-linecap="round" stroke-linejoin="round"/>
<path d="M8.32324 2.53232L8.68937 1.51758" stroke="#FFE600" stroke-width="1.3" stroke-miterlimit="10" stroke-linecap="round" stroke-linejoin="round"/>
<path d="M2.14416 7.65039L1 7.77723" stroke="#FFE600" stroke-width="1.3" stroke-miterlimit="10" stroke-linecap="round" stroke-linejoin="round"/>
<path d="M5.0729 2.53232L4.61523 1.51758" stroke="#FFE600" stroke-width="1.3" stroke-miterlimit="10" stroke-linecap="round" stroke-linejoin="round"/>
<path d="M16.6524 16.1032C19.0323 16.1032 21.0002 14.2851 21.0002 12.0865C21.0002 10.7335 20.268 9.54968 19.1696 8.78862C19.1696 8.70406 19.1696 8.57721 19.1696 8.49265C19.1696 5.70211 16.6982 3.41895 13.6776 3.41895C10.657 3.41895 8.18563 5.70211 8.18563 8.49265C8.18563 9.00002 8.27716 9.50739 8.41446 9.97248C7.72797 9.33827 6.76687 8.91546 5.66847 8.91546C3.51745 8.91546 1.77832 10.5221 1.77832 12.5093C1.77832 14.4965 3.51745 16.1032 5.66847 16.1032" stroke="#92BCCD" stroke-width="1.3" stroke-miterlimit="10" stroke-linecap="round" stroke-linejoin="round"/>
</svg>
