<svg width="26" height="22" viewBox="0 0 26 22" fill="none" xmlns="http://www.w3.org/2000/svg">
<path d="M3.05664 8.47412H3.94605C4.1539 6.83861 5.58189 5.63629 7.22875 5.71022C7.25015 5.55491 7.27771 5.39991 7.31208 5.24654C7.98295 2.24011 10.9644 0.346824 13.9712 1.01769C16.9773 1.68857 18.8706 4.67035 18.1997 7.67646C18.9053 7.62912 19.5898 7.92646 20.0372 8.47412H21.0845C20.701 7.71375 20.0191 7.14729 19.2013 6.91026C19.449 3.35001 16.7636 0.263168 13.204 0.0157664C10.0889 -0.201156 7.26474 1.84096 6.494 4.86717C4.65681 5.13889 3.23952 6.6259 3.05664 8.47412Z" fill="#92BCCD"/>
<path d="M24.0328 18.6704C24.003 18.7161 23.9722 18.7608 23.9404 18.8046C22.7887 20.4074 20.5559 20.7715 18.9541 19.6204C16.8417 18.101 13.9954 18.101 11.8826 19.6204C10.6365 20.516 8.95755 20.516 7.71114 19.6204C5.43556 17.9839 2.3351 18.1227 0.214834 19.9554C-0.0445645 20.1794 -0.0730984 20.5721 0.151282 20.8312C0.375662 21.0909 0.767678 21.1194 1.02708 20.895C2.71252 19.4379 5.17746 19.3276 6.98612 20.6279C8.6654 21.8357 10.9283 21.8357 12.6076 20.6279C14.2872 19.4207 16.5498 19.4207 18.2288 20.6279C20.3876 22.1807 23.3967 21.6885 24.9488 19.5296C24.9913 19.47 25.0331 19.41 25.073 19.3484C25.2604 19.0608 25.1794 18.6765 24.8918 18.4891C24.6042 18.3017 24.2199 18.3828 24.0328 18.6704Z" fill="#92BCCD"/>
<path d="M24.0328 14.6044C24.003 14.6502 23.9722 14.6943 23.9404 14.7393C22.7887 16.3408 20.5559 16.7056 18.9541 15.5538C16.8417 14.0351 13.9954 14.0351 11.8826 15.5538C10.6365 16.4501 8.95755 16.4501 7.71114 15.5538C5.43556 13.918 2.3351 14.0568 0.214834 15.8894C-0.0445645 16.1135 -0.0730984 16.5055 0.151282 16.7652C0.375662 17.0243 0.767678 17.0535 1.02708 16.8285C2.71252 15.3719 5.17746 15.2611 6.98612 16.5619C8.6654 17.7698 10.9283 17.7698 12.6076 16.5619C14.2872 15.3548 16.5498 15.3548 18.2288 16.5619C20.3876 18.1141 23.3967 17.6226 24.9488 15.4637C24.9913 15.404 25.0331 15.3434 25.073 15.2818C25.2604 14.9948 25.1794 14.61 24.8918 14.4232C24.6045 14.2358 24.2199 14.3168 24.0328 14.6044Z" fill="#92BCCD"/>
<path d="M24.0328 10.5756C24.003 10.6214 23.9722 10.6661 23.9404 10.7105C22.7887 12.312 20.5559 12.6774 18.9541 11.5254C16.8417 10.0063 13.9954 10.0063 11.8826 11.5254C10.6365 12.4213 8.95755 12.4213 7.71114 11.5254C5.43556 9.88921 2.3351 10.028 0.214834 11.8606C-0.0445645 12.085 -0.0730984 12.477 0.151282 12.7364C0.375662 12.9958 0.767678 13.0247 1.02708 12.8003C2.71252 11.3431 5.17746 11.2329 6.98612 12.5335C8.6654 13.741 10.9283 13.741 12.6076 12.5335C14.2872 11.326 16.5498 11.326 18.2288 12.5335C20.3876 14.086 23.3967 13.5941 24.9488 11.4352C24.9913 11.3752 25.0331 11.3153 25.073 11.2536C25.2604 10.966 25.1794 10.5812 24.8918 10.3944C24.6045 10.207 24.2199 10.288 24.0328 10.5756Z" fill="#92BCCD"/>
</svg>
