<svg width="20" height="21" viewBox="0 0 20 21" fill="none" xmlns="http://www.w3.org/2000/svg">
<path d="M6.43343 0.000520144C6.35782 0.00423983 6.28325 0.0196684 6.21237 0.0462554C2.26671 1.50849 0 5.34201 0 9.70403C0 15.3818 4.61268 20.0021 10.2904 20.0021C14.6524 20.0021 18.4936 17.7278 19.9558 13.7821C20.0043 13.6492 20.0133 13.5052 19.9816 13.3673C19.9499 13.2295 19.879 13.1038 19.7774 13.0054C19.6758 12.907 19.5479 12.8402 19.4091 12.813C19.2703 12.7858 19.1266 12.7994 18.9954 12.8521C17.9969 13.2537 16.8989 13.4619 15.7406 13.4619C10.9604 13.4619 6.54012 9.03399 6.54012 4.2539C6.54012 3.09554 6.74077 1.99753 7.14232 0.999089C7.18669 0.885964 7.2022 0.763576 7.18744 0.642958C7.17268 0.52234 7.12812 0.407294 7.05778 0.308206C6.98743 0.209118 6.89352 0.129107 6.78452 0.0753908C6.67552 0.021675 6.55486 -0.00406073 6.43343 0.000520144ZM5.29766 2.12723C5.15565 2.81609 5.07659 3.52643 5.07659 4.2539C5.07659 9.91553 10.0789 14.9255 15.7406 14.9255C16.468 14.9255 17.1784 14.8388 17.8673 14.6968C16.3389 17.1479 13.5637 18.5385 10.2904 18.5385C5.40364 18.5385 1.46353 14.5908 1.46353 9.70403C1.46353 6.43034 2.84605 3.65544 5.29766 2.12723Z" fill="#92BCCD"/>
</svg>
