<svg width="30" height="27" viewBox="0 0 30 27" fill="none" xmlns="http://www.w3.org/2000/svg">
<path d="M5.18106 4.28865C3.77178 5.4992 3.77256 8.06528 5 9.5C5.51906 9.29362 6.41069 8.15167 8 9C7.50334 4.75837 9.85116 5.24079 9.99989 4.64733C8.77246 3.25745 6.59034 3.07811 5.18106 4.28865Z" fill="#FFE600"/>
<path d="M2.73902 3.96118L1.64062 3.49609" stroke="#FFE600" stroke-width="1.3" stroke-miterlimit="10" stroke-linecap="round" stroke-linejoin="round"/>
<path d="M8.32324 2.01474L8.68937 1" stroke="#FFE600" stroke-width="1.3" stroke-miterlimit="10" stroke-linecap="round" stroke-linejoin="round"/>
<path d="M2.14416 7.13281L1 7.25966" stroke="#FFE600" stroke-width="1.3" stroke-miterlimit="10" stroke-linecap="round" stroke-linejoin="round"/>
<path d="M5.0729 2.01474L4.61523 1" stroke="#FFE600" stroke-width="1.3" stroke-miterlimit="10" stroke-linecap="round" stroke-linejoin="round"/>
<path d="M26.7829 15.26L26.7733 15.2686L26.7663 15.2794C26.6181 15.5053 26.5469 15.6891 26.5531 15.8369C26.5563 15.914 26.5806 15.9814 26.6251 16.0361C26.6687 16.0898 26.7268 16.1253 26.7886 16.1483C26.9095 16.1933 27.0608 16.1964 27.2051 16.1822C27.3519 16.1677 27.5033 16.134 27.6312 16.0958L27.6548 16.0888L27.6724 16.0715C28.7215 15.0464 29.1 13.3658 29.1 11.5C29.1 8.40796 26.4816 5.9 23.2708 5.9C22.8556 5.9 22.4337 5.95114 21.9921 6.05368C20.6468 3.51323 17.9348 1.9 14.9375 1.9C11.1025 1.9 7.82585 4.55772 7.15513 8.15184C5.22134 8.77714 3.9 10.5093 3.9 12.5C3.9 15.04 6.05178 17.1 8.6875 17.1C9.02634 17.1 9.30833 16.835 9.30833 16.5C9.30833 16.165 9.02634 15.9 8.6875 15.9C6.72843 15.9 5.14167 14.371 5.14167 12.5C5.14167 10.9344 6.25353 9.57765 7.85369 9.20545C8.10288 9.14852 8.29241 8.94734 8.32519 8.69804L8.3252 8.69794C8.74122 5.50983 11.5814 3.1 14.9375 3.1C17.6247 3.1 20.0357 4.63522 21.0835 7.00642C21.2102 7.2939 21.5407 7.43806 21.8467 7.34138C22.363 7.17879 22.8288 7.1 23.2708 7.1C25.8039 7.1 27.8583 9.07804 27.8583 11.5C27.8583 12.3058 27.8009 13.0567 27.6365 13.7023C27.4722 14.3475 27.2026 14.8811 26.7829 15.26Z" fill="#92BCCD" stroke="#92BCCD" stroke-width="0.2"/>
<path d="M12.7276 16.1819C12.8281 15.7801 12.5837 15.3729 12.1819 15.2724C11.7801 15.1719 11.3729 15.4163 11.2724 15.8181L12.7276 16.1819ZM9.27239 23.8181C9.17193 24.2199 9.41625 24.6271 9.8181 24.7276C10.2199 24.8281 10.6271 24.5837 10.7276 24.1819L9.27239 23.8181ZM11.2724 15.8181L9.27239 23.8181L10.7276 24.1819L12.7276 16.1819L11.2724 15.8181Z" fill="#92BCCD"/>
<path d="M16.7211 16.206C16.8349 15.8078 16.6043 15.3927 16.206 15.2789C15.8078 15.1651 15.3927 15.3957 15.2789 15.794L16.7211 16.206ZM13.2789 22.794C13.1651 23.1922 13.3957 23.6073 13.794 23.7211C14.1922 23.8349 14.6073 23.6043 14.7211 23.206L13.2789 22.794ZM15.2789 15.794L13.2789 22.794L14.7211 23.206L16.7211 16.206L15.2789 15.794Z" fill="#92BCCD"/>
<path d="M20.7276 16.1819C20.8281 15.7801 20.5837 15.3729 20.1819 15.2724C19.7801 15.1719 19.3729 15.4163 19.2724 15.8181L20.7276 16.1819ZM16.7724 25.8181C16.6719 26.2199 16.9163 26.6271 17.3181 26.7276C17.7199 26.8281 18.1271 26.5837 18.2276 26.1819L16.7724 25.8181ZM19.2724 15.8181L16.7724 25.8181L18.2276 26.1819L20.7276 16.1819L19.2724 15.8181Z" fill="#92BCCD"/>
<path d="M24.7276 16.1819C24.8281 15.7801 24.5837 15.3729 24.1819 15.2724C23.7801 15.1719 23.3729 15.4163 23.2724 15.8181L24.7276 16.1819ZM21.2724 23.8181C21.1719 24.2199 21.4163 24.6271 21.8181 24.7276C22.2199 24.8281 22.6271 24.5837 22.7276 24.1819L21.2724 23.8181ZM23.2724 15.8181L21.2724 23.8181L22.7276 24.1819L24.7276 16.1819L23.2724 15.8181Z" fill="#92BCCD"/>
</svg>
