<svg width="23" height="15" viewBox="0 0 23 15" fill="none" xmlns="http://www.w3.org/2000/svg">
<path d="M3.71292 5.64956C1.91701 6.24163 0.719728 7.94384 0.719728 9.86806C0.719728 12.3104 2.74014 14.3086 5.20952 14.3086H18.2299C20.6993 14.3086 22.7197 12.3104 22.7197 9.86806C22.7197 7.57379 21.0735 5.72357 18.8286 5.42754C18.5293 3.87335 17.4816 2.68921 16.0599 2.09714C14.7129 1.57908 13.2163 1.65309 12.019 2.39318C10.8966 0.468946 8.57687 -0.123124 6.55646 0.616964C4.46122 1.35705 3.18912 3.35529 3.71292 5.64956ZM4.61088 6.68569C4.98503 6.61168 5.20952 6.24163 5.05986 5.87159C4.38639 4.02137 5.28435 2.39318 7.00544 1.8011C8.72653 1.13503 10.4476 1.8011 11.1959 3.57732C11.2707 3.94736 11.8694 4.09538 12.1687 3.79934C13.1415 2.98525 14.4136 2.76322 15.6109 3.28128C16.7333 3.72533 17.4816 4.76146 17.6313 5.9456C17.6313 6.31564 17.8558 6.61168 18.2299 6.61168C20.0258 6.61168 21.4476 8.09185 21.4476 9.86806C21.4476 11.6443 20.0258 13.0504 18.2299 13.0504H5.20952C3.4136 13.0504 1.91701 11.6443 1.91701 9.86806C1.91701 8.31388 3.03946 6.98172 4.61088 6.68569Z" fill="#92BCCD"/>
</svg>
