<svg width="27" height="26" viewBox="0 0 27 26" fill="none" xmlns="http://www.w3.org/2000/svg">
<path d="M23.7829 14.26L23.7733 14.2686L23.7663 14.2794C23.6181 14.5053 23.5469 14.6891 23.5531 14.8369C23.5563 14.914 23.5806 14.9814 23.6251 15.0361C23.6687 15.0898 23.7268 15.1253 23.7886 15.1483C23.9095 15.1933 24.0608 15.1964 24.2051 15.1822C24.3519 15.1677 24.5033 15.134 24.6312 15.0958L24.6548 15.0888L24.6724 15.0715C25.7215 14.0464 26.1 12.3658 26.1 10.5C26.1 7.40796 23.4816 4.9 20.2708 4.9C19.8556 4.9 19.4337 4.95114 18.9921 5.05368C17.6468 2.51323 14.9348 0.9 11.9375 0.9C8.10249 0.9 4.82585 3.55772 4.15513 7.15184C2.22134 7.77714 0.9 9.50935 0.9 11.5C0.9 14.04 3.05178 16.1 5.6875 16.1C6.02634 16.1 6.30833 15.835 6.30833 15.5C6.30833 15.165 6.02634 14.9 5.6875 14.9C3.72843 14.9 2.14167 13.371 2.14167 11.5C2.14167 9.93444 3.25353 8.57765 4.85369 8.20545C5.10288 8.14852 5.29241 7.94734 5.32519 7.69804L5.3252 7.69794C5.74122 4.50983 8.58142 2.1 11.9375 2.1C14.6247 2.1 17.0357 3.63522 18.0835 6.00642C18.2102 6.2939 18.5407 6.43806 18.8467 6.34138C19.363 6.17879 19.8288 6.1 20.2708 6.1C22.8039 6.1 24.8583 8.07804 24.8583 10.5C24.8583 11.3058 24.8009 12.0567 24.6365 12.7023C24.4722 13.3475 24.2026 13.8811 23.7829 14.26Z" fill="#92BCCD" stroke="#92BCCD" stroke-width="0.2"/>
<path d="M9.72761 15.1819C9.82807 14.7801 9.58375 14.3729 9.1819 14.2724C8.78006 14.1719 8.37285 14.4163 8.27239 14.8181L9.72761 15.1819ZM6.27239 22.8181C6.17193 23.2199 6.41625 23.6271 6.8181 23.7276C7.21994 23.8281 7.62715 23.5837 7.72761 23.1819L6.27239 22.8181ZM8.27239 14.8181L6.27239 22.8181L7.72761 23.1819L9.72761 15.1819L8.27239 14.8181Z" fill="#92BCCD"/>
<path d="M13.7211 15.206C13.8349 14.8078 13.6043 14.3927 13.206 14.2789C12.8078 14.1651 12.3927 14.3957 12.2789 14.794L13.7211 15.206ZM10.2789 21.794C10.1651 22.1922 10.3957 22.6073 10.794 22.7211C11.1922 22.8349 11.6073 22.6043 11.7211 22.206L10.2789 21.794ZM12.2789 14.794L10.2789 21.794L11.7211 22.206L13.7211 15.206L12.2789 14.794Z" fill="#92BCCD"/>
<path d="M17.7276 15.1819C17.8281 14.7801 17.5837 14.3729 17.1819 14.2724C16.7801 14.1719 16.3729 14.4163 16.2724 14.8181L17.7276 15.1819ZM13.7724 24.8181C13.6719 25.2199 13.9163 25.6271 14.3181 25.7276C14.7199 25.8281 15.1271 25.5837 15.2276 25.1819L13.7724 24.8181ZM16.2724 14.8181L13.7724 24.8181L15.2276 25.1819L17.7276 15.1819L16.2724 14.8181Z" fill="#92BCCD"/>
<path d="M21.7276 15.1819C21.8281 14.7801 21.5837 14.3729 21.1819 14.2724C20.7801 14.1719 20.3729 14.4163 20.2724 14.8181L21.7276 15.1819ZM18.2724 22.8181C18.1719 23.2199 18.4163 23.6271 18.8181 23.7276C19.2199 23.8281 19.6271 23.5837 19.7276 23.1819L18.2724 22.8181ZM20.2724 14.8181L18.2724 22.8181L19.7276 23.1819L21.7276 15.1819L20.2724 14.8181Z" fill="#92BCCD"/>
</svg>
