<svg width="26" height="23" viewBox="0 0 26 23" fill="none" xmlns="http://www.w3.org/2000/svg">
<path d="M22.8674 14.2614L22.8581 14.2701L22.8513 14.2809C22.7089 14.5071 22.6411 14.6902 22.647 14.8367C22.65 14.9129 22.673 14.9798 22.7157 15.0346C22.7578 15.0885 22.8141 15.1245 22.8744 15.1478C22.992 15.1934 23.1387 15.1964 23.2777 15.1822C23.4192 15.1676 23.565 15.1338 23.6882 15.0955L23.7122 15.088L23.7298 15.0701C24.7369 14.0449 25.1 12.365 25.1 10.5C25.1 7.41177 22.5882 4.9 19.5 4.9C19.1022 4.9 18.6982 4.95084 18.2755 5.05272C16.9838 2.51419 14.3801 0.9 11.5 0.9C7.81333 0.9 4.66818 3.56098 4.02482 7.1528C2.16623 7.77961 0.9 9.51261 0.9 11.5C0.9 14.0362 2.96377 16.1 5.5 16.1C5.83123 16.1 6.1 15.8312 6.1 15.5C6.1 15.1688 5.83123 14.9 5.5 14.9C3.62523 14.9 2.1 13.3748 2.1 11.5C2.1 9.9315 3.16905 8.57649 4.70137 8.20523C4.94401 8.14746 5.12503 7.94458 5.15621 7.69752L5.15622 7.69743C5.55595 4.50648 8.2834 2.1 11.5 2.1C14.0758 2.1 16.3895 3.63291 17.3959 6.00493C17.517 6.29149 17.8364 6.43935 18.1352 6.34102C18.6303 6.1786 19.0767 6.1 19.5 6.1C21.9258 6.1 23.9 8.07423 23.9 10.5C23.9 11.306 23.8449 12.0573 23.687 12.7032C23.5291 13.3491 23.27 13.8827 22.8674 14.2614Z" fill="#92BCCD" stroke="#92BCCD" stroke-width="0.2"/>
<path d="M20.0575 12.2184L20.0578 12.2182L20.0535 12.2115C19.9216 12.0053 19.6673 11.9762 19.4743 12.0486L19.4675 12.0511L19.4612 12.0546L18.0985 12.8047V11.4953C18.0985 11.3781 18.0563 11.2737 17.9766 11.199C17.8975 11.1248 17.7895 11.0872 17.6701 11.0872C17.5506 11.0872 17.4426 11.1248 17.3635 11.199C17.2839 11.2737 17.2416 11.3781 17.2416 11.4953V13.2532L14.4198 14.7778V11.7699L16.0432 10.8743L16.044 10.8739C16.2627 10.7508 16.2991 10.5057 16.2183 10.3162L16.215 10.3086L16.2106 10.3016C16.0787 10.0954 15.8243 10.0662 15.6314 10.1386L15.6246 10.1411L15.6184 10.1446L14.4198 10.8026V9.30806C14.4198 9.19091 14.3776 9.08649 14.2979 9.01178C14.2188 8.93761 14.1108 8.9 13.9914 8.9C13.8719 8.9 13.7639 8.93761 13.6848 9.01178C13.6052 9.08649 13.5629 9.19091 13.5629 9.30806V10.8026L12.3653 10.1451C12.3651 10.145 12.3649 10.1449 12.3648 10.1448C12.1498 10.0241 11.8962 10.1077 11.7722 10.3016C11.6361 10.5143 11.7358 10.7597 11.9387 10.8739L11.9387 10.8739L11.9395 10.8743L13.5629 11.7699V14.8077L10.7739 13.2843V11.5261C10.7739 11.4089 10.7317 11.3045 10.652 11.2298C10.5729 11.1556 10.4649 11.118 10.3455 11.118C10.2261 11.118 10.118 11.1556 10.039 11.2298C9.95929 11.3045 9.91703 11.4089 9.91703 11.5261V12.8355L8.55473 12.0856C8.3397 11.9649 8.0861 12.0484 7.96206 12.2423C7.82597 12.455 7.92567 12.7004 8.12864 12.8146L8.12864 12.8146L8.12945 12.8151L9.481 13.5591L8.29378 14.2109L8.29378 14.2109L8.29287 14.2114C8.07413 14.3345 8.03773 14.5796 8.11854 14.7691L8.12277 14.779L8.12902 14.7878C8.21132 14.9036 8.33883 14.9839 8.50614 14.9839L8.50982 14.9839C8.53972 14.9839 8.57127 14.9839 8.60369 14.9788C8.63982 14.9732 8.67362 14.962 8.71282 14.9436L8.71291 14.9438L8.71867 14.9406L10.3457 14.043L13.1258 15.5616L10.3457 17.0802L8.71941 16.183C8.71926 16.1829 8.71912 16.1828 8.71898 16.1828C8.50395 16.062 8.25034 16.1456 8.12629 16.3395C7.9902 16.5522 8.0899 16.7976 8.29286 16.9118L8.29378 16.9123L9.481 17.5641L8.12945 18.3081L8.12864 18.3086C7.9099 18.4317 7.8735 18.6767 7.95431 18.8662L7.95854 18.8762L7.96479 18.8849C8.04709 19.0007 8.1746 19.081 8.34191 19.081H8.34558C8.37548 19.0811 8.40704 19.0811 8.43947 19.076C8.47559 19.0703 8.5094 19.0592 8.54859 19.0408L8.54868 19.041L8.55436 19.0378L9.91703 18.2877V19.5972C9.91703 19.7143 9.95929 19.8187 10.039 19.8934C10.118 19.9676 10.2261 20.0052 10.3455 20.0052C10.4649 20.0052 10.573 19.9676 10.652 19.8934C10.7317 19.8187 10.7739 19.7143 10.7739 19.5972V17.8369L13.5629 16.1984V19.2301L11.9395 20.1257L11.9387 20.1261C11.72 20.2492 11.6836 20.4943 11.7644 20.6838L11.7686 20.6937L11.7749 20.7025C11.8572 20.8183 11.9847 20.8986 12.152 20.8986H12.1557C12.1856 20.8986 12.2171 20.8986 12.2496 20.8935C12.2857 20.8879 12.3195 20.8767 12.3587 20.8583L12.3588 20.8585L12.3644 20.8554L13.5629 20.1974V21.6919C13.5629 21.8091 13.6052 21.9135 13.6848 21.9882C13.7639 22.0624 13.8719 22.1 13.9914 22.1C14.1108 22.1 14.2188 22.0624 14.2979 21.9882C14.3776 21.9135 14.4198 21.8091 14.4198 21.6919V20.1974L15.6184 20.8554L15.6183 20.8556L15.624 20.8583C15.6632 20.8767 15.697 20.8879 15.7331 20.8935C15.7656 20.8986 15.7971 20.8986 15.827 20.8986H15.8307C15.899 20.8986 15.9719 20.8778 16.0359 20.8455C16.1002 20.813 16.1635 20.7649 16.2078 20.7025L16.2079 20.7026L16.2106 20.6984C16.3466 20.4857 16.2469 20.2403 16.044 20.1261L16.0432 20.1257L14.4198 19.2301V16.1923L17.2088 17.7157V19.4739C17.2088 19.5911 17.251 19.6955 17.3307 19.7702C17.4098 19.8444 17.5178 19.882 17.6372 19.882C17.7566 19.882 17.8647 19.8444 17.9438 19.7702C18.0234 19.6955 18.0657 19.5911 18.0657 19.4739V18.1645L19.4283 18.9146L19.4282 18.9148L19.4341 18.9176C19.4733 18.9359 19.5071 18.9471 19.5432 18.9528C19.5757 18.9578 19.6072 18.9578 19.6371 18.9578H19.6408C19.709 18.9578 19.7819 18.9371 19.846 18.9047C19.9103 18.8723 19.9736 18.8241 20.0179 18.7617L20.018 18.7618L20.0206 18.7577C20.1567 18.545 20.057 18.2996 19.8541 18.1854L19.8533 18.1849L18.5017 17.4409L19.6889 16.7891L19.6898 16.7886C19.9086 16.6655 19.945 16.4204 19.8642 16.2309L19.8609 16.2233L19.8564 16.2163C19.7245 16.0101 19.4702 15.9809 19.2772 16.0533L19.2704 16.0558L19.264 16.0594L17.6365 16.9573L14.8584 15.4684L17.637 13.9506L19.264 14.8482L19.2639 14.8484L19.2699 14.8512C19.3091 14.8696 19.3429 14.8808 19.379 14.8864C19.4114 14.8915 19.443 14.8915 19.4729 14.8915L19.4766 14.8915C19.5448 14.8915 19.6177 14.8707 19.6818 14.8384C19.7461 14.8059 19.8093 14.7578 19.8537 14.6954L19.8538 14.6954L19.8564 14.6913C19.9925 14.4786 19.8928 14.2332 19.6898 14.119L19.6889 14.1185L18.5017 13.4667L19.845 12.7272C19.966 12.6864 20.0451 12.6048 20.0799 12.5068C20.1145 12.4094 20.1027 12.3032 20.0575 12.2184Z" fill="#92BCCD" stroke="#92BCCD" stroke-width="0.2"/>
</svg>
