<svg width="55" height="37" viewBox="0 0 55 37" fill="none" xmlns="http://www.w3.org/2000/svg">
<g clip-path="url(#clip95)">
<path d="M52.8567 31.4802C52.6992 33.6689 50.8897 35.374 48.5788 35.4676H48.5246H48.442H48.3594H48.2768H48.1942H48.1116H48.029H47.9464H47.8638H47.7812H47.6987H47.616H47.5334H47.4508H47.3682H47.2856H47.203H47.1204H47.0377H46.9551H46.8725H46.7899H46.7072H46.6246H46.542H46.4593H46.3767H46.2941H46.2114H46.1288H46.0461H45.9635H45.8808H45.7982H45.7155H45.6328H45.5502H45.4675H45.3848H45.3022H45.2195H45.1368H45.0542H44.9715H44.8888H44.8061H44.7235H44.6408H44.5581H44.4754H44.3927H44.31H44.2273H44.1446H44.0619H43.9792H43.8965H43.8138H43.7311H43.6484H43.5657H43.483H43.4003H43.3176H43.2348H43.1521H43.0694H42.9867H42.904H42.8212H42.7385H42.6558H42.573H42.4903H42.4076H42.3248H42.2421H42.1594H42.0766H41.9939H41.9111H41.8284H41.7456H41.6629H41.5801H41.4974H41.4146H41.3319H41.2491H41.1663H41.0836H41.0008H40.9181H40.8353H40.7525H40.6697H40.587H40.5042H40.4214H40.3387H40.2559H40.1731H40.0903H40.0075H39.9248H39.842H39.7592H39.6764H39.5936H39.5108H39.428H39.3452H39.2624H39.1796H39.0968H39.014H38.9312H38.8484H38.7656H38.6828H38.6H38.5172H38.4344H38.3516H38.2688H38.186H38.1032H38.0204H37.9375H37.8547H37.7719H37.6891H37.6063H37.5234H37.4406H37.3578H37.275H37.1921H37.1093H37.0265H36.9436H36.8608H36.778H36.6952H36.6123H36.5295H36.4466H36.3638H36.281H36.1981H36.1153H36.0325H35.9496H35.8668H35.7839H35.7011H35.6182H35.5354H35.4525H35.3697H35.2868H35.204H35.1211H35.0383H34.9554H34.8726H34.7897H34.7069H34.624H34.5411H34.4583H34.3754H34.2926H34.2097H34.1268H34.044H33.9611H33.8782H33.7954H33.7125H33.6296H33.5468H33.4639H33.381H33.2982H33.2153H33.1324H33.0496H32.9667H32.8838H32.8009H32.7181H32.6352H32.5523H32.4694H32.3866H32.3037H32.2208H32.1379H32.055H31.9722H31.8893H31.8064H31.7235H31.6406H31.5578H31.4749H31.392H31.3091H31.2262H31.1433H31.0605H30.9776H30.8947H30.8118H30.7289H30.646H30.5631H30.4802H30.3974H30.3145H30.2316H30.1487H30.0658H29.9829H29.9H29.8171H29.7342H29.6514H29.5685H29.4856H29.4027H29.3198H29.2369H29.154H29.0711H28.9882H28.9053H28.8224H28.7395H28.6566H28.5737H28.4909H28.408H28.3251H28.2422H28.1593H28.0764H27.9935H27.9106H27.8277H27.7448H27.6619H27.579H27.4961H27.4132H27.3303H27.2474H27.1645H27.0817H26.9988H26.9159H26.833H26.7501H26.6672H26.5843H26.5014H26.4185H26.3356H26.2527H26.1698H26.0869H26.004H25.9211H25.8382H25.7554H25.6725H25.5896H25.5067H25.4238H25.3409H25.258H25.1751H25.0922H25.0093H24.9264H24.8435H24.7607H24.6778H24.5949H24.512H24.4291H24.3462H24.2633H24.1804H24.0975H24.0147H23.9318H23.8489H23.766H23.6831H23.6002H23.5174H23.4345H23.3516H23.2687H23.1858H23.1029H23.0201H22.9372H22.8543H22.7714H22.6885H22.6057H22.5228H22.4399H22.357H22.2742H22.1913H22.1084H22.0255H21.9427H21.8598H21.7769H21.694H21.6112H21.5283H21.4454H21.3626H21.2797H21.1968H21.114H21.0311H20.9482H20.8654H20.7825H20.6996H20.6168H20.5339H20.451H20.3682H20.2853H20.2025H20.1196H20.0368H19.9539H19.871H19.7882H19.7053H19.6225H19.5396H19.4568H19.3739H19.2911H19.2082H19.1254H19.0425H18.9597H18.8769H18.794H18.7112H18.6283H18.5455H18.4627H18.3798H18.297H18.2141H18.1313H18.0485H17.9656H17.8828H17.8H17.7171H17.6343H17.5515H17.4687H17.3858H17.303H17.2202H17.1374H17.0546H16.9717H16.8889H16.8061H16.7233H16.6405H16.5577H16.4749H16.392H16.3092H16.2264H16.1436H16.0608H15.978H15.8952H15.8124H15.7296H15.6468H15.564H15.4812H15.3984H15.3156H15.2329H15.1501H15.0673H14.9845H14.9017H14.8189H14.7361H14.6534H14.5706H14.4878H14.405H14.3223H14.2395H14.1567H14.0739H13.9912H13.9084H13.8256H13.7429H13.6601H13.5774H13.4946H13.4118H13.3291H13.2463H13.1636H13.0808H12.9981H12.9153H12.8326H12.7498H12.6671H12.5844H12.5016H12.4189H12.3362H12.2534H12.1707H12.088H12.0052H11.9225H11.8398H11.7571H11.6743H11.5916H11.5089H11.4262H11.3435H11.2608H11.1781H11.0953H11.0126H10.9299H10.8472H10.7645H10.6818H10.5991H10.5164H10.4338H10.3511H10.2684H10.1857H10.103H10.0203H9.93765H9.85497H9.77229H9.68962H9.60695H9.52428H9.44161H9.35895H9.27628H9.19362H9.11096H9.02831H8.94565H8.863H8.78035H8.6977H8.61505H8.53241H8.44977H8.36713H8.28449H8.20186H8.11923H8.03659H7.95397H7.87134H7.78872H7.7061H7.62348H7.54086H7.45825H7.37563H7.29303H7.21042H7.12781H7.04521H6.96261H6.88001H6.79742H6.71482H6.63223H6.54965H6.46706H6.38448H6.3019H6.24676C3.90064 35.3754 2.06578 33.5406 1.97364 31.2367C1.97218 29.9832 1.8743 28.8257 1.77572 27.66C1.76942 27.5854 1.76312 27.5109 1.75684 27.4363V9.53087C1.75684 9.35876 1.77377 9.19418 1.80061 8.96772C1.80251 8.95167 1.80452 8.93492 1.80661 8.91751C1.83069 8.71686 1.86524 8.42886 1.86524 8.13213C1.86524 7.0456 1.87031 6.03349 2.04279 5.14219C2.64507 3.00276 4.54898 1.5625 6.65295 1.5625H6.73426H6.81557H6.89687H6.97818H7.05949H7.14079H7.2221H7.30341H7.38471H7.46602H7.54733H7.62863H7.70994H7.79125H7.87255H7.95386H8.03517H8.11648H8.19778H8.27909H8.3604H8.44171H8.52301H8.60432H8.68563H8.76694H8.84825H8.92955H9.01086H9.09217H9.17348H9.25479H9.3361H9.41741H9.49872H9.58003H9.66134H9.74265H9.82396H9.90527H9.98658H10.0679H10.1492H10.2305H10.3118H10.3931H10.4744H10.5558H10.6371H10.7184H10.7997H10.881H10.9623H11.0436H11.1249H11.2063H11.2876H11.3689H11.4502H11.5315H11.6128H11.6942H11.7755H11.8568H11.9381H12.0194H12.1007H12.1821H12.2634H12.3447H12.426H12.5073H12.5886H12.67H12.7513H12.8326H12.9139H12.9952H13.0766H13.1579H13.2392H13.3205H13.4019H13.4832H13.5645H13.6458H13.7272H13.8085H13.8898H13.9711H14.0525H14.1338H14.2151H14.2964H14.3778H14.4591H14.5404H14.6218H14.7031H14.7844H14.8657H14.9471H15.0284H15.1097H15.1911H15.2724H15.3537H15.4351H15.5164H15.5978H15.6791H15.7604H15.8418H15.9231H16.0044H16.0858H16.1671H16.2485H16.3298H16.4111H16.4925H16.5738H16.6552H16.7365H16.8179H16.8992H16.9805H17.0619H17.1432H17.2246H17.3059H17.3873H17.4686H17.55H17.6313H17.7127H17.794H17.8754H17.9567H18.0381H18.1194H18.2008H18.2822H18.3635H18.4449H18.5262H18.6076H18.6889H18.7703H18.8517H18.933H19.0144H19.0958H19.1771H19.2585H19.3398H19.4212H19.5026H19.5839H19.6653H19.7467H19.8281H19.9094H19.9908H20.0722H20.1535H20.2349H20.3163H20.3977H20.479H20.5604H20.6418H20.7232H20.8046H20.8859H20.9673H21.0487H21.1301H21.2115H21.2928H21.3742H21.4556H21.537H21.6184H21.6998H21.7812H21.8626H21.944H22.0253H22.1067H22.1881H22.2695H22.3509H22.4323H22.5137H22.5951H22.6765H22.7579H22.8393H22.9207H23.0021H23.0835H23.1649H23.2463H23.3278H23.4092H23.4906H23.572H23.6534H23.7348H23.8162H23.8976H23.9791H24.0605H24.1419H24.2233H24.3047H24.3862H24.4676H24.549H24.6304H24.7118H24.7933H24.8747H24.9561H25.0376H25.119H25.2004H25.2819H25.3633H25.4447H25.5262H25.6076H25.689H25.7705H25.8519H25.9334H26.0148H26.0962H26.1777H26.2591H26.3406H26.422H26.5035H26.5849H26.6664H26.7478H26.8293H26.9108H26.9922H27.0737H27.1551H27.2366H27.3181H27.3995H27.481H27.5625H27.6439H27.7254H27.8069H27.8883H27.9698H28.0513H28.1327H28.2142H28.2957H28.3772H28.4587H28.5401H28.6216H28.7031H28.7846H28.8661H28.9476H29.0291H29.1105H29.192H29.2735H29.355H29.4365H29.518H29.5995H29.681H29.7625H29.844H29.9255H30.007H30.0885H30.17H30.2516H30.3331H30.4146H30.4961H30.5776H30.6591H30.7406H30.8222H30.9037H30.9852H31.0667H31.1483H31.2298H31.3113H31.3928H31.4744H31.5559H31.6374H31.719H31.8005H31.8821H31.9636H32.0451H32.1267H32.2082H32.2898H32.3713H32.4529H32.5344H32.616H32.6975H32.7791H32.8606H32.9422H33.0238H33.1053H33.1869H33.2684H33.35H33.4316H33.5131H33.5947H33.6763H33.7579H33.8394H33.921H34.0026H34.0842H34.1658H34.2473H34.3289H34.4105H34.4921H34.5737H34.6553H34.7369H34.8185H34.9001H34.9817H35.0633H35.1449H35.2265H35.3081H35.3897H35.4713H35.5529H35.6345H35.7161H35.7978H35.8794H35.961H36.0426H36.1242H36.2059H36.2875H36.3691H36.4508H36.5324H36.614H36.6957H36.7773H36.8589H36.9406H37.0222H37.1039H37.1855H37.2672H37.3488H37.4305H37.5121H37.5938H37.6754H37.7571H37.8387H37.9204H38.0021H38.0837H38.1654H38.2471H38.3288H38.4104H38.4921H38.5738H38.6555H38.7371H38.8188H38.9005H38.9822H39.0639H39.1456H39.2273H39.309H39.3907H39.4724H39.5541H39.6358H39.7175H39.7992H39.8809H39.9626H40.0443H40.126H40.2077H40.2895H40.3712H40.4529H40.5346H40.6164H40.6981H40.7798H40.8616H40.9433H41.025H41.1068H41.1885H41.2702H41.352H41.4337H41.5155H41.5972H41.679H41.7607H41.8425H41.9243H42.006H42.0878H42.1696H42.2513H42.3331H42.4149H42.4966H42.5784H42.6602H42.742H42.8238H42.9056H42.9873H43.0691H43.1509H43.2327H43.3145H43.3963H43.4781H43.5599H43.6417H43.7235H43.8053H43.8871H43.969H44.0508H44.1326H44.2144H44.2962H44.3781H44.4599H44.5417H44.6236H44.7054H44.7872H44.8691H44.9509H45.0327H45.1146H45.1964H45.2783H45.3601H45.442H45.5238H45.6057H45.6876H45.7694H45.8513H45.9332H46.015H46.0969H46.1788H46.2607H46.3425H46.4244H46.5063H46.5882H46.6701H46.752H46.8339H46.9158H46.9977H47.0796H47.1615H47.2434H47.3253H47.4072H47.4891H47.571H47.6529H47.7349H47.8168H47.8987H47.9806H48.0626H48.1445H48.2264H48.3084H48.3903C50.88 1.5625 52.872 3.43772 52.9614 5.79659C52.966 6.22104 53.0629 6.66738 53.1618 7.01464C53.1611 7.03341 53.1604 7.05245 53.1598 7.07168C53.1534 7.26222 53.1477 7.52924 53.1424 7.85576C53.132 8.51151 53.123 9.4379 53.1154 10.541C53.1001 12.7486 53.09 15.68 53.0832 18.6057C53.0764 21.532 53.073 24.4547 53.0713 26.6457C53.0705 27.7413 53.07 28.6539 53.0698 29.2928L53.0696 30.0342L53.0696 30.1301C53.0225 30.3606 52.9958 30.5732 52.9761 30.73L52.973 30.7548C52.9441 30.9837 52.9266 31.109 52.8982 31.2215L52.8661 31.349L52.8567 31.4802Z" stroke="#B4BEC4" stroke-width="3"/>
<path d="M46.0154 10.1279L45.0795 10.538C39.6343 13.3264 34.1891 16.1148 28.829 18.9852C28.0633 19.4772 26.9572 19.4772 26.1915 18.9852C20.7463 16.1148 15.216 13.2444 9.77085 10.456C9.51561 10.292 9.26037 10.2099 8.92004 10.1279L8.83496 10.292L20.2358 18.9031L10.8769 28.2524L10.962 28.4165C11.1321 28.2524 11.3874 28.1704 11.5576 28.0884C15.0459 25.7101 18.4491 23.3318 21.8524 20.9534C22.1927 20.6254 22.7883 20.6254 23.1286 20.9534C24.3197 21.7735 25.5109 22.4296 26.702 23.2497C27.1274 23.5778 27.723 23.5778 28.1484 23.2497C29.3395 22.4296 30.6157 21.7735 31.8069 20.9534C32.1472 20.6254 32.6577 20.6254 33.0831 20.9534C36.5714 23.4138 40.0597 25.7921 43.548 28.1704C43.8033 28.3344 44.0585 28.4985 44.2287 28.5805L44.3138 28.4985L34.6996 18.9031L46.1005 10.374L46.0154 10.1279Z" fill="#B4BEC4"/>
</g>
<defs>
<clipPath id="clip95">
<rect width="54.2044" height="36.9051" fill="white" transform="translate(0.365234 0.0625)"/>
</clipPath>
</defs>
</svg>
