<svg width="21" height="18" viewBox="0 0 21 18" fill="none" xmlns="http://www.w3.org/2000/svg">
<path d="M9 2L1 2V17H18V12.5" stroke="white" stroke-opacity="0.5"/>
<g opacity="0.5">
<path d="M6.43588 12.2168L6.43575 12.2167L6.42924 12.2271C6.3629 12.3331 6.25942 12.3987 6.13416 12.4146C6.09346 12.4197 6.03043 12.4161 5.93075 12.3889C5.74582 12.3185 5.63306 12.1505 5.64248 11.9347C5.79838 10.0281 7.10451 6.44179 12.5555 4.53486L13.018 4.37308L12.8656 3.90742L12.415 2.53014C12.4084 2.36886 12.4867 2.19849 12.6597 2.0879L12.6598 2.088L12.6686 2.08208C12.8609 1.95336 13.0783 1.9577 13.2056 2.03542L13.2064 2.03589L18.8804 5.48793C19.0007 5.56408 19.0714 5.67244 19.0874 5.79848L19.0895 5.81499L19.0927 5.83133C19.1147 5.94425 19.0766 6.07273 18.9846 6.1698L18.9846 6.16975L18.979 6.17578L14.3776 11.1913L14.3693 11.2003L14.3615 11.2097C14.2215 11.3782 14.0463 11.4225 13.8873 11.3748L13.8783 11.372L13.8691 11.3697C13.6707 11.3181 13.5011 11.1301 13.4624 10.9359L13.4998 9.51314L13.5149 8.93927L12.9444 9.0031C12.2631 9.07932 11.0377 9.29777 9.79154 9.7781C8.55489 10.2548 7.22984 11.0153 6.43588 12.2168Z" stroke="white"/>
</g>
</svg>
