<svg width="42" height="35" viewBox="0 0 42 35" fill="none" xmlns="http://www.w3.org/2000/svg">
<path d="M37.7395 4.32221L35.0702 6.87135L38.6613 6.01834C39.1296 5.90711 39.5934 5.77656 40.0508 5.62768C39.3413 6.48615 38.5518 7.27056 37.688 7.97047L37.688 7.97042L37.6789 7.97797C37.1018 8.45695 36.7443 9.17543 36.7443 9.94726V10.0806C36.7443 12.8574 36.2048 15.7742 35.1803 18.5078L35.18 18.5086C34.1058 21.3814 32.5609 23.9725 30.5858 26.217C28.4634 28.6186 25.9439 30.5123 23.1054 31.8262L23.1042 31.8267C20.0012 33.2682 16.5636 34 12.8588 34C9.02694 34 5.25946 33.0724 1.87425 31.313C5.38287 31.2874 8.75347 30.2453 11.6563 28.2923L13.7529 26.8818L11.2589 26.4756C8.57022 26.0378 6.27624 24.2508 5.18524 21.7698C5.45483 21.7943 5.7269 21.8072 6.00024 21.8072H6.0006H6.00096H6.00132H6.00168H6.00204H6.00241H6.00277H6.00313H6.00349H6.00385H6.00421H6.00458H6.00494H6.0053H6.00567H6.00603H6.00639H6.00676H6.00712H6.00748H6.00785H6.00821H6.00858H6.00894H6.00931H6.00968H6.01004H6.01041H6.01077H6.01114H6.01151H6.01187H6.01224H6.01261H6.01297H6.01334H6.01371H6.01408H6.01445H6.01481H6.01518H6.01555H6.01592H6.01629H6.01666H6.01703H6.0174H6.01777H6.01814H6.01851H6.01888H6.01925H6.01962H6.01999H6.02036H6.02074H6.02111H6.02148H6.02185H6.02222H6.0226H6.02297H6.02334H6.02371H6.02409H6.02446H6.02483H6.02521H6.02558H6.02596H6.02633H6.0267H6.02708H6.02745H6.02783H6.0282H6.02858H6.02895H6.02933H6.0297H6.03008H6.03046H6.03083H6.03121H6.03158H6.03196H6.03234H6.03271H6.03309H6.03347H6.03385H6.03422H6.0346H6.03498H6.03536H6.03574H6.03611H6.03649H6.03687H6.03725H6.03763H6.03801H6.03839H6.03876H6.03914H6.03952H6.0399H6.04028H6.04066H6.04104H6.04142H6.0418H6.04218H6.04256H6.04295H6.04333H6.04371H6.04409H6.04447H6.04485H6.04523H6.04561H6.046H6.04638H6.04676H6.04714H6.04752H6.04791H6.04829H6.04867H6.04905H6.04944H6.04982H6.0502H6.05059H6.05097H6.05135H6.05174H6.05212H6.0525H6.05289H6.05327H6.05365H6.05404H6.05442H6.05481H6.05519H6.05558H6.05596H6.05635H6.05673H6.05712H6.0575H6.05789H6.05827H6.05866H6.05904H6.05943H6.05981H6.0602H6.06058H6.06097H6.06135H6.06174H6.06213H6.06251H6.0629H6.06329H6.06367H6.06406H6.06444H6.06483H6.06522H6.0656H6.06599H6.06638H6.06677H6.06715H6.06754H6.06793H6.06831H6.0687H6.06909H6.06948H6.06986H6.07025H6.07064H6.07103H6.07141H6.0718H6.07219H6.07258H6.07297H6.07335H6.07374H6.07413H6.07452H6.07491H6.0753H6.07568H6.07607H6.07646H6.07685H6.07724H6.07763H6.07802H6.0784H6.07879H6.07918H6.07957H6.07996H6.08035H6.08074H6.08113H6.08152H6.08191H6.08229H6.08268H6.08307H6.08346H6.08385H6.08424H6.08463H6.08502H6.08541H6.0858H6.08619H6.08658H6.08697H6.08736H6.08775H6.08814H6.08853H6.08891H6.0893H6.08969H6.09008H6.09047H6.09086H6.09125H6.09164H6.09203H6.09242H6.09281H6.0932H6.09359H6.09398H6.09437H6.09476H6.09515H6.09554H6.09593H6.09632H6.09671H6.0971H6.09749H6.09788H6.09827H6.09866H6.09905H6.09944H6.09983H6.10022H6.10061H6.101H6.10139H6.10178H6.10217H6.10256H6.10295H6.10334H6.10373H6.10412H6.10451H6.1049H6.10529H6.10568H6.10607H6.10646H6.10685H6.10723H6.10762H6.10801H6.1084H6.10879H6.10918H6.10957H6.10996H6.11035H6.11074H6.11113H6.11152H6.11191H6.1123H6.11269H6.11308H6.11346H6.11385H6.11424H6.11463H6.11502H6.11541H6.1158H6.11619H6.11658H6.11697H6.11735H6.11774H6.11813H6.11852H6.11891H6.1193H6.11969H6.12007H6.12046H6.12085H6.12124H6.12163H6.12201H6.1224H6.12279H6.12318H6.12357H6.12395H6.12434H6.12473H6.12512H6.1255H6.12589H6.12628H6.12667H6.12705H6.12744H6.12783H6.12822H6.1286H6.12899H6.12938H6.12976H6.13015H6.13054H6.13092H6.13131H6.1317H6.13208H6.13247H6.13285H6.13324H6.13363H6.13401H6.1344H6.13478H6.13517H6.13555H6.13594H6.13633H6.13671H6.1371H6.13748H6.13787H6.13825H6.13864H6.13902H6.1394H6.13979H6.14017H6.14056H6.14094H6.14133H6.14171H6.14209H6.14248H6.14286H6.14325H6.14363H6.14401H6.14439H6.14478H6.14516H6.14554H6.14593H6.14631H6.14669H6.14707H6.14746H6.14784H6.14822H6.1486H6.14898H6.14937H6.14975H6.15013H6.15051H6.15089H6.15127H6.15165H6.15204H6.15242H6.1528H6.15318H6.15356H6.15394H6.15432H6.1547H6.15508H6.15546H6.15584H6.15622H6.15659H6.15697H6.15735H6.15773H6.15811H6.15849H6.15887H6.15925H6.15962H6.16H6.16038H6.16076H6.16113H6.16151H6.16189H6.16227H6.16264H6.16302H6.1634H6.16377H6.16415H6.16453H6.1649H6.16528H6.16565H6.16603H6.1664H6.16678H6.16715H6.16753H6.1679H6.16828H6.16865H6.16903H6.1694H6.16977H6.17015H6.17052H6.17089H6.17127H6.17164H6.17201H6.17239H6.17276H6.17313H6.1735H6.17387H6.17425H6.17462H6.17499H6.17536H6.17573H6.1761H6.17647H6.17684H6.17721H6.17758H6.17795H6.17832H6.17869H6.17906H6.17943H6.1798H6.18017H6.18053H6.1809H6.18127H6.18164H6.18201H6.18237H6.18274H6.18311H6.18348H6.18384H6.18421H6.18457H6.18494H6.18531H6.18567H6.18604H6.1864H6.18677H6.18713H6.1875H6.18786H6.18822H6.18859H6.18895H6.18932H6.18968H6.19004H6.1904H6.19077H6.19113H6.19149H6.19185H6.19221H6.19258H6.19294H6.1933H6.19366H6.19402H6.19438H6.19474L6.61201 19.8984C4.02225 18.7093 2.21721 16.1983 1.94715 13.2997C2.43548 13.5092 2.93858 13.676 3.45035 13.8005L6.99159 14.6621L4.38591 12.1139C2.85936 10.6211 1.98425 8.56156 1.98425 6.3683C1.98425 5.19317 2.24179 4.0361 2.72617 2.98369C6.95391 7.8671 12.7808 10.8809 19.2159 11.4763L19.2618 11.4805H19.308H19.308H19.3081H19.3082H19.3082H19.3083H19.3083H19.3084H19.3085H19.3085H19.3086H19.3086H19.3087H19.3088H19.3088H19.3089H19.3089H19.309H19.3091H19.3091H19.3092H19.3092H19.3093H19.3094H19.3094H19.3095H19.3095H19.3096H19.3097H19.3097H19.3098H19.3098H19.3099H19.31H19.31H19.3101H19.3101H19.3102H19.3103H19.3103H19.3104H19.3104H19.3105H19.3106H19.3106H19.3107H19.3107H19.3108H19.3109H19.3109H19.311H19.311H19.3111H19.3112H19.3112H19.3113H19.3113H19.3114H19.3115H19.3115H19.3116H19.3116H19.3117H19.3118H19.3118H19.3119H19.3119H19.312H19.3121H19.3121H19.3122H19.3122H19.3123H19.3124H19.3124H19.3125H19.3125H19.3126H19.3127H19.3127H19.3128H19.3128H19.3129H19.313H19.313H19.3131H19.3131H19.3132H19.3133H19.3133H19.3134H19.3134H19.3135H19.3136H19.3136H19.3137H19.3137H19.3138H19.3139H19.3139H19.314H19.314H19.3141H19.3142H19.3142H19.3143H19.3143H19.3144H19.3145H19.3145H19.3146H19.3146H19.3147H19.3148H19.3148H19.3149H19.3149H19.315H19.3151H19.3151H19.3152H19.3152H19.3153H19.3154H19.3154H19.3155H19.3155H19.3156H19.3157H19.3157H19.3158H19.3158H19.3159H19.316H19.316H19.3161H19.3161H19.3162H19.3163H19.3163H19.3164H19.3164H19.3165H19.3166H19.3166H19.3167H19.3167H19.3168H19.3169H19.3169H19.317H19.317H19.3171H19.3172H19.3172H19.3173H19.3173H19.3174H19.3175H19.3175H19.3176H19.3176H19.3177H19.3178H19.3178H19.3179H19.3179H19.318H19.3181H19.3181H19.3182H19.3182H19.3183H19.3184H19.3184H19.3185H19.3185H19.3186H19.3187H19.3187H19.3188H19.3188H19.3189H19.319H19.319H19.3191H19.3191H19.3192H19.3193H19.3193H19.3194H19.3194H19.3195H19.3196H19.3196H19.3197H19.3197H19.3198H19.3199H19.3199H19.32H19.32H19.3201H19.3202H19.3202H19.3203H19.3203H19.3204H19.3205H19.3205H19.3206H19.3206H19.3207H19.3208H19.3208H19.3209H19.3209H19.321H19.3211H19.3211H19.3212H19.3212H19.3213H19.3214H19.3214H19.3215H19.3215H19.3216H19.3217H19.3217H19.3218H19.3218H19.3219H19.322H19.322H19.3221H19.3221H19.3222H19.3223H19.3223H19.3224H19.3224H19.3225H19.3226H19.3226H19.3227H19.3227H19.3228H19.3229H19.3229H19.323H19.323H19.3231H19.3232H19.3232H19.3233H19.3233H19.3234H19.3235H19.3235H19.3236H19.3236H19.3237H19.3238H19.3238H19.3239H19.3239H19.324H19.3241H19.3241H19.3242H19.3242H19.3243H19.3244H19.3244H19.3245H19.3245H19.3246H19.3247H19.3247H19.3248H19.3248H19.3249H19.325H19.325H19.3251H19.3251H19.3252H19.3253H19.3253H19.3254H19.3254H19.3255H19.3256H19.3256H19.3257H19.3257H19.3258H19.3259H19.3259H19.326H19.326H19.3261H19.3262H19.3262H19.3263H19.3263H19.3264H19.3265H19.3265H19.3266H19.3266H19.3267H19.3268H19.3268H19.3269H19.3269H19.327H19.3271H19.3271H19.3272H19.3272H19.3273H19.3274H19.3274H19.3275H19.3275H19.3276H19.3277H19.3277H19.3278H19.3278H19.3279H19.328H19.328H19.3281H19.3281H19.3282H19.3283H19.3283H19.3284H19.3284H19.3285H19.3286H19.3286H19.3287H19.3287H19.3288H19.3289H19.3289H19.329H19.329H19.3291H19.3292H19.3292H19.3293H19.3293H19.3294H19.3295H19.3295H19.3296H19.3296H19.3297H19.3298H19.3298H19.3299H19.3299H19.33H19.3301H19.3301H19.3302H19.3302H19.3303H19.3304H19.3304H19.3305H19.3305H19.3306H19.3307H19.3307H19.3308H19.3308H19.3309H19.331H19.331H19.3311H19.3311H19.3312H19.3313H19.3313H19.3314H19.3314H19.3315H19.3316H19.3316H19.3317H19.3317H19.3318H19.3319H19.3319H19.332H19.332H19.3321H19.3322H19.3322H19.3323H19.3323H19.3324H19.3325H19.3325H19.3326H19.3326H19.3327H19.3328H19.3328H19.3329H19.3329H19.333H19.3331H19.3331H19.3332H19.3332H19.3333H19.3334H19.3334H19.3335H19.3335H19.3336H19.3337H19.3337H19.3338H19.3338H19.3339H19.334H19.334H19.3341H19.3341H19.3342H19.3343H19.3343H19.3344H19.3344H19.3345H19.3346H19.3346H19.3347H19.3347H19.3348H19.3349H19.3349H19.335H19.335H19.3351H19.3352H19.3352H19.3353H19.3353H19.3354H19.3355H19.3355H19.3356H19.3356H19.3357H19.3358H19.3358H19.3359H19.3359H19.336H19.3361H19.3361H19.3362H19.3362H19.3363H19.3364H19.3364H19.3365H19.3365H19.3366H19.3367H19.3367H19.3368H19.3368H19.3369H19.337H19.337H19.3371H19.3371H19.3372H19.3373H19.3373H19.3374H19.3374H19.3375H19.3376H19.3376H19.3377H19.3377H19.3378H19.3379H19.3379H19.338H19.338H19.3381H19.3382H19.3382H19.3383H19.3383H19.3384H19.3385H19.3385H19.3386H19.3386H19.3387C19.7061 11.4805 20.0678 11.3255 20.3223 11.0428C20.5407 10.8071 20.6975 10.4453 20.6628 10.0284L20.6616 10.0142L20.6601 10.0001C20.5505 9.02131 20.6137 8.00926 20.854 6.99987L20.8543 6.99857C21.4788 4.36035 23.4924 2.20518 26.0824 1.39658C26.9363 1.13655 27.8095 1 28.6541 1C30.6222 1 32.5138 1.71122 33.9767 3.00217C34.3807 3.3657 34.8962 3.55347 35.4206 3.55347C35.5876 3.55347 35.7525 3.53482 35.9143 3.49881L35.9302 3.49528L35.9459 3.49123C37.1054 3.19319 38.2278 2.78205 39.3013 2.26164C38.8941 3.02741 38.3678 3.72224 37.7395 4.32221Z" stroke="#B4BEC4" stroke-width="2"/>
</svg>
