<svg width="15" height="15" viewBox="0 0 15 15" fill="none" xmlns="http://www.w3.org/2000/svg">
<path d="M13.269 15.0001H0.578779C0.260371 15.0001 0.00195312 14.7417 0.00195312 14.4232V1.73308C0.00195312 1.41467 0.260371 1.15625 0.578779 1.15625H7.50069C7.8191 1.15625 8.07752 1.41467 8.07752 1.73308C8.07752 2.05148 7.8191 2.3099 7.50069 2.3099H1.15561V13.8464H12.6921V7.50134C12.6921 7.18293 12.9505 6.92451 13.269 6.92451C13.5874 6.92451 13.8458 7.18293 13.8458 7.50134V14.4232C13.8458 14.7417 13.5874 15.0001 13.269 15.0001Z" fill="#ACB4BE"/>
<path d="M6.92449 10.3851H5.19401C4.87561 10.3851 4.61719 10.1267 4.61719 9.80828V8.07781C4.61719 7.92437 4.67833 7.77786 4.78562 7.66941L12.2844 0.170675C12.5093 -0.0542874 12.875 -0.0542874 13.1 0.170675L14.8305 1.90115C15.0554 2.12611 15.0554 2.49182 14.8305 2.71678L7.33173 10.2155C7.22444 10.324 7.07793 10.3851 6.92449 10.3851ZM5.77084 9.23146H6.68569L13.6076 2.30955L12.6928 1.3947L5.77084 8.31661V9.23146Z" fill="#ACB4BE"/>
<path d="M12.6927 4.61613C12.545 4.61613 12.3973 4.55959 12.2843 4.44767L10.5535 2.71693C10.3285 2.49193 10.3285 2.12617 10.5535 1.90117C10.7785 1.67617 11.1443 1.67617 11.3693 1.90117L13.1 3.63191C13.325 3.85691 13.325 4.22267 13.1 4.44767C12.9881 4.55959 12.8404 4.61613 12.6927 4.61613Z" fill="#ACB4BE"/>
</svg>
